<?xml version="1.0" encoding="UTF-8" standalone="no"?>
<!DOCTYPE svg PUBLIC "-//W3C//DTD SVG 1.1//EN"
 "http://www.w3.org/Graphics/SVG/1.1/DTD/svg11.dtd">
<!-- Generated by graphviz version 12.2.1 (0)
 -->
<!-- Title: calibration_loop Pages: 1 -->
<svg width="1398pt" height="184pt"
 viewBox="0.00 0.00 1397.75 183.50" xmlns="http://www.w3.org/2000/svg" xmlns:xlink="http://www.w3.org/1999/xlink">
<g id="graph0" class="graph" transform="scale(1 1) rotate(0) translate(4 179.5)">
<title>calibration_loop</title>
<!-- dialectic -->
<g id="node1" class="node">
<title>dialectic</title>
<path fill="#e8f8e8" stroke="#4c8a4c" d="M137.88,-137C137.88,-137 27.38,-137 27.38,-137 21.38,-137 15.38,-131 15.38,-125 15.38,-125 15.38,-113 15.38,-113 15.38,-107 21.38,-101 27.38,-101 27.38,-101 137.88,-101 137.88,-101 143.88,-101 149.88,-107 149.88,-113 149.88,-113 149.88,-125 149.88,-125 149.88,-131 143.88,-137 137.88,-137"/>
<text text-anchor="middle" x="82.62" y="-122.05" font-family="Helvetica,sans-Serif" font-size="11.00">Quantitative dialectic</text>
<text text-anchor="middle" x="82.62" y="-108.55" font-family="Helvetica,sans-Serif" font-size="11.00">(synthesis §3.9)</text>
</g>
<!-- predicted -->
<g id="node2" class="node">
<title>predicted</title>
<polygon fill="#fff5dd" stroke="#b88830" points="473.5,-104 377.25,-104 377.25,-68 479.5,-68 479.5,-98 473.5,-104"/>
<polyline fill="none" stroke="#b88830" points="473.5,-104 473.5,-98"/>
<polyline fill="none" stroke="#b88830" points="479.5,-98 473.5,-98"/>
<text text-anchor="middle" x="428.38" y="-89.05" font-family="Helvetica,sans-Serif" font-size="11.00">predicted_Δloss</text>
<text text-anchor="middle" x="428.38" y="-75.55" font-family="Helvetica,sans-Serif" font-size="11.00">(L̂_k)</text>
</g>
<!-- dialectic&#45;&gt;predicted -->
<g id="edge1" class="edge">
<title>dialectic&#45;&gt;predicted</title>
<path fill="none" stroke="#444444" d="M150.31,-112.6C212.58,-106.62 304.79,-97.77 365.47,-91.94"/>
<polygon fill="#444444" stroke="#444444" points="365.66,-95.44 375.28,-91 364.99,-88.47 365.66,-95.44"/>
</g>
<!-- append -->
<g id="node6" class="node">
<title>append</title>
<polygon fill="#f8f4e8" stroke="#b88830" points="625,-79.25 520.5,-79.25 520.5,-42.75 625,-42.75 637,-61 625,-79.25"/>
<text text-anchor="middle" x="578.75" y="-70.8" font-family="Helvetica,sans-Serif" font-size="11.00">ldd_trace append</text>
<text text-anchor="middle" x="578.75" y="-57.3" font-family="Helvetica,sans-Serif" font-size="11.00">&#45;&#45;predicted&#45;delta L̂</text>
<text text-anchor="middle" x="578.75" y="-43.8" font-family="Helvetica,sans-Serif" font-size="11.00">&#45;&#45;loss&#45;norm L</text>
</g>
<!-- predicted&#45;&gt;append -->
<g id="edge2" class="edge">
<title>predicted&#45;&gt;append</title>
<path fill="none" stroke="#444444" stroke-dasharray="5,2" d="M479.61,-77.54C489.08,-75.94 499.13,-74.25 509.05,-72.58"/>
<polygon fill="#444444" stroke="#444444" points="509.38,-76.07 518.66,-70.96 508.22,-69.17 509.38,-76.07"/>
</g>
<!-- edit -->
<g id="node3" class="node">
<title>edit</title>
<path fill="#f5f5f5" stroke="#666666" d="M153.25,-36C153.25,-36 12,-36 12,-36 6,-36 0,-30 0,-24 0,-24 0,-12 0,-12 0,-6 6,0 12,0 12,0 153.25,0 153.25,0 159.25,0 165.25,-6 165.25,-12 165.25,-12 165.25,-24 165.25,-24 165.25,-30 159.25,-36 153.25,-36"/>
<text text-anchor="middle" x="82.62" y="-14.3" font-family="Helvetica,sans-Serif" font-size="11.00">apply edit (θ_k → θ_{k+1})</text>
</g>
<!-- measure -->
<g id="node4" class="node">
<title>measure</title>
<path fill="#f5f5f5" stroke="#666666" d="M324.25,-36C324.25,-36 218.25,-36 218.25,-36 212.25,-36 206.25,-30 206.25,-24 206.25,-24 206.25,-12 206.25,-12 206.25,-6 212.25,0 218.25,0 218.25,0 324.25,0 324.25,0 330.25,0 336.25,-6 336.25,-12 336.25,-12 336.25,-24 336.25,-24 336.25,-30 330.25,-36 324.25,-36"/>
<text text-anchor="middle" x="271.25" y="-14.3" font-family="Helvetica,sans-Serif" font-size="11.00">measure L(θ_{k+1})</text>
</g>
<!-- edit&#45;&gt;measure -->
<g id="edge3" class="edge">
<title>edit&#45;&gt;measure</title>
<path fill="none" stroke="#444444" d="M165.48,-18C175.09,-18 184.86,-18 194.38,-18"/>
<polygon fill="#444444" stroke="#444444" points="194.33,-21.5 204.33,-18 194.33,-14.5 194.33,-21.5"/>
</g>
<!-- actual -->
<g id="node5" class="node">
<title>actual</title>
<polygon fill="#e8f4f8" stroke="#5b8db8" points="463.75,-36 387,-36 387,0 469.75,0 469.75,-30 463.75,-36"/>
<polyline fill="none" stroke="#5b8db8" points="463.75,-36 463.75,-30"/>
<polyline fill="none" stroke="#5b8db8" points="469.75,-30 463.75,-30"/>
<text text-anchor="middle" x="428.38" y="-21.05" font-family="Helvetica,sans-Serif" font-size="11.00">actual Δloss</text>
<text text-anchor="middle" x="428.38" y="-7.55" font-family="Helvetica,sans-Serif" font-size="11.00">(ΔL_k)</text>
</g>
<!-- measure&#45;&gt;actual -->
<g id="edge4" class="edge">
<title>measure&#45;&gt;actual</title>
<path fill="none" stroke="#444444" d="M336.69,-18C349.69,-18 363.2,-18 375.69,-18"/>
<polygon fill="#444444" stroke="#444444" points="375.33,-21.5 385.33,-18 375.33,-14.5 375.33,-21.5"/>
</g>
<!-- actual&#45;&gt;append -->
<g id="edge5" class="edge">
<title>actual&#45;&gt;append</title>
<path fill="none" stroke="#444444" d="M469.92,-29.75C482.11,-33.28 495.83,-37.26 509.3,-41.16"/>
<polygon fill="#444444" stroke="#444444" points="507.98,-44.42 518.56,-43.85 509.93,-37.7 507.98,-44.42"/>
</g>
<!-- agg -->
<g id="node7" class="node">
<title>agg</title>
<path fill="#e8f4f8" stroke="#5b8db8" d="M829.5,-79C829.5,-79 754.25,-79 754.25,-79 748.25,-79 742.25,-73 742.25,-67 742.25,-67 742.25,-55 742.25,-55 742.25,-49 748.25,-43 754.25,-43 754.25,-43 829.5,-43 829.5,-43 835.5,-43 841.5,-49 841.5,-55 841.5,-55 841.5,-67 841.5,-67 841.5,-73 835.5,-79 829.5,-79"/>
<text text-anchor="middle" x="791.88" y="-64.05" font-family="Helvetica,sans-Serif" font-size="11.00">aggregator</text>
<text text-anchor="middle" x="791.88" y="-50.55" font-family="Helvetica,sans-Serif" font-size="11.00">(auto on close)</text>
</g>
<!-- append&#45;&gt;agg -->
<g id="edge6" class="edge">
<title>append&#45;&gt;agg</title>
<path fill="none" stroke="#444444" d="M637.44,-61C666.33,-61 701.28,-61 730.52,-61"/>
<polygon fill="#444444" stroke="#444444" points="730.33,-64.5 740.33,-61 730.33,-57.5 730.33,-64.5"/>
</g>
<!-- calib -->
<g id="node8" class="node">
<title>calib</title>
<path fill="#e8e8f8" stroke="#5050a8" d="M1001.25,-95.88C1001.25,-100.15 974.64,-103.62 941.88,-103.62 909.11,-103.62 882.5,-100.15 882.5,-95.88 882.5,-95.88 882.5,-26.12 882.5,-26.12 882.5,-21.85 909.11,-18.38 941.88,-18.38 974.64,-18.38 1001.25,-21.85 1001.25,-26.12 1001.25,-26.12 1001.25,-95.88 1001.25,-95.88"/>
<path fill="none" stroke="#5050a8" d="M1001.25,-95.88C1001.25,-91.6 974.64,-88.12 941.88,-88.12 909.11,-88.12 882.5,-91.6 882.5,-95.88"/>
<text text-anchor="middle" x="941.88" y="-77.55" font-family="Helvetica,sans-Serif" font-size="11.00">calibration block:</text>
<text text-anchor="middle" x="941.88" y="-64.05" font-family="Helvetica,sans-Serif" font-size="11.00">err_i = L̂_i − ΔL_i</text>
<text text-anchor="middle" x="941.88" y="-50.55" font-family="Helvetica,sans-Serif" font-size="11.00">MAE = mean|err_i|</text>
<text text-anchor="middle" x="941.88" y="-37.05" font-family="Helvetica,sans-Serif" font-size="11.00">by&#45;skill MAE</text>
</g>
<!-- agg&#45;&gt;calib -->
<g id="edge7" class="edge">
<title>agg&#45;&gt;calib</title>
<path fill="none" stroke="#444444" d="M841.75,-61C851,-61 860.86,-61 870.63,-61"/>
<polygon fill="#444444" stroke="#444444" points="870.5,-64.5 880.5,-61 870.5,-57.5 870.5,-64.5"/>
</g>
<!-- gate -->
<g id="node9" class="node">
<title>gate</title>
<path fill="#ffebe0" stroke="#b85040" d="M1111.75,-97.22C1111.75,-97.22 1053.25,-71.78 1053.25,-71.78 1047.75,-69.39 1047.75,-64.61 1053.25,-62.22 1053.25,-62.22 1111.75,-36.78 1111.75,-36.78 1117.25,-34.39 1128.25,-34.39 1133.75,-36.78 1133.75,-36.78 1192.25,-62.22 1192.25,-62.22 1197.75,-64.61 1197.75,-69.39 1192.25,-71.78 1192.25,-71.78 1133.75,-97.22 1133.75,-97.22 1128.25,-99.61 1117.25,-99.61 1111.75,-97.22"/>
<text text-anchor="middle" x="1122.75" y="-70.05" font-family="Helvetica,sans-Serif" font-size="11.00">MAE &gt; 0.15</text>
<text text-anchor="middle" x="1122.75" y="-56.55" font-family="Helvetica,sans-Serif" font-size="11.00">∧ n ≥ 5 ?</text>
</g>
<!-- calib&#45;&gt;gate -->
<g id="edge8" class="edge">
<title>calib&#45;&gt;gate</title>
<path fill="none" stroke="#444444" d="M1001.45,-62.96C1012.37,-63.33 1024,-63.72 1035.56,-64.11"/>
<polygon fill="#444444" stroke="#444444" points="1035.44,-67.61 1045.55,-64.44 1035.67,-60.61 1035.44,-67.61"/>
</g>
<!-- ok -->
<g id="node10" class="node">
<title>ok</title>
<path fill="#d8f0d8" stroke="#4c8a4c" d="M1377.38,-85C1377.38,-85 1276.62,-85 1276.62,-85 1270.62,-85 1264.62,-79 1264.62,-73 1264.62,-73 1264.62,-61 1264.62,-61 1264.62,-55 1270.62,-49 1276.62,-49 1276.62,-49 1377.38,-49 1377.38,-49 1383.38,-49 1389.38,-55 1389.38,-61 1389.38,-61 1389.38,-73 1389.38,-73 1389.38,-79 1383.38,-85 1377.38,-85"/>
<text text-anchor="middle" x="1327" y="-70.05" font-family="Helvetica,sans-Serif" font-size="11.00">calibration OK</text>
<text text-anchor="middle" x="1327" y="-56.55" font-family="Helvetica,sans-Serif" font-size="11.00">(priors trustworthy)</text>
</g>
<!-- gate&#45;&gt;ok -->
<g id="edge10" class="edge">
<title>gate&#45;&gt;ok</title>
<path fill="none" stroke="#444444" d="M1204.27,-67C1220.31,-67 1237.08,-67 1252.86,-67"/>
<polygon fill="#444444" stroke="#444444" points="1252.64,-70.5 1262.64,-67 1252.64,-63.5 1252.64,-70.5"/>
<text text-anchor="middle" x="1233.75" y="-69.7" font-family="Helvetica,sans-Serif" font-size="9.00"> no </text>
</g>
<!-- method_evo -->
<g id="node11" class="node">
<title>method_evo</title>
<path fill="#f0e8f8" stroke="#8050a8" d="M1377.75,-170.25C1377.75,-170.25 1276.25,-170.25 1276.25,-170.25 1270.25,-170.25 1264.25,-164.25 1264.25,-158.25 1264.25,-158.25 1264.25,-133.75 1264.25,-133.75 1264.25,-127.75 1270.25,-121.75 1276.25,-121.75 1276.25,-121.75 1377.75,-121.75 1377.75,-121.75 1383.75,-121.75 1389.75,-127.75 1389.75,-133.75 1389.75,-133.75 1389.75,-158.25 1389.75,-158.25 1389.75,-164.25 1383.75,-170.25 1377.75,-170.25"/>
<text text-anchor="middle" x="1327" y="-155.8" font-family="Helvetica,sans-Serif" font-size="11.00">drift_warning</text>
<text text-anchor="middle" x="1327" y="-142.3" font-family="Helvetica,sans-Serif" font-size="11.00">→ method&#45;evolution</text>
<text text-anchor="middle" x="1327" y="-128.8" font-family="Helvetica,sans-Serif" font-size="11.00">(outer loop)</text>
</g>
<!-- gate&#45;&gt;method_evo -->
<g id="edge9" class="edge">
<title>gate&#45;&gt;method_evo</title>
<path fill="none" stroke="#444444" d="M1166.15,-83.56C1191.42,-93.43 1224.19,-106.23 1253.47,-117.67"/>
<polygon fill="#444444" stroke="#444444" points="1252.08,-120.88 1262.67,-121.26 1254.63,-114.36 1252.08,-120.88"/>
<text text-anchor="middle" x="1233.75" y="-116.28" font-family="Helvetica,sans-Serif" font-size="9.00"> yes </text>
</g>
<!-- method_evo&#45;&gt;dialectic -->
<g id="edge11" class="edge">
<title>method_evo&#45;&gt;dialectic</title>
<path fill="none" stroke="#8050a8" stroke-dasharray="5,2" d="M1264.06,-149.25C1224.04,-151.08 1170.83,-153 1123.75,-153 270.25,-153 270.25,-153 270.25,-153 234,-153 194.43,-146.72 161.09,-139.55"/>
<polygon fill="#8050a8" stroke="#8050a8" points="162.03,-136.18 151.51,-137.42 160.51,-143.01 162.03,-136.18"/>
<text text-anchor="middle" x="689.62" y="-166.95" font-family="Helvetica,sans-Serif" font-size="9.00"> updated skills</text>
<text text-anchor="middle" x="689.62" y="-155.7" font-family="Helvetica,sans-Serif" font-size="9.00"> + priors </text>
</g>
</g>
</svg>
