<?xml version="1.0" encoding="UTF-8" standalone="no"?>
<!DOCTYPE svg PUBLIC "-//W3C//DTD SVG 1.1//EN"
 "http://www.w3.org/Graphics/SVG/1.1/DTD/svg11.dtd">
<!-- Generated by graphviz version 12.2.1 (0)
 -->
<!-- Title: code_drift_mechanism Pages: 1 -->
<svg width="1234pt" height="823pt"
 viewBox="0.00 0.00 1233.50 823.25" xmlns="http://www.w3.org/2000/svg" xmlns:xlink="http://www.w3.org/1999/xlink">
<g id="graph0" class="graph" transform="scale(1 1) rotate(0) translate(4 819.25)">
<title>code_drift_mechanism</title>
<polygon fill="white" stroke="none" points="-4,4 -4,-819.25 1229.5,-819.25 1229.5,4 -4,4"/>
<text text-anchor="start" x="307.12" y="-798.95" font-family="Helvetica,sans-Serif" font-weight="bold" font-size="14.00">Code drift — many locally&#45;optimal commits composing into global incoherence</text>
<g id="clust1" class="cluster">
<title>cluster_t0</title>
<path fill="#e6fbe6" stroke="#2ca02c" d="M76.62,-416C76.62,-416 737.12,-416 737.12,-416 743.12,-416 749.12,-422 749.12,-428 749.12,-428 749.12,-566 749.12,-566 749.12,-572 743.12,-578 737.12,-578 737.12,-578 76.62,-578 76.62,-578 70.62,-578 64.62,-572 64.62,-566 64.62,-566 64.62,-428 64.62,-428 64.62,-422 70.62,-416 76.62,-416"/>
<text text-anchor="start" x="321.38" y="-561.7" font-family="Helvetica,sans-Serif" font-weight="bold" font-size="14.00">t0 — coherent system</text>
</g>
<g id="clust2" class="cluster">
<title>cluster_t1</title>
<path fill="#fef4ea" stroke="#ff7f0e" d="M381.75,-195C381.75,-195 974.75,-195 974.75,-195 980.75,-195 986.75,-201 986.75,-207 986.75,-207 986.75,-396 986.75,-396 986.75,-402 980.75,-408 974.75,-408 974.75,-408 381.75,-408 381.75,-408 375.75,-408 369.75,-402 369.75,-396 369.75,-396 369.75,-207 369.75,-207 369.75,-201 375.75,-195 381.75,-195"/>
<text text-anchor="start" x="519.62" y="-391.7" font-family="Helvetica,sans-Serif" font-weight="bold" font-size="14.00">t1 — commit A: UI uses UserDTO for perf</text>
</g>
<g id="clust3" class="cluster">
<title>cluster_t2</title>
<path fill="#fdeaea" stroke="#d62728" d="M598.25,-8C598.25,-8 1205.5,-8 1205.5,-8 1211.5,-8 1217.5,-14 1217.5,-20 1217.5,-20 1217.5,-175 1217.5,-175 1217.5,-181 1211.5,-187 1205.5,-187 1205.5,-187 598.25,-187 598.25,-187 592.25,-187 586.25,-181 586.25,-175 586.25,-175 586.25,-20 586.25,-20 586.25,-14 592.25,-8 598.25,-8"/>
<text text-anchor="start" x="787.88" y="-170.7" font-family="Helvetica,sans-Serif" font-weight="bold" font-size="14.00">t2–t10 — many commits later</text>
</g>
<g id="clust4" class="cluster">
<title>cluster_catches</title>
<path fill="#e8f4fd" stroke="#1f77b4" d="M20,-586C20,-586 291.25,-586 291.25,-586 297.25,-586 303.25,-592 303.25,-598 303.25,-598 303.25,-770 303.25,-770 303.25,-776 297.25,-782 291.25,-782 291.25,-782 20,-782 20,-782 14,-782 8,-776 8,-770 8,-770 8,-598 8,-598 8,-592 14,-586 20,-586"/>
<text text-anchor="start" x="41.62" y="-765.7" font-family="Helvetica,sans-Serif" font-weight="bold" font-size="14.00">What would have caught this</text>
</g>
<!-- t0_ui -->
<g id="node1" class="node">
<title>t0_ui</title>
<path fill="#ffffff" stroke="black" d="M207.5,-544.25C207.5,-544.25 103.75,-544.25 103.75,-544.25 97.75,-544.25 91.75,-538.25 91.75,-532.25 91.75,-532.25 91.75,-513.75 91.75,-513.75 91.75,-507.75 97.75,-501.75 103.75,-501.75 103.75,-501.75 207.5,-501.75 207.5,-501.75 213.5,-501.75 219.5,-507.75 219.5,-513.75 219.5,-513.75 219.5,-532.25 219.5,-532.25 219.5,-538.25 213.5,-544.25 207.5,-544.25"/>
<text text-anchor="middle" x="155.62" y="-526.95" font-family="Helvetica,sans-Serif" font-size="14.00">UI</text>
<text text-anchor="middle" x="155.62" y="-509.7" font-family="Helvetica,sans-Serif" font-size="14.00">types: UserView</text>
</g>
<!-- t0_svc -->
<g id="node2" class="node">
<title>t0_svc</title>
<path fill="#ffffff" stroke="black" d="M519.38,-496.25C519.38,-496.25 415.62,-496.25 415.62,-496.25 409.62,-496.25 403.62,-490.25 403.62,-484.25 403.62,-484.25 403.62,-465.75 403.62,-465.75 403.62,-459.75 409.62,-453.75 415.62,-453.75 415.62,-453.75 519.38,-453.75 519.38,-453.75 525.38,-453.75 531.38,-459.75 531.38,-465.75 531.38,-465.75 531.38,-484.25 531.38,-484.25 531.38,-490.25 525.38,-496.25 519.38,-496.25"/>
<text text-anchor="middle" x="467.5" y="-478.95" font-family="Helvetica,sans-Serif" font-size="14.00">Service</text>
<text text-anchor="middle" x="467.5" y="-461.7" font-family="Helvetica,sans-Serif" font-size="14.00">types: UserView</text>
</g>
<!-- t0_ui&#45;&gt;t0_svc -->
<g id="edge1" class="edge">
<title>t0_ui&#45;&gt;t0_svc</title>
<path fill="none" stroke="black" d="M219.71,-513.23C269.58,-505.5 339.32,-494.7 391.95,-486.55"/>
<polygon fill="black" stroke="black" points="392.4,-490.02 401.75,-485.03 391.33,-483.1 392.4,-490.02"/>
</g>
<!-- t0_db -->
<g id="node3" class="node">
<title>t0_db</title>
<path fill="#ffffff" stroke="black" d="M729.12,-496.25C729.12,-496.25 625.38,-496.25 625.38,-496.25 619.38,-496.25 613.38,-490.25 613.38,-484.25 613.38,-484.25 613.38,-465.75 613.38,-465.75 613.38,-459.75 619.38,-453.75 625.38,-453.75 625.38,-453.75 729.12,-453.75 729.12,-453.75 735.12,-453.75 741.12,-459.75 741.12,-465.75 741.12,-465.75 741.12,-484.25 741.12,-484.25 741.12,-490.25 735.12,-496.25 729.12,-496.25"/>
<text text-anchor="middle" x="677.25" y="-478.95" font-family="Helvetica,sans-Serif" font-size="14.00">DB</text>
<text text-anchor="middle" x="677.25" y="-461.7" font-family="Helvetica,sans-Serif" font-size="14.00">types: UserView</text>
</g>
<!-- t0_svc&#45;&gt;t0_db -->
<g id="edge2" class="edge">
<title>t0_svc&#45;&gt;t0_db</title>
<path fill="none" stroke="black" d="M531.68,-475C553.74,-475 578.7,-475 601.61,-475"/>
<polygon fill="black" stroke="black" points="601.5,-478.5 611.5,-475 601.5,-471.5 601.5,-478.5"/>
</g>
<!-- t0_doc -->
<g id="node4" class="node">
<title>t0_doc</title>
<path fill="#ffffff" stroke="black" d="M226.62,-483.88C226.62,-483.88 84.62,-483.88 84.62,-483.88 78.62,-483.88 72.62,-477.88 72.62,-471.88 72.62,-471.88 72.62,-436.12 72.62,-436.12 72.62,-430.12 78.62,-424.12 84.62,-424.12 84.62,-424.12 226.62,-424.12 226.62,-424.12 232.62,-424.12 238.62,-430.12 238.62,-436.12 238.62,-436.12 238.62,-471.88 238.62,-471.88 238.62,-477.88 232.62,-483.88 226.62,-483.88"/>
<text text-anchor="middle" x="155.62" y="-466.57" font-family="Helvetica,sans-Serif" font-size="14.00">README</text>
<text text-anchor="middle" x="155.62" y="-449.32" font-family="Helvetica,sans-Serif" font-size="14.00">mental model:</text>
<text text-anchor="middle" x="155.62" y="-432.07" font-family="Helvetica,sans-Serif" font-size="14.00">UserView everywhere</text>
</g>
<!-- t0_doc&#45;&gt;t0_svc -->
<g id="edge3" class="edge">
<title>t0_doc&#45;&gt;t0_svc</title>
<path fill="none" stroke="black" stroke-dasharray="5,2" d="M238.85,-459.57C286.46,-462.8 345.9,-466.83 392.11,-469.96"/>
<polygon fill="black" stroke="black" points="391.83,-473.45 402.05,-470.63 392.31,-466.46 391.83,-473.45"/>
<text text-anchor="middle" x="336.5" y="-470.86" font-family="Helvetica,sans-Serif" font-size="10.00">describes</text>
</g>
<!-- t1_ui -->
<g id="node5" class="node">
<title>t1_ui</title>
<path fill="#ffffff" stroke="black" d="M518.25,-245.25C518.25,-245.25 416.75,-245.25 416.75,-245.25 410.75,-245.25 404.75,-239.25 404.75,-233.25 404.75,-233.25 404.75,-214.75 404.75,-214.75 404.75,-208.75 410.75,-202.75 416.75,-202.75 416.75,-202.75 518.25,-202.75 518.25,-202.75 524.25,-202.75 530.25,-208.75 530.25,-214.75 530.25,-214.75 530.25,-233.25 530.25,-233.25 530.25,-239.25 524.25,-245.25 518.25,-245.25"/>
<text text-anchor="middle" x="467.5" y="-227.95" font-family="Helvetica,sans-Serif" font-size="14.00">UI</text>
<text text-anchor="middle" x="467.5" y="-210.7" font-family="Helvetica,sans-Serif" font-size="14.00">types: UserDTO</text>
</g>
<!-- t0_doc&#45;&gt;t1_ui -->
<!-- t1_svc -->
<g id="node6" class="node">
<title>t1_svc</title>
<path fill="#ffffff" stroke="black" d="M729.5,-262.88C729.5,-262.88 625,-262.88 625,-262.88 619,-262.88 613,-256.88 613,-250.88 613,-250.88 613,-215.12 613,-215.12 613,-209.12 619,-203.12 625,-203.12 625,-203.12 729.5,-203.12 729.5,-203.12 735.5,-203.12 741.5,-209.12 741.5,-215.12 741.5,-215.12 741.5,-250.88 741.5,-250.88 741.5,-256.88 735.5,-262.88 729.5,-262.88"/>
<text text-anchor="middle" x="677.25" y="-245.57" font-family="Helvetica,sans-Serif" font-size="14.00">Service</text>
<text text-anchor="middle" x="677.25" y="-228.32" font-family="Helvetica,sans-Serif" font-size="14.00">types: UserView</text>
<text text-anchor="middle" x="677.25" y="-211.07" font-family="Helvetica,sans-Serif" font-size="14.00">(adapter added)</text>
</g>
<!-- t1_ui&#45;&gt;t1_svc -->
<g id="edge4" class="edge">
<title>t1_ui&#45;&gt;t1_svc</title>
<path fill="none" stroke="black" d="M530.55,-226.69C552.85,-227.65 578.23,-228.75 601.49,-229.76"/>
<polygon fill="black" stroke="black" points="601.07,-233.25 611.21,-230.18 601.37,-226.25 601.07,-233.25"/>
</g>
<!-- t2_ui -->
<g id="node9" class="node">
<title>t2_ui</title>
<path fill="#ffffff" stroke="black" d="M728,-58.25C728,-58.25 626.5,-58.25 626.5,-58.25 620.5,-58.25 614.5,-52.25 614.5,-46.25 614.5,-46.25 614.5,-27.75 614.5,-27.75 614.5,-21.75 620.5,-15.75 626.5,-15.75 626.5,-15.75 728,-15.75 728,-15.75 734,-15.75 740,-21.75 740,-27.75 740,-27.75 740,-46.25 740,-46.25 740,-52.25 734,-58.25 728,-58.25"/>
<text text-anchor="middle" x="677.25" y="-40.95" font-family="Helvetica,sans-Serif" font-size="14.00">UI</text>
<text text-anchor="middle" x="677.25" y="-23.7" font-family="Helvetica,sans-Serif" font-size="14.00">types: UserDTO</text>
</g>
<!-- t1_ui&#45;&gt;t2_ui -->
<!-- t1_db -->
<g id="node7" class="node">
<title>t1_db</title>
<path fill="#ffffff" stroke="black" d="M966.75,-254.25C966.75,-254.25 863,-254.25 863,-254.25 857,-254.25 851,-248.25 851,-242.25 851,-242.25 851,-223.75 851,-223.75 851,-217.75 857,-211.75 863,-211.75 863,-211.75 966.75,-211.75 966.75,-211.75 972.75,-211.75 978.75,-217.75 978.75,-223.75 978.75,-223.75 978.75,-242.25 978.75,-242.25 978.75,-248.25 972.75,-254.25 966.75,-254.25"/>
<text text-anchor="middle" x="914.88" y="-236.95" font-family="Helvetica,sans-Serif" font-size="14.00">DB</text>
<text text-anchor="middle" x="914.88" y="-219.7" font-family="Helvetica,sans-Serif" font-size="14.00">types: UserView</text>
</g>
<!-- t1_svc&#45;&gt;t1_db -->
<g id="edge5" class="edge">
<title>t1_svc&#45;&gt;t1_db</title>
<path fill="none" stroke="black" d="M741.7,-233C771.81,-233 807.98,-233 839.38,-233"/>
<polygon fill="black" stroke="black" points="839.2,-236.5 849.2,-233 839.2,-229.5 839.2,-236.5"/>
</g>
<!-- t1_note -->
<g id="node8" class="node">
<title>t1_note</title>
<polygon fill="#fff9e6" stroke="black" points="551.25,-374.75 377.75,-374.75 377.75,-263.25 557.25,-263.25 557.25,-368.75 551.25,-374.75"/>
<polyline fill="none" stroke="black" points="551.25,-374.75 551.25,-368.75"/>
<polyline fill="none" stroke="black" points="557.25,-368.75 551.25,-368.75"/>
<text text-anchor="middle" x="467.5" y="-357.45" font-family="Helvetica,sans-Serif" font-size="14.00">Each commit</text>
<text text-anchor="middle" x="467.5" y="-340.2" font-family="Helvetica,sans-Serif" font-size="14.00">locally OK.</text>
<text text-anchor="middle" x="467.5" y="-322.95" font-family="Helvetica,sans-Serif" font-size="14.00">Docs still say</text>
<text text-anchor="middle" x="467.5" y="-305.7" font-family="Helvetica,sans-Serif" font-size="14.00">&quot;UserView everywhere&quot;</text>
<text text-anchor="middle" x="467.5" y="-288.45" font-family="Helvetica,sans-Serif" font-size="14.00">(not yet wrong,</text>
<text text-anchor="middle" x="467.5" y="-271.2" font-family="Helvetica,sans-Serif" font-size="14.00">just incomplete)</text>
</g>
<!-- t2_svc -->
<g id="node10" class="node">
<title>t2_svc</title>
<path fill="#ffffff" stroke="black" d="M1001.25,-96.88C1001.25,-96.88 828.5,-96.88 828.5,-96.88 822.5,-96.88 816.5,-90.88 816.5,-84.88 816.5,-84.88 816.5,-49.12 816.5,-49.12 816.5,-43.12 822.5,-37.12 828.5,-37.12 828.5,-37.12 1001.25,-37.12 1001.25,-37.12 1007.25,-37.12 1013.25,-43.12 1013.25,-49.12 1013.25,-49.12 1013.25,-84.88 1013.25,-84.88 1013.25,-90.88 1007.25,-96.88 1001.25,-96.88"/>
<text text-anchor="middle" x="914.88" y="-79.58" font-family="Helvetica,sans-Serif" font-size="14.00">Service</text>
<text text-anchor="middle" x="914.88" y="-62.33" font-family="Helvetica,sans-Serif" font-size="14.00">types: UserBO</text>
<text text-anchor="middle" x="914.88" y="-45.08" font-family="Helvetica,sans-Serif" font-size="14.00">(migrated 3 commits ago)</text>
</g>
<!-- t2_ui&#45;&gt;t2_svc -->
<g id="edge6" class="edge">
<title>t2_ui&#45;&gt;t2_svc</title>
<path fill="none" stroke="black" d="M740.47,-44.92C760.29,-47.45 782.85,-50.32 804.98,-53.14"/>
<polygon fill="black" stroke="black" points="804.29,-56.58 814.65,-54.37 805.17,-49.63 804.29,-56.58"/>
</g>
<!-- t2_db -->
<g id="node11" class="node">
<title>t2_db</title>
<path fill="#ffffff" stroke="black" d="M1197.5,-96.88C1197.5,-96.88 1062.25,-96.88 1062.25,-96.88 1056.25,-96.88 1050.25,-90.88 1050.25,-84.88 1050.25,-84.88 1050.25,-49.12 1050.25,-49.12 1050.25,-43.12 1056.25,-37.12 1062.25,-37.12 1062.25,-37.12 1197.5,-37.12 1197.5,-37.12 1203.5,-37.12 1209.5,-43.12 1209.5,-49.12 1209.5,-49.12 1209.5,-84.88 1209.5,-84.88 1209.5,-90.88 1203.5,-96.88 1197.5,-96.88"/>
<text text-anchor="middle" x="1129.88" y="-79.58" font-family="Helvetica,sans-Serif" font-size="14.00">DB</text>
<text text-anchor="middle" x="1129.88" y="-62.33" font-family="Helvetica,sans-Serif" font-size="14.00">types: UserRow</text>
<text text-anchor="middle" x="1129.88" y="-45.08" font-family="Helvetica,sans-Serif" font-size="14.00">(migrated last week)</text>
</g>
<!-- t2_svc&#45;&gt;t2_db -->
<g id="edge7" class="edge">
<title>t2_svc&#45;&gt;t2_db</title>
<path fill="none" stroke="black" d="M1013.65,-67C1021.9,-67 1030.22,-67 1038.41,-67"/>
<polygon fill="black" stroke="black" points="1038.37,-70.5 1048.37,-67 1038.37,-63.5 1038.37,-70.5"/>
</g>
<!-- t2_doc -->
<g id="node12" class="node">
<title>t2_doc</title>
<path fill="#ffffff" stroke="black" d="M748.25,-153.5C748.25,-153.5 606.25,-153.5 606.25,-153.5 600.25,-153.5 594.25,-147.5 594.25,-141.5 594.25,-141.5 594.25,-88.5 594.25,-88.5 594.25,-82.5 600.25,-76.5 606.25,-76.5 606.25,-76.5 748.25,-76.5 748.25,-76.5 754.25,-76.5 760.25,-82.5 760.25,-88.5 760.25,-88.5 760.25,-141.5 760.25,-141.5 760.25,-147.5 754.25,-153.5 748.25,-153.5"/>
<text text-anchor="middle" x="677.25" y="-136.2" font-family="Helvetica,sans-Serif" font-size="14.00">README</text>
<text text-anchor="middle" x="677.25" y="-118.95" font-family="Helvetica,sans-Serif" font-size="14.00">mental model:</text>
<text text-anchor="middle" x="677.25" y="-101.7" font-family="Helvetica,sans-Serif" font-size="14.00">UserView everywhere</text>
<text text-anchor="middle" x="677.25" y="-84.45" font-family="Helvetica,sans-Serif" font-size="14.00">(stale)</text>
</g>
<!-- t2_doc&#45;&gt;t2_svc -->
<g id="edge8" class="edge">
<title>t2_doc&#45;&gt;t2_svc</title>
<path fill="none" stroke="red" stroke-dasharray="5,2" d="M760.66,-98.21C775.08,-95.28 790.27,-92.18 805.27,-89.12"/>
<polygon fill="red" stroke="red" points="805.56,-92.64 814.66,-87.21 804.16,-85.78 805.56,-92.64"/>
<text text-anchor="middle" x="788.38" y="-97.12" font-family="Helvetica,sans-Serif" font-size="10.00">LIES</text>
</g>
<!-- per_commit -->
<g id="node13" class="node">
<title>per_commit</title>
<polygon fill="#ffffff" stroke="black" points="259.25,-653.88 46,-653.88 46,-594.12 265.25,-594.12 265.25,-647.88 259.25,-653.88"/>
<polyline fill="none" stroke="black" points="259.25,-653.88 259.25,-647.88"/>
<polyline fill="none" stroke="black" points="265.25,-647.88 259.25,-647.88"/>
<text text-anchor="middle" x="155.62" y="-636.58" font-family="Helvetica,sans-Serif" font-size="14.00">docs&#45;as&#45;definition&#45;of&#45;done</text>
<text text-anchor="middle" x="155.62" y="-619.33" font-family="Helvetica,sans-Serif" font-size="14.00">per commit A,</text>
<text text-anchor="middle" x="155.62" y="-602.08" font-family="Helvetica,sans-Serif" font-size="14.00">README renaming would fire</text>
</g>
<!-- periodic -->
<g id="node14" class="node">
<title>periodic</title>
<polygon fill="#ffffff" stroke="black" points="289.25,-748.5 16,-748.5 16,-671.5 295.25,-671.5 295.25,-742.5 289.25,-748.5"/>
<polyline fill="none" stroke="black" points="289.25,-748.5 289.25,-742.5"/>
<polyline fill="none" stroke="black" points="295.25,-742.5 289.25,-742.5"/>
<text text-anchor="middle" x="155.62" y="-731.2" font-family="Helvetica,sans-Serif" font-size="14.00">drift&#45;detection</text>
<text text-anchor="middle" x="155.62" y="-713.95" font-family="Helvetica,sans-Serif" font-size="14.00">periodic scan</text>
<text text-anchor="middle" x="155.62" y="-696.7" font-family="Helvetica,sans-Serif" font-size="14.00">would flag UserView/UserBO/UserRow</text>
<text text-anchor="middle" x="155.62" y="-679.45" font-family="Helvetica,sans-Serif" font-size="14.00">as 3 names for 1 concept</text>
</g>
</g>
</svg>
