<?xml version="1.0" encoding="UTF-8" standalone="no"?>
<!DOCTYPE svg PUBLIC "-//W3C//DTD SVG 1.1//EN"
 "http://www.w3.org/Graphics/SVG/1.1/DTD/svg11.dtd">
<!-- Generated by graphviz version 12.2.1 (0)
 -->
<!-- Title: convergence_vs_divergence Pages: 1 -->
<svg width="1121pt" height="849pt"
 viewBox="0.00 0.00 1121.00 848.62" xmlns="http://www.w3.org/2000/svg" xmlns:xlink="http://www.w3.org/1999/xlink">
<g id="graph0" class="graph" transform="scale(1 1) rotate(0) translate(4 844.62)">
<title>convergence_vs_divergence</title>
<polygon fill="white" stroke="none" points="-4,4 -4,-844.62 1117,-844.62 1117,4 -4,4"/>
<text text-anchor="start" x="310.5" y="-824.33" font-family="Helvetica,sans-Serif" font-weight="bold" font-size="14.00">Two paths through loss&#45;space: same start, different disciplines</text>
<g id="clust1" class="cluster">
<title>cluster_converge</title>
<path fill="#e6fbe6" stroke="#2ca02c" d="M20,-225C20,-225 343,-225 343,-225 349,-225 355,-231 355,-237 355,-237 355,-795.38 355,-795.38 355,-801.38 349,-807.38 343,-807.38 343,-807.38 20,-807.38 20,-807.38 14,-807.38 8,-801.38 8,-795.38 8,-795.38 8,-237 8,-237 8,-231 14,-225 20,-225"/>
<text text-anchor="start" x="15.75" y="-791.08" font-family="Helvetica,sans-Serif" font-weight="bold" font-size="14.00">Converging path (LDD discipline enforced)</text>
<text text-anchor="start" x="105.38" y="-781.83" font-family="Helvetica,sans-Serif" font-size="9.00">all 5 convergence conditions held</text>
</g>
<g id="clust2" class="cluster">
<title>cluster_diverge</title>
<path fill="#fdeaea" stroke="#d62728" d="M375,-8C375,-8 639,-8 639,-8 645,-8 651,-14 651,-20 651,-20 651,-795.38 651,-795.38 651,-801.38 645,-807.38 639,-807.38 639,-807.38 375,-807.38 375,-807.38 369,-807.38 363,-801.38 363,-795.38 363,-795.38 363,-20 363,-20 363,-14 369,-8 375,-8"/>
<text text-anchor="start" x="370.88" y="-791.08" font-family="Helvetica,sans-Serif" font-weight="bold" font-size="14.00">Diverging path (discipline skipped)</text>
<text text-anchor="start" x="383.25" y="-781.83" font-family="Helvetica,sans-Serif" font-size="9.00">at least one convergence condition dropped each step</text>
</g>
<!-- c0 -->
<g id="node1" class="node">
<title>c0</title>
<path fill="#ffffff" stroke="black" d="M270,-768.38C270,-768.38 92,-768.38 92,-768.38 86,-768.38 80,-762.38 80,-756.38 80,-756.38 80,-720.62 80,-720.62 80,-714.62 86,-708.62 92,-708.62 92,-708.62 270,-708.62 270,-708.62 276,-708.62 282,-714.62 282,-720.62 282,-720.62 282,-756.38 282,-756.38 282,-762.38 276,-768.38 270,-768.38"/>
<text text-anchor="middle" x="181" y="-751.08" font-family="Helvetica,sans-Serif" font-size="14.00">Iter 0</text>
<text text-anchor="middle" x="181" y="-733.83" font-family="Helvetica,sans-Serif" font-size="14.00">diagnose: layer 4/5 named</text>
<text text-anchor="middle" x="181" y="-716.58" font-family="Helvetica,sans-Serif" font-size="14.00">gradient: honest</text>
</g>
<!-- c1 -->
<g id="node2" class="node">
<title>c1</title>
<path fill="#ffffff" stroke="black" d="M240.38,-631C240.38,-631 121.62,-631 121.62,-631 115.62,-631 109.62,-625 109.62,-619 109.62,-619 109.62,-583.25 109.62,-583.25 109.62,-577.25 115.62,-571.25 121.62,-571.25 121.62,-571.25 240.38,-571.25 240.38,-571.25 246.38,-571.25 252.38,-577.25 252.38,-583.25 252.38,-583.25 252.38,-619 252.38,-619 252.38,-625 246.38,-631 240.38,-631"/>
<text text-anchor="middle" x="181" y="-613.7" font-family="Helvetica,sans-Serif" font-size="14.00">Iter 1</text>
<text text-anchor="middle" x="181" y="-596.45" font-family="Helvetica,sans-Serif" font-size="14.00">fix at named layer</text>
<text text-anchor="middle" x="181" y="-579.2" font-family="Helvetica,sans-Serif" font-size="14.00">docs synced</text>
</g>
<!-- c0&#45;&gt;c1 -->
<g id="edge1" class="edge">
<title>c0&#45;&gt;c1</title>
<path fill="none" stroke="black" d="M181,-708.13C181,-689.06 181,-663.94 181,-642.94"/>
<polygon fill="black" stroke="black" points="184.5,-642.96 181,-632.96 177.5,-642.96 184.5,-642.96"/>
<text text-anchor="middle" x="206.12" y="-658.62" font-family="Helvetica,sans-Serif" font-size="10.00">Δloss = &#45;4</text>
</g>
<!-- c2 -->
<g id="node3" class="node">
<title>c2</title>
<path fill="#ffffff" stroke="black" d="M235.5,-509.75C235.5,-509.75 126.5,-509.75 126.5,-509.75 120.5,-509.75 114.5,-503.75 114.5,-497.75 114.5,-497.75 114.5,-462 114.5,-462 114.5,-456 120.5,-450 126.5,-450 126.5,-450 235.5,-450 235.5,-450 241.5,-450 247.5,-456 247.5,-462 247.5,-462 247.5,-497.75 247.5,-497.75 247.5,-503.75 241.5,-509.75 235.5,-509.75"/>
<text text-anchor="middle" x="181" y="-492.45" font-family="Helvetica,sans-Serif" font-size="14.00">Iter 2</text>
<text text-anchor="middle" x="181" y="-475.2" font-family="Helvetica,sans-Serif" font-size="14.00">regularizers hold</text>
<text text-anchor="middle" x="181" y="-457.95" font-family="Helvetica,sans-Serif" font-size="14.00">E2E passes</text>
</g>
<!-- c1&#45;&gt;c2 -->
<g id="edge2" class="edge">
<title>c1&#45;&gt;c2</title>
<path fill="none" stroke="black" d="M181,-570.95C181,-556.08 181,-537.76 181,-521.53"/>
<polygon fill="black" stroke="black" points="184.5,-521.67 181,-511.67 177.5,-521.67 184.5,-521.67"/>
<text text-anchor="middle" x="206.12" y="-537.38" font-family="Helvetica,sans-Serif" font-size="10.00">Δloss = &#45;3</text>
</g>
<!-- c3 -->
<g id="node4" class="node">
<title>c3</title>
<path fill="#ffffff" stroke="black" d="M220.88,-401.25C220.88,-401.25 141.12,-401.25 141.12,-401.25 135.12,-401.25 129.12,-395.25 129.12,-389.25 129.12,-389.25 129.12,-353.5 129.12,-353.5 129.12,-347.5 135.12,-341.5 141.12,-341.5 141.12,-341.5 220.88,-341.5 220.88,-341.5 226.88,-341.5 232.88,-347.5 232.88,-353.5 232.88,-353.5 232.88,-389.25 232.88,-389.25 232.88,-395.25 226.88,-401.25 220.88,-401.25"/>
<text text-anchor="middle" x="181" y="-383.95" font-family="Helvetica,sans-Serif" font-size="14.00">Iter 3</text>
<text text-anchor="middle" x="181" y="-366.7" font-family="Helvetica,sans-Serif" font-size="14.00">rubric stable</text>
<text text-anchor="middle" x="181" y="-349.45" font-family="Helvetica,sans-Serif" font-size="14.00">test&#45;loss ↓</text>
</g>
<!-- c2&#45;&gt;c3 -->
<g id="edge3" class="edge">
<title>c2&#45;&gt;c3</title>
<path fill="none" stroke="black" d="M181,-449.77C181,-438.39 181,-425.13 181,-412.84"/>
<polygon fill="black" stroke="black" points="184.5,-412.95 181,-402.95 177.5,-412.95 184.5,-412.95"/>
<text text-anchor="middle" x="206.12" y="-422.5" font-family="Helvetica,sans-Serif" font-size="10.00">Δloss = &#45;1</text>
</g>
<!-- c_done -->
<g id="node5" class="node">
<title>c_done</title>
<path fill="#b4ecb4" stroke="black" d="M274.88,-292.75C274.88,-292.75 87.12,-292.75 87.12,-292.75 81.12,-292.75 75.12,-286.75 75.12,-280.75 75.12,-280.75 75.12,-245 75.12,-245 75.12,-239 81.12,-233 87.12,-233 87.12,-233 274.88,-233 274.88,-233 280.88,-233 286.88,-239 286.88,-245 286.88,-245 286.88,-280.75 286.88,-280.75 286.88,-286.75 280.88,-292.75 274.88,-292.75"/>
<text text-anchor="middle" x="181" y="-275.45" font-family="Helvetica,sans-Serif" font-size="14.00">Closed</text>
<text text-anchor="middle" x="181" y="-258.2" font-family="Helvetica,sans-Serif" font-size="14.00">commit = code+tests+docs</text>
<text text-anchor="middle" x="181" y="-240.95" font-family="Helvetica,sans-Serif" font-size="14.00">drift&#45;scan clean</text>
</g>
<!-- c3&#45;&gt;c_done -->
<g id="edge4" class="edge">
<title>c3&#45;&gt;c_done</title>
<path fill="none" stroke="black" d="M181,-341.27C181,-329.89 181,-316.63 181,-304.34"/>
<polygon fill="black" stroke="black" points="184.5,-304.45 181,-294.45 177.5,-304.45 184.5,-304.45"/>
<text text-anchor="middle" x="221.5" y="-314" font-family="Helvetica,sans-Serif" font-size="10.00">Δloss = 0 (done)</text>
</g>
<!-- d0 -->
<g id="node6" class="node">
<title>d0</title>
<path fill="#ffffff" stroke="black" d="M561,-768.38C561,-768.38 443,-768.38 443,-768.38 437,-768.38 431,-762.38 431,-756.38 431,-756.38 431,-720.62 431,-720.62 431,-714.62 437,-708.62 443,-708.62 443,-708.62 561,-708.62 561,-708.62 567,-708.62 573,-714.62 573,-720.62 573,-720.62 573,-756.38 573,-756.38 573,-762.38 567,-768.38 561,-768.38"/>
<text text-anchor="middle" x="502" y="-751.08" font-family="Helvetica,sans-Serif" font-size="14.00">Iter 0</text>
<text text-anchor="middle" x="502" y="-733.83" font-family="Helvetica,sans-Serif" font-size="14.00">symptom patched</text>
<text text-anchor="middle" x="502" y="-716.58" font-family="Helvetica,sans-Serif" font-size="14.00">no layer named</text>
</g>
<!-- d1 -->
<g id="node7" class="node">
<title>d1</title>
<path fill="#ffffff" stroke="black" d="M557.25,-631C557.25,-631 446.75,-631 446.75,-631 440.75,-631 434.75,-625 434.75,-619 434.75,-619 434.75,-583.25 434.75,-583.25 434.75,-577.25 440.75,-571.25 446.75,-571.25 446.75,-571.25 557.25,-571.25 557.25,-571.25 563.25,-571.25 569.25,-577.25 569.25,-583.25 569.25,-583.25 569.25,-619 569.25,-619 569.25,-625 563.25,-631 557.25,-631"/>
<text text-anchor="middle" x="502" y="-613.7" font-family="Helvetica,sans-Serif" font-size="14.00">Iter 1</text>
<text text-anchor="middle" x="502" y="-596.45" font-family="Helvetica,sans-Serif" font-size="14.00">try/except added</text>
<text text-anchor="middle" x="502" y="-579.2" font-family="Helvetica,sans-Serif" font-size="14.00">contract violated</text>
</g>
<!-- d0&#45;&gt;d1 -->
<g id="edge5" class="edge">
<title>d0&#45;&gt;d1</title>
<path fill="none" stroke="black" d="M502,-708.13C502,-689.06 502,-663.94 502,-642.94"/>
<polygon fill="black" stroke="black" points="505.5,-642.96 502,-632.96 498.5,-642.96 505.5,-642.96"/>
<text text-anchor="middle" x="541.38" y="-665" font-family="Helvetica,sans-Serif" font-size="10.00">Δloss_train = &#45;1</text>
<text text-anchor="middle" x="541.38" y="-652.25" font-family="Helvetica,sans-Serif" font-size="10.00">Δloss_test = +2</text>
</g>
<!-- d2 -->
<g id="node8" class="node">
<title>d2</title>
<path fill="#ffffff" stroke="black" d="M565.5,-509.75C565.5,-509.75 438.5,-509.75 438.5,-509.75 432.5,-509.75 426.5,-503.75 426.5,-497.75 426.5,-497.75 426.5,-462 426.5,-462 426.5,-456 432.5,-450 438.5,-450 438.5,-450 565.5,-450 565.5,-450 571.5,-450 577.5,-456 577.5,-462 577.5,-462 577.5,-497.75 577.5,-497.75 577.5,-503.75 571.5,-509.75 565.5,-509.75"/>
<text text-anchor="middle" x="502" y="-492.45" font-family="Helvetica,sans-Serif" font-size="14.00">Iter 2</text>
<text text-anchor="middle" x="502" y="-475.2" font-family="Helvetica,sans-Serif" font-size="14.00">fix&#45;A broke&#45;B</text>
<text text-anchor="middle" x="502" y="-457.95" font-family="Helvetica,sans-Serif" font-size="14.00">local minimum trap</text>
</g>
<!-- d1&#45;&gt;d2 -->
<g id="edge6" class="edge">
<title>d1&#45;&gt;d2</title>
<path fill="none" stroke="black" d="M502,-570.95C502,-556.08 502,-537.76 502,-521.53"/>
<polygon fill="black" stroke="black" points="505.5,-521.67 502,-511.67 498.5,-521.67 505.5,-521.67"/>
<text text-anchor="middle" x="541.38" y="-543.75" font-family="Helvetica,sans-Serif" font-size="10.00">Δloss_train = &#45;1</text>
<text text-anchor="middle" x="541.38" y="-531" font-family="Helvetica,sans-Serif" font-size="10.00">Δloss_test = +3</text>
</g>
<!-- d3 -->
<g id="node9" class="node">
<title>d3</title>
<path fill="#ffffff" stroke="black" d="M555.38,-401.25C555.38,-401.25 448.62,-401.25 448.62,-401.25 442.62,-401.25 436.62,-395.25 436.62,-389.25 436.62,-389.25 436.62,-353.5 436.62,-353.5 436.62,-347.5 442.62,-341.5 448.62,-341.5 448.62,-341.5 555.38,-341.5 555.38,-341.5 561.38,-341.5 567.38,-347.5 567.38,-353.5 567.38,-353.5 567.38,-389.25 567.38,-389.25 567.38,-395.25 561.38,-401.25 555.38,-401.25"/>
<text text-anchor="middle" x="502" y="-383.95" font-family="Helvetica,sans-Serif" font-size="14.00">Iter 3</text>
<text text-anchor="middle" x="502" y="-366.7" font-family="Helvetica,sans-Serif" font-size="14.00">retry loop added</text>
<text text-anchor="middle" x="502" y="-349.45" font-family="Helvetica,sans-Serif" font-size="14.00">for flakiness</text>
</g>
<!-- d2&#45;&gt;d3 -->
<g id="edge7" class="edge">
<title>d2&#45;&gt;d3</title>
<path fill="none" stroke="black" d="M502,-449.77C502,-438.39 502,-425.13 502,-412.84"/>
<polygon fill="black" stroke="black" points="505.5,-412.95 502,-402.95 498.5,-412.95 505.5,-412.95"/>
<text text-anchor="middle" x="527.12" y="-422.5" font-family="Helvetica,sans-Serif" font-size="10.00">oscillation</text>
</g>
<!-- d4 -->
<g id="node10" class="node">
<title>d4</title>
<path fill="#ffffff" stroke="black" d="M550.12,-292.75C550.12,-292.75 453.88,-292.75 453.88,-292.75 447.88,-292.75 441.88,-286.75 441.88,-280.75 441.88,-280.75 441.88,-245 441.88,-245 441.88,-239 447.88,-233 453.88,-233 453.88,-233 550.12,-233 550.12,-233 556.12,-233 562.12,-239 562.12,-245 562.12,-245 562.12,-280.75 562.12,-280.75 562.12,-286.75 556.12,-292.75 550.12,-292.75"/>
<text text-anchor="middle" x="502" y="-275.45" font-family="Helvetica,sans-Serif" font-size="14.00">Iter 4</text>
<text text-anchor="middle" x="502" y="-258.2" font-family="Helvetica,sans-Serif" font-size="14.00">rubric widened</text>
<text text-anchor="middle" x="502" y="-240.95" font-family="Helvetica,sans-Serif" font-size="14.00">to fit code</text>
</g>
<!-- d3&#45;&gt;d4 -->
<g id="edge8" class="edge">
<title>d3&#45;&gt;d4</title>
<path fill="none" stroke="black" d="M502,-341.27C502,-329.89 502,-316.63 502,-304.34"/>
<polygon fill="black" stroke="black" points="505.5,-304.45 502,-294.45 498.5,-304.45 505.5,-304.45"/>
<text text-anchor="middle" x="536.5" y="-314" font-family="Helvetica,sans-Serif" font-size="10.00">moving target</text>
</g>
<!-- d5 -->
<g id="node11" class="node">
<title>d5</title>
<path fill="#ffffff" stroke="black" d="M565.88,-184.25C565.88,-184.25 438.12,-184.25 438.12,-184.25 432.12,-184.25 426.12,-178.25 426.12,-172.25 426.12,-172.25 426.12,-136.5 426.12,-136.5 426.12,-130.5 432.12,-124.5 438.12,-124.5 438.12,-124.5 565.88,-124.5 565.88,-124.5 571.88,-124.5 577.88,-130.5 577.88,-136.5 577.88,-136.5 577.88,-172.25 577.88,-172.25 577.88,-178.25 571.88,-184.25 565.88,-184.25"/>
<text text-anchor="middle" x="502" y="-166.95" font-family="Helvetica,sans-Serif" font-size="14.00">Iter 5</text>
<text text-anchor="middle" x="502" y="-149.7" font-family="Helvetica,sans-Serif" font-size="14.00">xfail applied</text>
<text text-anchor="middle" x="502" y="-132.45" font-family="Helvetica,sans-Serif" font-size="14.00"> K_MAX hit, ignored</text>
</g>
<!-- d4&#45;&gt;d5 -->
<g id="edge9" class="edge">
<title>d4&#45;&gt;d5</title>
<path fill="none" stroke="black" d="M502,-232.77C502,-221.39 502,-208.13 502,-195.84"/>
<polygon fill="black" stroke="black" points="505.5,-195.95 502,-185.95 498.5,-195.95 505.5,-195.95"/>
<text text-anchor="middle" x="515.5" y="-205.5" font-family="Helvetica,sans-Serif" font-size="10.00">silent</text>
</g>
<!-- d_incident -->
<g id="node12" class="node">
<title>d_incident</title>
<path fill="#f5a5a5" stroke="black" d="M565.12,-75.75C565.12,-75.75 438.88,-75.75 438.88,-75.75 432.88,-75.75 426.88,-69.75 426.88,-63.75 426.88,-63.75 426.88,-28 426.88,-28 426.88,-22 432.88,-16 438.88,-16 438.88,-16 565.12,-16 565.12,-16 571.12,-16 577.12,-22 577.12,-28 577.12,-28 577.12,-63.75 577.12,-63.75 577.12,-69.75 571.12,-75.75 565.12,-75.75"/>
<text text-anchor="middle" x="502" y="-58.45" font-family="Helvetica,sans-Serif" font-size="14.00">2 weeks later</text>
<text text-anchor="middle" x="502" y="-41.2" font-family="Helvetica,sans-Serif" font-size="14.00">production incident</text>
<text text-anchor="middle" x="502" y="-23.95" font-family="Helvetica,sans-Serif" font-size="14.00">root cause = Iter 0</text>
</g>
<!-- d5&#45;&gt;d_incident -->
<g id="edge10" class="edge">
<title>d5&#45;&gt;d_incident</title>
<path fill="none" stroke="black" d="M502,-124.27C502,-112.89 502,-99.63 502,-87.34"/>
<polygon fill="black" stroke="black" points="505.5,-87.45 502,-77.45 498.5,-87.45 505.5,-87.45"/>
<text text-anchor="middle" x="544.75" y="-97" font-family="Helvetica,sans-Serif" font-size="10.00">accumulated drift</text>
</g>
<!-- legend -->
<g id="node13" class="node">
<title>legend</title>
<polygon fill="#fff9e6" stroke="#d4a017" points="1107,-784.5 659,-784.5 659,-692.5 1113,-692.5 1113,-778.5 1107,-784.5"/>
<polyline fill="none" stroke="#d4a017" points="1107,-784.5 1107,-778.5"/>
<polyline fill="none" stroke="#d4a017" points="1113,-778.5 1107,-778.5"/>
<text text-anchor="start" x="813.25" y="-768.2" font-family="Helvetica,sans-Serif" font-weight="bold" font-size="14.00">Reading the labels</text>
<text text-anchor="start" x="690.62" y="-754.2" font-family="Helvetica,sans-Serif" font-size="14.00">Δloss_train = change in loss on the </text>
<text text-anchor="start" x="940.38" y="-754.2" font-family="Helvetica,sans-Serif" font-style="italic" font-size="14.00">currently visible</text>
<text text-anchor="start" x="1050.62" y="-754.2" font-family="Helvetica,sans-Serif" font-size="14.00"> test</text>
<text text-anchor="start" x="728.12" y="-740.2" font-family="Helvetica,sans-Serif" font-size="14.00">Δloss_test = change in loss on </text>
<text text-anchor="start" x="944.88" y="-740.2" font-family="Helvetica,sans-Serif" font-style="italic" font-size="14.00">unseen</text>
<text text-anchor="start" x="995.88" y="-740.2" font-family="Helvetica,sans-Serif" font-size="14.00"> inputs</text>
<text text-anchor="start" x="686.5" y="-712.2" font-family="Helvetica,sans-Serif" font-size="14.00">A symptom patch has Δloss_train &lt; 0 but Δloss_test &gt; 0.</text>
<text text-anchor="start" x="667" y="-698.2" font-family="Helvetica,sans-Serif" font-size="14.00">That is </text>
<text text-anchor="start" x="718" y="-698.2" font-family="Helvetica,sans-Serif" font-weight="bold" font-size="14.00">overfitting</text>
<text text-anchor="start" x="801.25" y="-698.2" font-family="Helvetica,sans-Serif" font-size="14.00">. LDD rejects it even when the test is green.</text>
</g>
</g>
</svg>
