<?xml version="1.0" encoding="UTF-8" standalone="no"?>
<!DOCTYPE svg PUBLIC "-//W3C//DTD SVG 1.1//EN"
 "http://www.w3.org/Graphics/SVG/1.1/DTD/svg11.dtd">
<!-- Generated by graphviz version 12.2.1 (0)
 -->
<!-- Title: dialectical_cot Pages: 1 -->
<svg width="583pt" height="905pt"
 viewBox="0.00 0.00 582.75 904.91" xmlns="http://www.w3.org/2000/svg" xmlns:xlink="http://www.w3.org/1999/xlink">
<g id="graph0" class="graph" transform="scale(1 1) rotate(0) translate(4 900.91)">
<title>dialectical_cot</title>
<g id="clust1" class="cluster">
<title>cluster_step</title>
<path fill="#f2fbf2" stroke="#4c8a4c" stroke-dasharray="5,2" d="M91.25,-513.16C91.25,-513.16 379.25,-513.16 379.25,-513.16 385.25,-513.16 391.25,-519.16 391.25,-525.16 391.25,-525.16 391.25,-876.91 391.25,-876.91 391.25,-882.91 385.25,-888.91 379.25,-888.91 379.25,-888.91 91.25,-888.91 91.25,-888.91 85.25,-888.91 79.25,-882.91 79.25,-876.91 79.25,-876.91 79.25,-525.16 79.25,-525.16 79.25,-519.16 85.25,-513.16 91.25,-513.16"/>
<text text-anchor="start" x="87.25" y="-875.46" font-family="Helvetica,sans-Serif" font-weight="bold" font-size="11.00">Per&#45;step dialectical protocol</text>
</g>
<!-- task -->
<g id="node1" class="node">
<title>task</title>
<polygon fill="#fff5e1" stroke="#c89850" points="568.75,-484.16 459.75,-484.16 459.75,-437.91 574.75,-437.91 574.75,-478.16 568.75,-484.16"/>
<polyline fill="none" stroke="#c89850" points="568.75,-484.16 568.75,-478.16"/>
<polyline fill="none" stroke="#c89850" points="574.75,-478.16 568.75,-478.16"/>
<text text-anchor="middle" x="517.25" y="-470.66" font-family="Helvetica,sans-Serif" font-size="10.00">Task T</text>
<text text-anchor="middle" x="517.25" y="-457.91" font-family="Helvetica,sans-Serif" font-size="10.00">(ground truth known</text>
<text text-anchor="middle" x="517.25" y="-445.16" font-family="Helvetica,sans-Serif" font-size="10.00">for verifiable tasks)</text>
</g>
<!-- chain -->
<g id="node2" class="node">
<title>chain</title>
<polygon fill="#e8f4f8" stroke="#5b8db8" points="376.88,-390.66 373.88,-394.66 352.88,-394.66 349.88,-390.66 271.62,-390.66 271.62,-354.66 376.88,-354.66 376.88,-390.66"/>
<text text-anchor="middle" x="324.25" y="-375.91" font-family="Helvetica,sans-Serif" font-size="10.00">Chain θ_k</text>
<text text-anchor="middle" x="324.25" y="-363.16" font-family="Helvetica,sans-Serif" font-size="10.00">(partial trajectory)</text>
</g>
<!-- task&#45;&gt;chain -->
<g id="edge7" class="edge">
<title>task&#45;&gt;chain</title>
<path fill="none" stroke="#444444" d="M488.12,-437.62C474.2,-427.71 456.97,-416.54 440.25,-408.66 423.79,-400.89 405.2,-394.38 387.8,-389.15"/>
<polygon fill="#444444" stroke="#444444" points="389.19,-385.91 378.61,-386.49 387.24,-392.63 389.19,-385.91"/>
<text text-anchor="middle" x="470.47" y="-411.36" font-family="Helvetica,sans-Serif" font-size="9.00"> init </text>
</g>
<!-- step1 -->
<g id="node3" class="node">
<title>step1</title>
<path fill="#e8f8e8" stroke="#4c8a4c" d="M331.12,-859.41C331.12,-859.41 263.38,-859.41 263.38,-859.41 257.38,-859.41 251.38,-853.41 251.38,-847.41 251.38,-847.41 251.38,-835.41 251.38,-835.41 251.38,-829.41 257.38,-823.41 263.38,-823.41 263.38,-823.41 331.12,-823.41 331.12,-823.41 337.12,-823.41 343.12,-829.41 343.12,-835.41 343.12,-835.41 343.12,-847.41 343.12,-847.41 343.12,-853.41 337.12,-859.41 331.12,-859.41"/>
<text text-anchor="middle" x="297.25" y="-844.66" font-family="Helvetica,sans-Serif" font-size="10.00">1 · Thesis</text>
<text text-anchor="middle" x="297.25" y="-831.91" font-family="Helvetica,sans-Serif" font-size="10.00">Δθ_step + prior</text>
</g>
<!-- chain&#45;&gt;step1 -->
<g id="edge8" class="edge">
<title>chain&#45;&gt;step1</title>
<path fill="none" stroke="#444444" d="M365.39,-391.04C391.82,-405.26 421.25,-428.24 421.25,-460.03 421.25,-769.41 421.25,-769.41 421.25,-769.41 421.25,-802.84 386.89,-820.75 354.34,-830.21"/>
<polygon fill="#444444" stroke="#444444" points="353.65,-826.77 344.89,-832.72 355.45,-833.54 353.65,-826.77"/>
<text text-anchor="middle" x="438.12" y="-619.48" font-family="Helvetica,sans-Serif" font-size="9.00"> step k </text>
</g>
<!-- verify -->
<g id="node13" class="node">
<title>verify</title>
<path fill="#ffebe0" stroke="#b85040" d="M257.73,-292.8C257.73,-292.8 165.77,-266.01 165.77,-266.01 160.01,-264.33 160.01,-260.98 165.77,-259.3 165.77,-259.3 257.73,-232.51 257.73,-232.51 263.49,-230.83 275.01,-230.83 280.77,-232.51 280.77,-232.51 372.73,-259.3 372.73,-259.3 378.49,-260.98 378.49,-264.33 372.73,-266.01 372.73,-266.01 280.77,-292.8 280.77,-292.8 275.01,-294.48 263.49,-294.48 257.73,-292.8"/>
<text text-anchor="middle" x="269.25" y="-265.91" font-family="Helvetica,sans-Serif" font-size="10.00">verify(final, gt)</text>
<text text-anchor="middle" x="269.25" y="-253.16" font-family="Helvetica,sans-Serif" font-size="10.00">(ground truth check)</text>
</g>
<!-- chain&#45;&gt;verify -->
<g id="edge15" class="edge">
<title>chain&#45;&gt;verify</title>
<path fill="none" stroke="#444444" d="M315.41,-354.3C308.31,-340.35 298.05,-320.21 289.01,-302.45"/>
<polygon fill="#444444" stroke="#444444" points="292.2,-301.01 284.54,-293.69 285.96,-304.19 292.2,-301.01"/>
<text text-anchor="middle" x="326.26" y="-328.11" font-family="Helvetica,sans-Serif" font-size="9.00"> answer</text>
<text text-anchor="middle" x="326.26" y="-316.86" font-family="Helvetica,sans-Serif" font-size="9.00"> reached </text>
</g>
<!-- step2 -->
<g id="node4" class="node">
<title>step2</title>
<path fill="#e8f8e8" stroke="#4c8a4c" d="M308.5,-786.41C308.5,-786.41 204,-786.41 204,-786.41 198,-786.41 192,-780.41 192,-774.41 192,-774.41 192,-762.41 192,-762.41 192,-756.41 198,-750.41 204,-750.41 204,-750.41 308.5,-750.41 308.5,-750.41 314.5,-750.41 320.5,-756.41 320.5,-762.41 320.5,-762.41 320.5,-774.41 320.5,-774.41 320.5,-780.41 314.5,-786.41 308.5,-786.41"/>
<text text-anchor="middle" x="256.25" y="-771.66" font-family="Helvetica,sans-Serif" font-size="10.00">2 · Antithesis</text>
<text text-anchor="middle" x="256.25" y="-758.91" font-family="Helvetica,sans-Serif" font-size="10.00">primers + independent</text>
</g>
<!-- step1&#45;&gt;step2 -->
<g id="edge1" class="edge">
<title>step1&#45;&gt;step2</title>
<path fill="none" stroke="#444444" d="M287.33,-823.22C282.64,-815.11 276.94,-805.24 271.71,-796.18"/>
<polygon fill="#444444" stroke="#444444" points="274.87,-794.66 266.84,-787.75 268.81,-798.16 274.87,-794.66"/>
</g>
<!-- step3 -->
<g id="node5" class="node">
<title>step3</title>
<path fill="#fff5dd" stroke="#b88830" d="M299.5,-713.41C299.5,-713.41 213,-713.41 213,-713.41 207,-713.41 201,-707.41 201,-701.41 201,-701.41 201,-689.41 201,-689.41 201,-683.41 207,-677.41 213,-677.41 213,-677.41 299.5,-677.41 299.5,-677.41 305.5,-677.41 311.5,-683.41 311.5,-689.41 311.5,-689.41 311.5,-701.41 311.5,-701.41 311.5,-707.41 305.5,-713.41 299.5,-713.41"/>
<text text-anchor="middle" x="256.25" y="-698.66" font-family="Helvetica,sans-Serif" font-size="10.00">3 · Synthesis</text>
<text text-anchor="middle" x="256.25" y="-685.91" font-family="Helvetica,sans-Serif" font-size="10.00">E[step correct] = Σ·</text>
</g>
<!-- step2&#45;&gt;step3 -->
<g id="edge2" class="edge">
<title>step2&#45;&gt;step3</title>
<path fill="none" stroke="#444444" d="M256.25,-750.22C256.25,-742.63 256.25,-733.51 256.25,-724.95"/>
<polygon fill="#444444" stroke="#444444" points="259.75,-724.95 256.25,-714.95 252.75,-724.95 259.75,-724.95"/>
</g>
<!-- step4 -->
<g id="node6" class="node">
<title>step4</title>
<path fill="#ffebe0" stroke="#b85040" d="M244.83,-636.74C244.83,-636.74 211.65,-626.08 211.65,-626.08 205.93,-624.24 205.93,-620.57 211.65,-618.74 211.65,-618.74 244.83,-608.08 244.83,-608.08 250.54,-606.24 261.96,-606.24 267.67,-608.08 267.67,-608.08 300.85,-618.74 300.85,-618.74 306.57,-620.57 306.57,-624.24 300.85,-626.08 300.85,-626.08 267.67,-636.74 267.67,-636.74 261.96,-638.57 250.54,-638.57 244.83,-636.74"/>
<text text-anchor="middle" x="256.25" y="-619.28" font-family="Helvetica,sans-Serif" font-size="10.00">4 · Decide</text>
</g>
<!-- step3&#45;&gt;step4 -->
<g id="edge3" class="edge">
<title>step3&#45;&gt;step4</title>
<path fill="none" stroke="#444444" d="M256.25,-677.22C256.25,-669.74 256.25,-660.78 256.25,-652.32"/>
<polygon fill="#444444" stroke="#444444" points="259.75,-652.44 256.25,-642.44 252.75,-652.44 259.75,-652.44"/>
</g>
<!-- commit -->
<g id="node7" class="node">
<title>commit</title>
<path fill="#d8f0d8" stroke="#4c8a4c" d="M371.62,-557.16C371.62,-557.16 336.88,-557.16 336.88,-557.16 330.88,-557.16 324.88,-551.16 324.88,-545.16 324.88,-545.16 324.88,-533.16 324.88,-533.16 324.88,-527.16 330.88,-521.16 336.88,-521.16 336.88,-521.16 371.62,-521.16 371.62,-521.16 377.62,-521.16 383.62,-527.16 383.62,-533.16 383.62,-533.16 383.62,-545.16 383.62,-545.16 383.62,-551.16 377.62,-557.16 371.62,-557.16"/>
<text text-anchor="middle" x="354.25" y="-542.41" font-family="Helvetica,sans-Serif" font-size="10.00">commit</text>
<text text-anchor="middle" x="354.25" y="-529.66" font-family="Helvetica,sans-Serif" font-size="10.00">(E ≥ 0.7)</text>
</g>
<!-- step4&#45;&gt;commit -->
<g id="edge4" class="edge">
<title>step4&#45;&gt;commit</title>
<path fill="none" stroke="#444444" d="M272.25,-609.31C280.93,-602.67 291.78,-594.21 301.25,-586.41 309.47,-579.63 318.23,-572.11 326.22,-565.13"/>
<polygon fill="#444444" stroke="#444444" points="328.51,-567.79 333.71,-558.55 323.89,-562.53 328.51,-567.79"/>
<text text-anchor="middle" x="328.79" y="-577.86" font-family="Helvetica,sans-Serif" font-size="9.00"> ≥0.7 </text>
</g>
<!-- revise -->
<g id="node8" class="node">
<title>revise</title>
<path fill="#fff0d8" stroke="#b88830" d="M288.25,-557.16C288.25,-557.16 224.25,-557.16 224.25,-557.16 218.25,-557.16 212.25,-551.16 212.25,-545.16 212.25,-545.16 212.25,-533.16 212.25,-533.16 212.25,-527.16 218.25,-521.16 224.25,-521.16 224.25,-521.16 288.25,-521.16 288.25,-521.16 294.25,-521.16 300.25,-527.16 300.25,-533.16 300.25,-533.16 300.25,-545.16 300.25,-545.16 300.25,-551.16 294.25,-557.16 288.25,-557.16"/>
<text text-anchor="middle" x="256.25" y="-542.41" font-family="Helvetica,sans-Serif" font-size="10.00">revise</text>
<text text-anchor="middle" x="256.25" y="-529.66" font-family="Helvetica,sans-Serif" font-size="10.00">(0.4 ≤ E &lt; 0.7)</text>
</g>
<!-- step4&#45;&gt;revise -->
<g id="edge5" class="edge">
<title>step4&#45;&gt;revise</title>
<path fill="none" stroke="#444444" d="M256.25,-604.18C256.25,-593.9 256.25,-580.61 256.25,-568.79"/>
<polygon fill="#444444" stroke="#444444" points="259.75,-569.16 256.25,-559.16 252.75,-569.16 259.75,-569.16"/>
<text text-anchor="middle" x="275.75" y="-577.86" font-family="Helvetica,sans-Serif" font-size="9.00"> 0.4&#45;0.7 </text>
</g>
<!-- reject -->
<g id="node9" class="node">
<title>reject</title>
<path fill="#f8d8d8" stroke="#b85040" d="M175.62,-557.16C175.62,-557.16 98.88,-557.16 98.88,-557.16 92.88,-557.16 86.88,-551.16 86.88,-545.16 86.88,-545.16 86.88,-533.16 86.88,-533.16 86.88,-527.16 92.88,-521.16 98.88,-521.16 98.88,-521.16 175.62,-521.16 175.62,-521.16 181.62,-521.16 187.62,-527.16 187.62,-533.16 187.62,-533.16 187.62,-545.16 187.62,-545.16 187.62,-551.16 181.62,-557.16 175.62,-557.16"/>
<text text-anchor="middle" x="137.25" y="-542.41" font-family="Helvetica,sans-Serif" font-size="10.00">reject / backtrack</text>
<text text-anchor="middle" x="137.25" y="-529.66" font-family="Helvetica,sans-Serif" font-size="10.00">(E &lt; 0.4)</text>
</g>
<!-- step4&#45;&gt;reject -->
<g id="edge6" class="edge">
<title>step4&#45;&gt;reject</title>
<path fill="none" stroke="#444444" d="M238.95,-609.59C221.43,-597.63 193.85,-578.8 171.83,-563.77"/>
<polygon fill="#444444" stroke="#444444" points="173.96,-560.98 163.72,-558.23 170.01,-566.76 173.96,-560.98"/>
<text text-anchor="middle" x="218.12" y="-577.86" font-family="Helvetica,sans-Serif" font-size="9.00"> &lt;0.4 </text>
</g>
<!-- append -->
<g id="node11" class="node">
<title>append</title>
<path fill="#f0f0f0" stroke="#888888" d="M359.25,-479.03C359.25,-479.03 289.25,-479.03 289.25,-479.03 283.25,-479.03 277.25,-473.03 277.25,-467.03 277.25,-467.03 277.25,-455.03 277.25,-455.03 277.25,-449.03 283.25,-443.03 289.25,-443.03 289.25,-443.03 359.25,-443.03 359.25,-443.03 365.25,-443.03 371.25,-449.03 371.25,-455.03 371.25,-455.03 371.25,-467.03 371.25,-467.03 371.25,-473.03 365.25,-479.03 359.25,-479.03"/>
<text text-anchor="middle" x="324.25" y="-464.28" font-family="Helvetica,sans-Serif" font-size="10.00">append to chain</text>
<text text-anchor="middle" x="324.25" y="-451.53" font-family="Helvetica,sans-Serif" font-size="10.00">(step 5: log)</text>
</g>
<!-- commit&#45;&gt;append -->
<g id="edge10" class="edge">
<title>commit&#45;&gt;append</title>
<path fill="none" stroke="#444444" d="M347.44,-520.88C343.86,-511.8 339.38,-500.43 335.32,-490.12"/>
<polygon fill="#444444" stroke="#444444" points="338.61,-488.93 331.69,-480.91 332.1,-491.5 338.61,-488.93"/>
</g>
<!-- revise&#45;&gt;append -->
<g id="edge11" class="edge">
<title>revise&#45;&gt;append</title>
<path fill="none" stroke="#444444" d="M271.68,-520.88C280.4,-511.12 291.47,-498.73 301.2,-487.84"/>
<polygon fill="#444444" stroke="#444444" points="303.59,-490.42 307.64,-480.63 298.36,-485.76 303.59,-490.42"/>
</g>
<!-- backtrack -->
<g id="node12" class="node">
<title>backtrack</title>
<path fill="#f0f0f0" stroke="#888888" d="M217,-479.03C217,-479.03 157.5,-479.03 157.5,-479.03 151.5,-479.03 145.5,-473.03 145.5,-467.03 145.5,-467.03 145.5,-455.03 145.5,-455.03 145.5,-449.03 151.5,-443.03 157.5,-443.03 157.5,-443.03 217,-443.03 217,-443.03 223,-443.03 229,-449.03 229,-455.03 229,-455.03 229,-467.03 229,-467.03 229,-473.03 223,-479.03 217,-479.03"/>
<text text-anchor="middle" x="187.25" y="-464.28" font-family="Helvetica,sans-Serif" font-size="10.00">backtrack to</text>
<text text-anchor="middle" x="187.25" y="-451.53" font-family="Helvetica,sans-Serif" font-size="10.00">earlier branch</text>
</g>
<!-- reject&#45;&gt;backtrack -->
<g id="edge13" class="edge">
<title>reject&#45;&gt;backtrack</title>
<path fill="none" stroke="#444444" d="M148.6,-520.88C154.82,-511.41 162.66,-499.46 169.66,-488.81"/>
<polygon fill="#444444" stroke="#444444" points="172.38,-491.05 174.95,-480.77 166.53,-487.2 172.38,-491.05"/>
</g>
<!-- cot_mem -->
<g id="node10" class="node">
<title>cot_mem</title>
<path fill="#e8e8f8" stroke="#5050a8" d="M140.5,-89.69C140.5,-94.64 109.01,-98.66 70.25,-98.66 31.49,-98.66 0,-94.64 0,-89.69 0,-89.69 0,-8.97 0,-8.97 0,-4.02 31.49,0 70.25,0 109.01,0 140.5,-4.02 140.5,-8.97 140.5,-8.97 140.5,-89.69 140.5,-89.69"/>
<path fill="none" stroke="#5050a8" d="M140.5,-89.69C140.5,-84.74 109.01,-80.72 70.25,-80.72 31.49,-80.72 0,-84.74 0,-89.69"/>
<text text-anchor="middle" x="70.25" y="-71.7" font-family="Helvetica,sans-Serif" font-size="10.00">cot_memory.json</text>
<text text-anchor="middle" x="70.25" y="-58.95" font-family="Helvetica,sans-Serif" font-size="10.00">per task&#45;type:</text>
<text text-anchor="middle" x="70.25" y="-46.2" font-family="Helvetica,sans-Serif" font-size="10.00">&#45; step_effectiveness</text>
<text text-anchor="middle" x="70.25" y="-33.45" font-family="Helvetica,sans-Serif" font-size="10.00">&#45; common_failure_modes</text>
<text text-anchor="middle" x="70.25" y="-20.7" font-family="Helvetica,sans-Serif" font-size="10.00">&#45; calibration MAE</text>
</g>
<!-- cot_mem&#45;&gt;step2 -->
<g id="edge9" class="edge">
<title>cot_mem&#45;&gt;step2</title>
<path fill="none" stroke="#444444" stroke-dasharray="5,2" d="M57.61,-98.95C53.16,-120.03 49.25,-145.09 49.25,-168.03 49.25,-696.41 49.25,-696.41 49.25,-696.41 49.25,-725.09 121.28,-744.64 180.37,-755.85"/>
<polygon fill="#444444" stroke="#444444" points="179.65,-759.28 190.12,-757.64 180.91,-752.39 179.65,-759.28"/>
<text text-anchor="middle" x="78.88" y="-463.73" font-family="Helvetica,sans-Serif" font-size="9.00"> failure&#45;mode</text>
<text text-anchor="middle" x="78.88" y="-452.48" font-family="Helvetica,sans-Serif" font-size="9.00"> primers </text>
</g>
<!-- append&#45;&gt;chain -->
<g id="edge12" class="edge">
<title>append&#45;&gt;chain</title>
<path fill="none" stroke="#5b8db8" d="M324.25,-442.55C324.25,-431.08 324.25,-415.8 324.25,-402.55"/>
<polygon fill="#5b8db8" stroke="#5b8db8" points="327.75,-402.62 324.25,-392.62 320.75,-402.62 327.75,-402.62"/>
<text text-anchor="middle" x="347.5" y="-411.36" font-family="Helvetica,sans-Serif" font-size="9.00"> θ_{k+1} </text>
</g>
<!-- backtrack&#45;&gt;chain -->
<g id="edge14" class="edge">
<title>backtrack&#45;&gt;chain</title>
<path fill="none" stroke="#b85040" stroke-dasharray="5,2" d="M214.97,-442.55C235.68,-429.5 264.2,-411.52 286.91,-397.2"/>
<polygon fill="#b85040" stroke="#b85040" points="288.69,-400.21 295.29,-391.92 284.96,-394.29 288.69,-400.21"/>
<text text-anchor="middle" x="289.02" y="-411.36" font-family="Helvetica,sans-Serif" font-size="9.00"> θ_{k&#45;1} </text>
</g>
<!-- calib -->
<g id="node14" class="node">
<title>calib</title>
<polygon fill="#f0e8f8" stroke="#8050a8" points="243.5,-192.16 109,-192.16 109,-145.91 249.5,-145.91 249.5,-186.16 243.5,-192.16"/>
<polyline fill="none" stroke="#8050a8" points="243.5,-192.16 243.5,-186.16"/>
<polyline fill="none" stroke="#8050a8" points="249.5,-186.16 243.5,-186.16"/>
<text text-anchor="middle" x="179.25" y="-178.66" font-family="Helvetica,sans-Serif" font-size="10.00">log calibration:</text>
<text text-anchor="middle" x="179.25" y="-165.91" font-family="Helvetica,sans-Serif" font-size="10.00">predicted_chain vs actual</text>
<text text-anchor="middle" x="179.25" y="-153.16" font-family="Helvetica,sans-Serif" font-size="10.00">update cot_memory</text>
</g>
<!-- verify&#45;&gt;calib -->
<g id="edge16" class="edge">
<title>verify&#45;&gt;calib</title>
<path fill="none" stroke="#444444" d="M244.18,-236.13C233.38,-225.14 220.66,-212.19 209.36,-200.69"/>
<polygon fill="#444444" stroke="#444444" points="211.99,-198.37 202.49,-193.69 207,-203.27 211.99,-198.37"/>
</g>
<!-- calib&#45;&gt;cot_mem -->
<g id="edge17" class="edge">
<title>calib&#45;&gt;cot_mem</title>
<path fill="none" stroke="#8050a8" d="M158.49,-145.62C148.06,-134.35 134.91,-120.15 121.97,-106.18"/>
<polygon fill="#8050a8" stroke="#8050a8" points="124.79,-104.07 115.43,-99.12 119.66,-108.83 124.79,-104.07"/>
<text text-anchor="middle" x="160.01" y="-119.36" font-family="Helvetica,sans-Serif" font-size="9.00"> update </text>
</g>
</g>
</svg>
