<?xml version="1.0" encoding="UTF-8" standalone="no"?>
<!DOCTYPE svg PUBLIC "-//W3C//DTD SVG 1.1//EN"
 "http://www.w3.org/Graphics/SVG/1.1/DTD/svg11.dtd">
<!-- Generated by graphviz version 12.2.1 (0)
 -->
<!-- Title: four_loops Pages: 1 -->
<svg width="2054pt" height="737pt"
 viewBox="0.00 0.00 2053.73 737.00" xmlns="http://www.w3.org/2000/svg" xmlns:xlink="http://www.w3.org/1999/xlink">
<g id="graph0" class="graph" transform="scale(1 1) rotate(0) translate(4 733)">
<title>four_loops</title>
<polygon fill="white" stroke="none" points="-4,4 -4,-733 2049.73,-733 2049.73,4 -4,4"/>
<text text-anchor="start" x="857.87" y="-712.7" font-family="Helvetica,sans-Serif" font-weight="bold" font-size="14.00">LDD — Four orthogonal optimization loops</text>
<text text-anchor="start" x="813.99" y="-702.5" font-family="Helvetica,sans-Serif" font-size="10.00">Each loop optimizes a different parameter; mixing them produces unstable gradients.</text>
<g id="clust1" class="cluster">
<title>cluster_inner</title>
<path fill="#e8f4fd" stroke="#1f77b4" d="M135.25,-8C135.25,-8 1271,-8 1271,-8 1277,-8 1283,-14 1283,-20 1283,-20 1283,-146 1283,-146 1283,-152 1277,-158 1271,-158 1271,-158 135.25,-158 135.25,-158 129.25,-158 123.25,-152 123.25,-146 123.25,-146 123.25,-20 123.25,-20 123.25,-14 129.25,-8 135.25,-8"/>
<text text-anchor="start" x="661.12" y="-141.7" font-family="Helvetica,sans-Serif" font-weight="bold" font-size="14.00">Inner Loop</text>
<text text-anchor="start" x="623.25" y="-132.45" font-family="Helvetica,sans-Serif" font-size="9.00">θ = code of current task (∂L/∂code)</text>
</g>
<g id="clust2" class="cluster">
<title>cluster_refine</title>
<path fill="#fef4ea" stroke="#ff7f0e" d="M172,-166C172,-166 1593.5,-166 1593.5,-166 1599.5,-166 1605.5,-172 1605.5,-178 1605.5,-178 1605.5,-287 1605.5,-287 1605.5,-293 1599.5,-299 1593.5,-299 1593.5,-299 172,-299 172,-299 166,-299 160,-293 160,-287 160,-287 160,-178 160,-178 160,-172 166,-166 172,-166"/>
<text text-anchor="start" x="783.75" y="-282.7" font-family="Helvetica,sans-Serif" font-weight="bold" font-size="14.00">Refinement Loop (y&#45;axis)</text>
<text text-anchor="start" x="775.12" y="-273.45" font-family="Helvetica,sans-Serif" font-size="9.00">y = deliverable of a completed run (∂L/∂output)</text>
</g>
<g id="clust3" class="cluster">
<title>cluster_outer</title>
<path fill="#f5ebfd" stroke="#9467bd" d="M163.75,-307C163.75,-307 2025.73,-307 2025.73,-307 2031.73,-307 2037.73,-313 2037.73,-319 2037.73,-319 2037.73,-424 2037.73,-424 2037.73,-430 2031.73,-436 2025.73,-436 2025.73,-436 163.75,-436 163.75,-436 157.75,-436 151.75,-430 151.75,-424 151.75,-424 151.75,-319 151.75,-319 151.75,-313 157.75,-307 163.75,-307"/>
<text text-anchor="start" x="1015.99" y="-419.7" font-family="Helvetica,sans-Serif" font-weight="bold" font-size="14.00">Outer Loop (m&#45;axis)</text>
<text text-anchor="start" x="997.62" y="-410.45" font-family="Helvetica,sans-Serif" font-size="9.00">m = skills / prompts / rubrics (∂L/∂method)</text>
</g>
<g id="clust4" class="cluster">
<title>cluster_cot</title>
<path fill="#e8f8ee" stroke="#2ca02c" d="M124.75,-444C124.75,-444 1577,-444 1577,-444 1583,-444 1589,-450 1589,-456 1589,-456 1589,-599 1589,-599 1589,-605 1583,-611 1577,-611 1577,-611 124.75,-611 124.75,-611 118.75,-611 112.75,-605 112.75,-599 112.75,-599 112.75,-456 112.75,-456 112.75,-450 118.75,-444 124.75,-444"/>
<text text-anchor="start" x="783.38" y="-594.7" font-family="Helvetica,sans-Serif" font-weight="bold" font-size="14.00">CoT Loop (t&#45;axis)</text>
<text text-anchor="start" x="727.88" y="-585.45" font-family="Helvetica,sans-Serif" font-size="9.00">t = reasoning chain / thought trajectory (∂L/∂thought)</text>
</g>
<!-- plan_i -->
<g id="node1" class="node">
<title>plan_i</title>
<path fill="#ffffff" stroke="black" d="M276.62,-58.25C276.62,-58.25 205.12,-58.25 205.12,-58.25 199.12,-58.25 193.12,-52.25 193.12,-46.25 193.12,-46.25 193.12,-27.75 193.12,-27.75 193.12,-21.75 199.12,-15.75 205.12,-15.75 205.12,-15.75 276.62,-15.75 276.62,-15.75 282.62,-15.75 288.62,-21.75 288.62,-27.75 288.62,-27.75 288.62,-46.25 288.62,-46.25 288.62,-52.25 282.62,-58.25 276.62,-58.25"/>
<text text-anchor="middle" x="240.88" y="-40.95" font-family="Helvetica,sans-Serif" font-size="14.00">plan</text>
<text text-anchor="middle" x="240.88" y="-23.7" font-family="Helvetica,sans-Serif" font-size="14.00">(dialectical)</text>
</g>
<!-- code_i -->
<g id="node2" class="node">
<title>code_i</title>
<path fill="#ffffff" stroke="black" d="M693.5,-58.25C693.5,-58.25 550.75,-58.25 550.75,-58.25 544.75,-58.25 538.75,-52.25 538.75,-46.25 538.75,-46.25 538.75,-27.75 538.75,-27.75 538.75,-21.75 544.75,-15.75 550.75,-15.75 550.75,-15.75 693.5,-15.75 693.5,-15.75 699.5,-15.75 705.5,-21.75 705.5,-27.75 705.5,-27.75 705.5,-46.25 705.5,-46.25 705.5,-52.25 699.5,-58.25 693.5,-58.25"/>
<text text-anchor="middle" x="622.12" y="-40.95" font-family="Helvetica,sans-Serif" font-size="14.00">code</text>
<text text-anchor="middle" x="622.12" y="-23.7" font-family="Helvetica,sans-Serif" font-size="14.00">(one focused change)</text>
</g>
<!-- plan_i&#45;&gt;code_i -->
<g id="edge1" class="edge">
<title>plan_i&#45;&gt;code_i</title>
<path fill="none" stroke="black" d="M288.76,-37C347.95,-37 451.18,-37 526.93,-37"/>
<polygon fill="black" stroke="black" points="526.86,-40.5 536.86,-37 526.86,-33.5 526.86,-40.5"/>
<text text-anchor="middle" x="510.25" y="-40.25" font-family="Helvetica,sans-Serif" font-size="10.00">K≤5</text>
</g>
<!-- gate_i -->
<g id="node3" class="node">
<title>gate_i</title>
<path fill="#ffffff" stroke="black" d="M923.25,-58.25C923.25,-58.25 799.25,-58.25 799.25,-58.25 793.25,-58.25 787.25,-52.25 787.25,-46.25 787.25,-46.25 787.25,-27.75 787.25,-27.75 787.25,-21.75 793.25,-15.75 799.25,-15.75 799.25,-15.75 923.25,-15.75 923.25,-15.75 929.25,-15.75 935.25,-21.75 935.25,-27.75 935.25,-27.75 935.25,-46.25 935.25,-46.25 935.25,-52.25 929.25,-58.25 923.25,-58.25"/>
<text text-anchor="middle" x="861.25" y="-40.95" font-family="Helvetica,sans-Serif" font-size="14.00">fast gates</text>
<text text-anchor="middle" x="861.25" y="-23.7" font-family="Helvetica,sans-Serif" font-size="14.00">→ E2E if warranted</text>
</g>
<!-- code_i&#45;&gt;gate_i -->
<g id="edge2" class="edge">
<title>code_i&#45;&gt;gate_i</title>
<path fill="none" stroke="black" d="M705.73,-37C728.37,-37 752.94,-37 775.69,-37"/>
<polygon fill="black" stroke="black" points="775.53,-40.5 785.53,-37 775.53,-33.5 775.53,-40.5"/>
<text text-anchor="middle" x="746.38" y="-40.25" font-family="Helvetica,sans-Serif" font-size="10.00">K≤5</text>
</g>
<!-- diag_i -->
<g id="node4" class="node">
<title>diag_i</title>
<path fill="#ffffff" stroke="black" d="M1263,-78.25C1263,-78.25 1155.5,-78.25 1155.5,-78.25 1149.5,-78.25 1143.5,-72.25 1143.5,-66.25 1143.5,-66.25 1143.5,-47.75 1143.5,-47.75 1143.5,-41.75 1149.5,-35.75 1155.5,-35.75 1155.5,-35.75 1263,-35.75 1263,-35.75 1269,-35.75 1275,-41.75 1275,-47.75 1275,-47.75 1275,-66.25 1275,-66.25 1275,-72.25 1269,-78.25 1263,-78.25"/>
<text text-anchor="middle" x="1209.25" y="-60.95" font-family="Helvetica,sans-Serif" font-size="14.00">diagnose</text>
<text text-anchor="middle" x="1209.25" y="-43.7" font-family="Helvetica,sans-Serif" font-size="14.00">(5&#45;why&#45;by&#45;layer)</text>
</g>
<!-- gate_i&#45;&gt;diag_i -->
<g id="edge3" class="edge">
<title>gate_i&#45;&gt;diag_i</title>
<path fill="none" stroke="black" d="M935.63,-41.24C993.28,-44.57 1073.32,-49.2 1131.76,-52.58"/>
<polygon fill="black" stroke="black" points="1131.45,-56.07 1141.63,-53.15 1131.85,-49.08 1131.45,-56.07"/>
<text text-anchor="middle" x="991.5" y="-49.65" font-family="Helvetica,sans-Serif" font-size="10.00">K≤5</text>
</g>
<!-- diag_i&#45;&gt;plan_i -->
<g id="edge4" class="edge">
<title>diag_i&#45;&gt;plan_i</title>
<path fill="none" stroke="black" d="M1143.18,-60.05C1087.88,-62.49 1006.38,-65.7 935.25,-67 759.06,-70.23 714.75,-75.87 538.75,-67 455.64,-62.81 359.93,-52.07 300.16,-44.64"/>
<polygon fill="black" stroke="black" points="300.93,-41.21 290.57,-43.44 300.06,-48.16 300.93,-41.21"/>
<text text-anchor="middle" x="746.38" y="-74.92" font-family="Helvetica,sans-Serif" font-size="10.00">K≤5</text>
</g>
<!-- budget_i -->
<g id="node5" class="node">
<title>budget_i</title>
<polygon fill="#fff9e6" stroke="#d4a017" points="344.5,-119.25 131.25,-119.25 131.25,-76.75 350.5,-76.75 350.5,-113.25 344.5,-119.25"/>
<polyline fill="none" stroke="#d4a017" points="344.5,-119.25 344.5,-113.25"/>
<polyline fill="none" stroke="#d4a017" points="350.5,-113.25 344.5,-113.25"/>
<text text-anchor="middle" x="240.88" y="-101.95" font-family="Helvetica,sans-Serif" font-size="14.00">K_MAX = 5</text>
<text text-anchor="middle" x="240.88" y="-84.7" font-family="Helvetica,sans-Serif" font-size="14.00">escalate on non&#45;convergence</text>
</g>
<!-- seed_r -->
<g id="node6" class="node">
<title>seed_r</title>
<path fill="#ffffff" stroke="black" d="M301.75,-236.25C301.75,-236.25 180,-236.25 180,-236.25 174,-236.25 168,-230.25 168,-224.25 168,-224.25 168,-205.75 168,-205.75 168,-199.75 174,-193.75 180,-193.75 180,-193.75 301.75,-193.75 301.75,-193.75 307.75,-193.75 313.75,-199.75 313.75,-205.75 313.75,-205.75 313.75,-224.25 313.75,-224.25 313.75,-230.25 307.75,-236.25 301.75,-236.25"/>
<text text-anchor="middle" x="240.88" y="-218.95" font-family="Helvetica,sans-Serif" font-size="14.00">seed run</text>
<text text-anchor="middle" x="240.88" y="-201.7" font-family="Helvetica,sans-Serif" font-size="14.00">(already complete)</text>
</g>
<!-- grad_r -->
<g id="node7" class="node">
<title>grad_r</title>
<path fill="#ffffff" stroke="black" d="M680.38,-253.5C680.38,-253.5 563.88,-253.5 563.88,-253.5 557.88,-253.5 551.88,-247.5 551.88,-241.5 551.88,-241.5 551.88,-188.5 551.88,-188.5 551.88,-182.5 557.88,-176.5 563.88,-176.5 563.88,-176.5 680.38,-176.5 680.38,-176.5 686.38,-176.5 692.38,-182.5 692.38,-188.5 692.38,-188.5 692.38,-241.5 692.38,-241.5 692.38,-247.5 686.38,-253.5 680.38,-253.5"/>
<text text-anchor="middle" x="622.12" y="-236.2" font-family="Helvetica,sans-Serif" font-size="14.00">gradient =</text>
<text text-anchor="middle" x="622.12" y="-218.95" font-family="Helvetica,sans-Serif" font-size="14.00">critique defects +</text>
<text text-anchor="middle" x="622.12" y="-201.7" font-family="Helvetica,sans-Serif" font-size="14.00">gate rejections +</text>
<text text-anchor="middle" x="622.12" y="-184.45" font-family="Helvetica,sans-Serif" font-size="14.00">eval deltas</text>
</g>
<!-- seed_r&#45;&gt;grad_r -->
<g id="edge5" class="edge">
<title>seed_r&#45;&gt;grad_r</title>
<path fill="none" stroke="black" d="M314.1,-215C378.61,-215 472.99,-215 540.05,-215"/>
<polygon fill="black" stroke="black" points="539.9,-218.5 549.9,-215 539.89,-211.5 539.9,-218.5"/>
</g>
<!-- iter_r -->
<g id="node8" class="node">
<title>iter_r</title>
<path fill="#ffffff" stroke="black" d="M912.75,-236.25C912.75,-236.25 809.75,-236.25 809.75,-236.25 803.75,-236.25 797.75,-230.25 797.75,-224.25 797.75,-224.25 797.75,-205.75 797.75,-205.75 797.75,-199.75 803.75,-193.75 809.75,-193.75 809.75,-193.75 912.75,-193.75 912.75,-193.75 918.75,-193.75 924.75,-199.75 924.75,-205.75 924.75,-205.75 924.75,-224.25 924.75,-224.25 924.75,-230.25 918.75,-236.25 912.75,-236.25"/>
<text text-anchor="middle" x="861.25" y="-218.95" font-family="Helvetica,sans-Serif" font-size="14.00">iteration k</text>
<text text-anchor="middle" x="861.25" y="-201.7" font-family="Helvetica,sans-Serif" font-size="14.00">(budget halved)</text>
</g>
<!-- grad_r&#45;&gt;iter_r -->
<g id="edge6" class="edge">
<title>grad_r&#45;&gt;iter_r</title>
<path fill="none" stroke="black" d="M692.67,-215C722.11,-215 756.46,-215 786.36,-215"/>
<polygon fill="black" stroke="black" points="786.07,-218.5 796.07,-215 786.07,-211.5 786.07,-218.5"/>
</g>
<!-- stop_r -->
<g id="node9" class="node">
<title>stop_r</title>
<path fill="#ffffff" stroke="black" d="M1197.66,-256.41C1197.66,-256.41 1061.59,-220.09 1061.59,-220.09 1055.8,-218.55 1055.8,-215.45 1061.59,-213.91 1061.59,-213.91 1197.66,-177.59 1197.66,-177.59 1203.45,-176.05 1215.05,-176.05 1220.84,-177.59 1220.84,-177.59 1356.91,-213.91 1356.91,-213.91 1362.7,-215.45 1362.7,-218.55 1356.91,-220.09 1356.91,-220.09 1220.84,-256.41 1220.84,-256.41 1215.05,-257.95 1203.45,-257.95 1197.66,-256.41"/>
<text text-anchor="middle" x="1209.25" y="-220.95" font-family="Helvetica,sans-Serif" font-size="14.00">regression? plateau?</text>
<text text-anchor="middle" x="1209.25" y="-203.7" font-family="Helvetica,sans-Serif" font-size="14.00">wall&#45;time?</text>
</g>
<!-- iter_r&#45;&gt;stop_r -->
<g id="edge7" class="edge">
<title>iter_r&#45;&gt;stop_r</title>
<path fill="none" stroke="black" d="M924.88,-210.33C934.38,-209.78 944.07,-209.3 953.25,-209 989.36,-207.81 1028.34,-208.19 1064.7,-209.26"/>
<polygon fill="black" stroke="black" points="1064.28,-212.75 1074.38,-209.57 1064.5,-205.75 1064.28,-212.75"/>
</g>
<!-- stop_r&#45;&gt;iter_r -->
<g id="edge8" class="edge">
<title>stop_r&#45;&gt;iter_r</title>
<path fill="none" stroke="black" d="M1051.77,-216.1C1011.46,-215.86 969.95,-215.62 936.09,-215.43"/>
<polygon fill="black" stroke="black" points="936.44,-211.93 926.42,-215.37 936.4,-218.93 936.44,-211.93"/>
<text text-anchor="middle" x="991.5" y="-219.19" font-family="Helvetica,sans-Serif" font-size="10.00">no</text>
</g>
<!-- best_r -->
<g id="node10" class="node">
<title>best_r</title>
<path fill="#e6fbe6" stroke="black" d="M1585.5,-246.88C1585.5,-246.88 1471.25,-246.88 1471.25,-246.88 1465.25,-246.88 1459.25,-240.88 1459.25,-234.88 1459.25,-234.88 1459.25,-199.12 1459.25,-199.12 1459.25,-193.12 1465.25,-187.12 1471.25,-187.12 1471.25,-187.12 1585.5,-187.12 1585.5,-187.12 1591.5,-187.12 1597.5,-193.12 1597.5,-199.12 1597.5,-199.12 1597.5,-234.88 1597.5,-234.88 1597.5,-240.88 1591.5,-246.88 1585.5,-246.88"/>
<text text-anchor="middle" x="1528.38" y="-229.57" font-family="Helvetica,sans-Serif" font-size="14.00">BEST/</text>
<text text-anchor="middle" x="1528.38" y="-212.32" font-family="Helvetica,sans-Serif" font-size="14.00">(winning iteration</text>
<text text-anchor="middle" x="1528.38" y="-195.07" font-family="Helvetica,sans-Serif" font-size="14.00">hard&#45;linked)</text>
</g>
<!-- stop_r&#45;&gt;best_r -->
<g id="edge9" class="edge">
<title>stop_r&#45;&gt;best_r</title>
<path fill="none" stroke="black" d="M1370.21,-217C1397.06,-217 1423.86,-217 1447.53,-217"/>
<polygon fill="black" stroke="black" points="1447.37,-220.5 1457.37,-217 1447.37,-213.5 1447.37,-220.5"/>
<text text-anchor="middle" x="1415" y="-220.25" font-family="Helvetica,sans-Serif" font-size="10.00">yes</text>
</g>
<!-- suite_o -->
<g id="node11" class="node">
<title>suite_o</title>
<path fill="#ffffff" stroke="black" d="M310,-397.25C310,-397.25 171.75,-397.25 171.75,-397.25 165.75,-397.25 159.75,-391.25 159.75,-385.25 159.75,-385.25 159.75,-366.75 159.75,-366.75 159.75,-360.75 165.75,-354.75 171.75,-354.75 171.75,-354.75 310,-354.75 310,-354.75 316,-354.75 322,-360.75 322,-366.75 322,-366.75 322,-385.25 322,-385.25 322,-391.25 316,-397.25 310,-397.25"/>
<text text-anchor="middle" x="240.88" y="-379.95" font-family="Helvetica,sans-Serif" font-size="14.00">task suite</text>
<text text-anchor="middle" x="240.88" y="-362.7" font-family="Helvetica,sans-Serif" font-size="14.00">(many unseen tasks)</text>
</g>
<!-- run_o -->
<g id="node12" class="node">
<title>run_o</title>
<path fill="#ffffff" stroke="black" d="M656,-357.25C656,-357.25 588.25,-357.25 588.25,-357.25 582.25,-357.25 576.25,-351.25 576.25,-345.25 576.25,-345.25 576.25,-326.75 576.25,-326.75 576.25,-320.75 582.25,-314.75 588.25,-314.75 588.25,-314.75 656,-314.75 656,-314.75 662,-314.75 668,-320.75 668,-326.75 668,-326.75 668,-345.25 668,-345.25 668,-351.25 662,-357.25 656,-357.25"/>
<text text-anchor="middle" x="622.12" y="-339.95" font-family="Helvetica,sans-Serif" font-size="14.00">run each</text>
<text text-anchor="middle" x="622.12" y="-322.7" font-family="Helvetica,sans-Serif" font-size="14.00">collect loss</text>
</g>
<!-- suite_o&#45;&gt;run_o -->
<g id="edge10" class="edge">
<title>suite_o&#45;&gt;run_o</title>
<path fill="none" stroke="black" d="M322.3,-367.52C395.12,-359.84 500.52,-348.72 564.73,-341.95"/>
<polygon fill="black" stroke="black" points="564.75,-345.46 574.33,-340.94 564.02,-338.5 564.75,-345.46"/>
</g>
<!-- mean_o -->
<g id="node13" class="node">
<title>mean_o</title>
<path fill="#ffffff" stroke="black" d="M898.5,-357.25C898.5,-357.25 824,-357.25 824,-357.25 818,-357.25 812,-351.25 812,-345.25 812,-345.25 812,-326.75 812,-326.75 812,-320.75 818,-314.75 824,-314.75 824,-314.75 898.5,-314.75 898.5,-314.75 904.5,-314.75 910.5,-320.75 910.5,-326.75 910.5,-326.75 910.5,-345.25 910.5,-345.25 910.5,-351.25 904.5,-357.25 898.5,-357.25"/>
<text text-anchor="middle" x="861.25" y="-339.95" font-family="Helvetica,sans-Serif" font-size="14.00">mean_loss</text>
<text text-anchor="middle" x="861.25" y="-322.7" font-family="Helvetica,sans-Serif" font-size="14.00">across suite</text>
</g>
<!-- run_o&#45;&gt;mean_o -->
<g id="edge11" class="edge">
<title>run_o&#45;&gt;mean_o</title>
<path fill="none" stroke="black" d="M668.28,-336C705.67,-336 759.1,-336 800.1,-336"/>
<polygon fill="black" stroke="black" points="800.07,-339.5 810.07,-336 800.07,-332.5 800.07,-339.5"/>
</g>
<!-- prop_o -->
<g id="node14" class="node">
<title>prop_o</title>
<path fill="#ffffff" stroke="black" d="M1269.75,-357.25C1269.75,-357.25 1148.75,-357.25 1148.75,-357.25 1142.75,-357.25 1136.75,-351.25 1136.75,-345.25 1136.75,-345.25 1136.75,-326.75 1136.75,-326.75 1136.75,-320.75 1142.75,-314.75 1148.75,-314.75 1148.75,-314.75 1269.75,-314.75 1269.75,-314.75 1275.75,-314.75 1281.75,-320.75 1281.75,-326.75 1281.75,-326.75 1281.75,-345.25 1281.75,-345.25 1281.75,-351.25 1275.75,-357.25 1269.75,-357.25"/>
<text text-anchor="middle" x="1209.25" y="-339.95" font-family="Helvetica,sans-Serif" font-size="14.00">TextGrad proposes</text>
<text text-anchor="middle" x="1209.25" y="-322.7" font-family="Helvetica,sans-Serif" font-size="14.00">skill/prompt edit</text>
</g>
<!-- mean_o&#45;&gt;prop_o -->
<g id="edge12" class="edge">
<title>mean_o&#45;&gt;prop_o</title>
<path fill="none" stroke="black" d="M910.72,-336C966.19,-336 1058,-336 1124.98,-336"/>
<polygon fill="black" stroke="black" points="1124.83,-339.5 1134.83,-336 1124.83,-332.5 1124.83,-339.5"/>
</g>
<!-- apply_o -->
<g id="node15" class="node">
<title>apply_o</title>
<path fill="#ffffff" stroke="black" d="M1569.38,-357.25C1569.38,-357.25 1487.38,-357.25 1487.38,-357.25 1481.38,-357.25 1475.38,-351.25 1475.38,-345.25 1475.38,-345.25 1475.38,-326.75 1475.38,-326.75 1475.38,-320.75 1481.38,-314.75 1487.38,-314.75 1487.38,-314.75 1569.38,-314.75 1569.38,-314.75 1575.38,-314.75 1581.38,-320.75 1581.38,-326.75 1581.38,-326.75 1581.38,-345.25 1581.38,-345.25 1581.38,-351.25 1575.38,-357.25 1569.38,-357.25"/>
<text text-anchor="middle" x="1528.38" y="-339.95" font-family="Helvetica,sans-Serif" font-size="14.00">apply, re&#45;run</text>
<text text-anchor="middle" x="1528.38" y="-322.7" font-family="Helvetica,sans-Serif" font-size="14.00">suite</text>
</g>
<!-- prop_o&#45;&gt;apply_o -->
<g id="edge13" class="edge">
<title>prop_o&#45;&gt;apply_o</title>
<path fill="none" stroke="black" d="M1282.21,-336C1336.75,-336 1411,-336 1463.46,-336"/>
<polygon fill="black" stroke="black" points="1463.45,-339.5 1473.45,-336 1463.45,-332.5 1463.45,-339.5"/>
</g>
<!-- rb_o -->
<g id="node16" class="node">
<title>rb_o</title>
<path fill="#ffffff" stroke="black" d="M1717.45,-374.76C1717.45,-374.76 1646.29,-361.24 1646.29,-361.24 1640.39,-360.12 1640.39,-357.88 1646.29,-356.76 1646.29,-356.76 1717.45,-343.24 1717.45,-343.24 1723.35,-342.12 1735.13,-342.12 1741.03,-343.24 1741.03,-343.24 1812.19,-356.76 1812.19,-356.76 1818.09,-357.88 1818.09,-360.12 1812.19,-361.24 1812.19,-361.24 1741.03,-374.76 1741.03,-374.76 1735.13,-375.88 1723.35,-375.88 1717.45,-374.76"/>
<text text-anchor="middle" x="1729.24" y="-354.32" font-family="Helvetica,sans-Serif" font-size="14.00">regression?</text>
</g>
<!-- apply_o&#45;&gt;rb_o -->
<g id="edge14" class="edge">
<title>apply_o&#45;&gt;rb_o</title>
<path fill="none" stroke="black" d="M1581.62,-342.04C1604.78,-344.72 1632.37,-347.91 1657.34,-350.8"/>
<polygon fill="black" stroke="black" points="1656.77,-354.26 1667.1,-351.93 1657.57,-347.3 1656.77,-354.26"/>
</g>
<!-- rb_o&#45;&gt;suite_o -->
<g id="edge15" class="edge">
<title>rb_o&#45;&gt;suite_o</title>
<path fill="none" stroke="black" d="M1671.35,-366.46C1631.64,-371.02 1577.37,-376 1529.38,-376 621.12,-376 621.12,-376 621.12,-376 522.76,-376 410.03,-376 333.22,-376"/>
<polygon fill="black" stroke="black" points="333.66,-372.5 323.66,-376 333.66,-379.5 333.66,-372.5"/>
<text text-anchor="middle" x="991.5" y="-379.25" font-family="Helvetica,sans-Serif" font-size="10.00">no (next epoch)</text>
</g>
<!-- rollback_o -->
<g id="node17" class="node">
<title>rollback_o</title>
<path fill="#fdeaea" stroke="black" d="M2017.73,-392.25C2017.73,-392.25 1889.23,-392.25 1889.23,-392.25 1883.23,-392.25 1877.23,-386.25 1877.23,-380.25 1877.23,-380.25 1877.23,-361.75 1877.23,-361.75 1877.23,-355.75 1883.23,-349.75 1889.23,-349.75 1889.23,-349.75 2017.73,-349.75 2017.73,-349.75 2023.73,-349.75 2029.73,-355.75 2029.73,-361.75 2029.73,-361.75 2029.73,-380.25 2029.73,-380.25 2029.73,-386.25 2023.73,-392.25 2017.73,-392.25"/>
<text text-anchor="middle" x="1953.48" y="-374.95" font-family="Helvetica,sans-Serif" font-size="14.00">rollback last update</text>
<text text-anchor="middle" x="1953.48" y="-357.7" font-family="Helvetica,sans-Serif" font-size="14.00">halve learning rate</text>
</g>
<!-- rb_o&#45;&gt;rollback_o -->
<g id="edge16" class="edge">
<title>rb_o&#45;&gt;rollback_o</title>
<path fill="none" stroke="black" d="M1805.17,-363.05C1824.54,-364.09 1845.55,-365.23 1865.48,-366.3"/>
<polygon fill="black" stroke="black" points="1865.05,-369.78 1875.23,-366.83 1865.43,-362.79 1865.05,-369.78"/>
<text text-anchor="middle" x="1850.61" y="-368.97" font-family="Helvetica,sans-Serif" font-size="10.00">yes</text>
</g>
<!-- rollback_o&#45;&gt;suite_o -->
<g id="edge17" class="edge">
<title>rollback_o&#45;&gt;suite_o</title>
<path fill="none" stroke="black" d="M1876.86,-383.76C1833.98,-389.92 1779.26,-396 1730.24,-396 621.12,-396 621.12,-396 621.12,-396 522.78,-396 410.28,-389.21 333.51,-383.54"/>
<polygon fill="black" stroke="black" points="334.19,-380.08 323.96,-382.83 333.67,-387.06 334.19,-380.08"/>
</g>
<!-- step_c -->
<g id="node18" class="node">
<title>step_c</title>
<path fill="#ffffff" stroke="black" d="M349,-511.88C349,-511.88 132.75,-511.88 132.75,-511.88 126.75,-511.88 120.75,-505.88 120.75,-499.88 120.75,-499.88 120.75,-464.12 120.75,-464.12 120.75,-458.12 126.75,-452.12 132.75,-452.12 132.75,-452.12 349,-452.12 349,-452.12 355,-452.12 361,-458.12 361,-464.12 361,-464.12 361,-499.88 361,-499.88 361,-505.88 355,-511.88 349,-511.88"/>
<text text-anchor="middle" x="240.88" y="-494.57" font-family="Helvetica,sans-Serif" font-size="14.00">propose next</text>
<text text-anchor="middle" x="240.88" y="-477.32" font-family="Helvetica,sans-Serif" font-size="14.00">reasoning step</text>
<text text-anchor="middle" x="240.88" y="-460.07" font-family="Helvetica,sans-Serif" font-size="14.00">(thesis + predicted_correctness)</text>
</g>
<!-- anti_c -->
<g id="node19" class="node">
<title>anti_c</title>
<path fill="#ffffff" stroke="black" d="M670.62,-511.88C670.62,-511.88 573.62,-511.88 573.62,-511.88 567.62,-511.88 561.62,-505.88 561.62,-499.88 561.62,-499.88 561.62,-464.12 561.62,-464.12 561.62,-458.12 567.62,-452.12 573.62,-452.12 573.62,-452.12 670.62,-452.12 670.62,-452.12 676.62,-452.12 682.62,-458.12 682.62,-464.12 682.62,-464.12 682.62,-499.88 682.62,-499.88 682.62,-505.88 676.62,-511.88 670.62,-511.88"/>
<text text-anchor="middle" x="622.12" y="-494.57" font-family="Helvetica,sans-Serif" font-size="14.00">antithesis</text>
<text text-anchor="middle" x="622.12" y="-477.32" font-family="Helvetica,sans-Serif" font-size="14.00">(primers from</text>
<text text-anchor="middle" x="622.12" y="-460.07" font-family="Helvetica,sans-Serif" font-size="14.00">chain memory)</text>
</g>
<!-- step_c&#45;&gt;anti_c -->
<g id="edge18" class="edge">
<title>step_c&#45;&gt;anti_c</title>
<path fill="none" stroke="black" d="M361.35,-482C423.35,-482 496.99,-482 550.01,-482"/>
<polygon fill="black" stroke="black" points="549.82,-485.5 559.82,-482 549.82,-478.5 549.82,-485.5"/>
</g>
<!-- synth_c -->
<g id="node20" class="node">
<title>synth_c</title>
<path fill="#ffffff" stroke="black" d="M907.88,-508.25C907.88,-508.25 814.62,-508.25 814.62,-508.25 808.62,-508.25 802.62,-502.25 802.62,-496.25 802.62,-496.25 802.62,-477.75 802.62,-477.75 802.62,-471.75 808.62,-465.75 814.62,-465.75 814.62,-465.75 907.88,-465.75 907.88,-465.75 913.88,-465.75 919.88,-471.75 919.88,-477.75 919.88,-477.75 919.88,-496.25 919.88,-496.25 919.88,-502.25 913.88,-508.25 907.88,-508.25"/>
<text text-anchor="middle" x="861.25" y="-490.95" font-family="Helvetica,sans-Serif" font-size="14.00">synthesis</text>
<text text-anchor="middle" x="861.25" y="-473.7" font-family="Helvetica,sans-Serif" font-size="14.00">E[step correct]</text>
</g>
<!-- anti_c&#45;&gt;synth_c -->
<g id="edge19" class="edge">
<title>anti_c&#45;&gt;synth_c</title>
<path fill="none" stroke="black" d="M682.96,-483.26C715.87,-483.96 756.86,-484.82 791.14,-485.54"/>
<polygon fill="black" stroke="black" points="790.89,-489.04 800.97,-485.75 791.04,-482.04 790.89,-489.04"/>
</g>
<!-- dec_c -->
<g id="node21" class="node">
<title>dec_c</title>
<path fill="#ffffff" stroke="black" d="M1198,-567.59C1198,-567.59 1059,-516.16 1059,-516.16 1053.38,-514.08 1053.38,-509.92 1059,-507.84 1059,-507.84 1198,-456.41 1198,-456.41 1203.62,-454.33 1214.88,-454.33 1220.5,-456.41 1220.5,-456.41 1359.5,-507.84 1359.5,-507.84 1365.12,-509.92 1365.12,-514.08 1359.5,-516.16 1359.5,-516.16 1220.5,-567.59 1220.5,-567.59 1214.88,-569.67 1203.62,-569.67 1198,-567.59"/>
<text text-anchor="middle" x="1209.25" y="-524.58" font-family="Helvetica,sans-Serif" font-size="14.00">commit ≥ threshold?</text>
<text text-anchor="middle" x="1209.25" y="-507.32" font-family="Helvetica,sans-Serif" font-size="14.00">revise?</text>
<text text-anchor="middle" x="1209.25" y="-490.07" font-family="Helvetica,sans-Serif" font-size="14.00">backtrack?</text>
</g>
<!-- synth_c&#45;&gt;dec_c -->
<g id="edge20" class="edge">
<title>synth_c&#45;&gt;dec_c</title>
<path fill="none" stroke="black" d="M920.16,-491.18C958.97,-493.99 1011.93,-497.81 1061.85,-501.42"/>
<polygon fill="black" stroke="black" points="1061.38,-504.9 1071.61,-502.13 1061.89,-497.92 1061.38,-504.9"/>
</g>
<!-- dec_c&#45;&gt;step_c -->
<g id="edge21" class="edge">
<title>dec_c&#45;&gt;step_c</title>
<path fill="none" stroke="black" d="M1054.13,-514.85C1015.32,-515.56 973.76,-516.31 935.25,-517 759.05,-520.15 714.61,-532.5 538.75,-521 484.14,-517.43 424.24,-510.2 372.64,-502.92"/>
<polygon fill="black" stroke="black" points="373.31,-499.48 362.91,-501.54 372.32,-506.41 373.31,-499.48"/>
<text text-anchor="middle" x="746.38" y="-528.18" font-family="Helvetica,sans-Serif" font-size="10.00">next step</text>
</g>
<!-- verify_c -->
<g id="node22" class="node">
<title>verify_c</title>
<path fill="#e6fbe6" stroke="black" d="M1569,-541.88C1569,-541.88 1487.75,-541.88 1487.75,-541.88 1481.75,-541.88 1475.75,-535.88 1475.75,-529.88 1475.75,-529.88 1475.75,-494.12 1475.75,-494.12 1475.75,-488.12 1481.75,-482.12 1487.75,-482.12 1487.75,-482.12 1569,-482.12 1569,-482.12 1575,-482.12 1581,-488.12 1581,-494.12 1581,-494.12 1581,-529.88 1581,-529.88 1581,-535.88 1575,-541.88 1569,-541.88"/>
<text text-anchor="middle" x="1528.38" y="-524.58" font-family="Helvetica,sans-Serif" font-size="14.00">ground&#45;truth</text>
<text text-anchor="middle" x="1528.38" y="-507.32" font-family="Helvetica,sans-Serif" font-size="14.00">verification</text>
<text text-anchor="middle" x="1528.38" y="-490.07" font-family="Helvetica,sans-Serif" font-size="14.00">+ calibration</text>
</g>
<!-- dec_c&#45;&gt;verify_c -->
<g id="edge22" class="edge">
<title>dec_c&#45;&gt;verify_c</title>
<path fill="none" stroke="black" d="M1372.06,-512C1404.79,-512 1437.32,-512 1464.1,-512"/>
<polygon fill="black" stroke="black" points="1464.08,-515.5 1474.08,-512 1464.08,-508.5 1464.08,-515.5"/>
<text text-anchor="middle" x="1415" y="-515.25" font-family="Helvetica,sans-Serif" font-size="10.00">chain ends</text>
</g>
<!-- budget_c -->
<g id="node23" class="node">
<title>budget_c</title>
<polygon fill="#fff9e6" stroke="#d4a017" points="314.5,-572.25 161.25,-572.25 161.25,-529.75 320.5,-529.75 320.5,-566.25 314.5,-572.25"/>
<polyline fill="none" stroke="#d4a017" points="314.5,-572.25 314.5,-566.25"/>
<polyline fill="none" stroke="#d4a017" points="320.5,-566.25 314.5,-566.25"/>
<text text-anchor="middle" x="240.88" y="-554.95" font-family="Helvetica,sans-Serif" font-size="14.00">per&#45;chain max_steps</text>
<text text-anchor="middle" x="240.88" y="-537.7" font-family="Helvetica,sans-Serif" font-size="14.00">backtracks ≤ 3</text>
</g>
<!-- note_combined -->
<g id="node24" class="node">
<title>note_combined</title>
<polygon fill="#fff9e6" stroke="#d4a017" points="475.75,-697 0,-697 0,-619 481.75,-619 481.75,-691 475.75,-697"/>
<polyline fill="none" stroke="#d4a017" points="475.75,-697 475.75,-691"/>
<polyline fill="none" stroke="#d4a017" points="481.75,-691 475.75,-691"/>
<text text-anchor="start" x="96.12" y="-680.7" font-family="Helvetica,sans-Serif" font-weight="bold" font-size="14.00">Rule:</text>
<text text-anchor="start" x="135.88" y="-680.7" font-family="Helvetica,sans-Serif" font-size="14.00"> treat the four axes as independent.</text>
<text text-anchor="start" x="50" y="-666.7" font-family="Helvetica,sans-Serif" font-size="14.00">Inner&#45;loop edits on a weak deliverable are over&#45;editing.</text>
<text text-anchor="start" x="45.5" y="-652.7" font-family="Helvetica,sans-Serif" font-size="14.00">Refinement edits on buggy code polish a broken output.</text>
<text text-anchor="start" x="48.12" y="-638.7" font-family="Helvetica,sans-Serif" font-size="14.00">Outer&#45;loop edits without a suite are anecdotal skill drift.</text>
<text text-anchor="start" x="8" y="-624.7" font-family="Helvetica,sans-Serif" font-size="14.00">CoT edits without ground&#45;truth verification are plausibility&#45;chasing.</text>
</g>
</g>
</svg>
