<?xml version="1.0" encoding="UTF-8" standalone="no"?>
<!DOCTYPE svg PUBLIC "-//W3C//DTD SVG 1.1//EN"
 "http://www.w3.org/Graphics/SVG/1.1/DTD/svg11.dtd">
<!-- Generated by graphviz version 12.2.1 (0)
 -->
<!-- Title: four_axes_gradient_descent Pages: 1 -->
<svg width="778pt" height="677pt"
 viewBox="0.00 0.00 778.00 677.25" xmlns="http://www.w3.org/2000/svg" xmlns:xlink="http://www.w3.org/1999/xlink">
<g id="graph0" class="graph" transform="scale(1 1) rotate(0) translate(4 673.25)">
<title>four_axes_gradient_descent</title>
<polygon fill="white" stroke="none" points="-4,4 -4,-673.25 774,-673.25 774,4 -4,4"/>
<text text-anchor="start" x="114.25" y="-652.95" font-family="Helvetica,sans-Serif" font-weight="bold" font-size="14.00">Gradient Descent for Agents — four parameter spaces, one discipline</text>
<text text-anchor="start" x="153.62" y="-642.75" font-family="Helvetica,sans-Serif" font-size="10.00">LDD as the optimizer navigating code (θ), deliverable (y), method (m), and reasoning chain (t).</text>
<g id="clust1" class="cluster">
<title>cluster_scheduler</title>
<path fill="#fff9e6" stroke="#d4a017" d="M190,-545.25C190,-545.25 582,-545.25 582,-545.25 588,-545.25 594,-551.25 594,-557.25 594,-557.25 594,-617.25 594,-617.25 594,-623.25 588,-629.25 582,-629.25 582,-629.25 190,-629.25 190,-629.25 184,-629.25 178,-623.25 178,-617.25 178,-617.25 178,-557.25 178,-557.25 178,-551.25 184,-545.25 190,-545.25"/>
<text text-anchor="start" x="326" y="-615.8" font-family="Helvetica,sans-Serif" font-weight="bold" font-size="11.00">step&#45;size controller</text>
<text text-anchor="start" x="280.62" y="-606.7" font-family="Helvetica,sans-Serif" font-size="9.00">picked per task, before any gradient descends</text>
</g>
<g id="clust2" class="cluster">
<title>cluster_inner</title>
<path fill="#e8f4fd" stroke="#1f77b4" d="M20,-137.75C20,-137.75 164,-137.75 164,-137.75 170,-137.75 176,-143.75 176,-149.75 176,-149.75 176,-492.75 176,-492.75 176,-498.75 170,-504.75 164,-504.75 164,-504.75 20,-504.75 20,-504.75 14,-504.75 8,-498.75 8,-492.75 8,-492.75 8,-149.75 8,-149.75 8,-143.75 14,-137.75 20,-137.75"/>
<text text-anchor="start" x="26" y="-491.3" font-family="Helvetica,sans-Serif" font-weight="bold" font-size="11.00">Inner loop — ∂L/∂code</text>
<text text-anchor="start" x="27.88" y="-482.2" font-family="Helvetica,sans-Serif" font-size="9.00">θ = code of the current task</text>
</g>
<g id="clust3" class="cluster">
<title>cluster_refine</title>
<path fill="#fef4ea" stroke="#ff7f0e" d="M196,-134.5C196,-134.5 370,-134.5 370,-134.5 376,-134.5 382,-140.5 382,-146.5 382,-146.5 382,-492.75 382,-492.75 382,-498.75 376,-504.75 370,-504.75 370,-504.75 196,-504.75 196,-504.75 190,-504.75 184,-498.75 184,-492.75 184,-492.75 184,-146.5 184,-146.5 184,-140.5 190,-134.5 196,-134.5"/>
<text text-anchor="start" x="191.88" y="-491.3" font-family="Helvetica,sans-Serif" font-weight="bold" font-size="11.00">Refinement loop — ∂L/∂output</text>
<text text-anchor="start" x="204.62" y="-482.2" font-family="Helvetica,sans-Serif" font-size="9.00">y = deliverable of a completed run</text>
</g>
<g id="clust4" class="cluster">
<title>cluster_outer</title>
<path fill="#f5ebfd" stroke="#9467bd" d="M402,-134.5C402,-134.5 562,-134.5 562,-134.5 568,-134.5 574,-140.5 574,-146.5 574,-146.5 574,-492.75 574,-492.75 574,-498.75 568,-504.75 562,-504.75 562,-504.75 402,-504.75 402,-504.75 396,-504.75 390,-498.75 390,-492.75 390,-492.75 390,-146.5 390,-146.5 390,-140.5 396,-134.5 402,-134.5"/>
<text text-anchor="start" x="405.88" y="-491.3" font-family="Helvetica,sans-Serif" font-weight="bold" font-size="11.00">Outer loop — ∂L/∂method</text>
<text text-anchor="start" x="416.38" y="-482.2" font-family="Helvetica,sans-Serif" font-size="9.00">m = skills / prompts / rubrics</text>
</g>
<g id="clust5" class="cluster">
<title>cluster_cot</title>
<path fill="#e6fbe6" stroke="#2ca02c" d="M594,-134.5C594,-134.5 750,-134.5 750,-134.5 756,-134.5 762,-140.5 762,-146.5 762,-146.5 762,-492.75 762,-492.75 762,-498.75 756,-504.75 750,-504.75 750,-504.75 594,-504.75 594,-504.75 588,-504.75 582,-498.75 582,-492.75 582,-492.75 582,-146.5 582,-146.5 582,-140.5 588,-134.5 594,-134.5"/>
<text text-anchor="start" x="600.75" y="-491.3" font-family="Helvetica,sans-Serif" font-weight="bold" font-size="11.00">CoT loop — ∂L/∂thought</text>
<text text-anchor="start" x="627.38" y="-482.2" font-family="Helvetica,sans-Serif" font-size="9.00">t = reasoning chain</text>
</g>
<g id="clust6" class="cluster">
<title>cluster_regularizer</title>
<path fill="#fdeaea" stroke="#d62728" d="M205,-8C205,-8 591,-8 591,-8 597,-8 603,-14 603,-20 603,-20 603,-93.25 603,-93.25 603,-99.25 597,-105.25 591,-105.25 591,-105.25 205,-105.25 205,-105.25 199,-105.25 193,-99.25 193,-93.25 193,-93.25 193,-20 193,-20 193,-14 199,-8 205,-8"/>
<text text-anchor="start" x="302" y="-91.8" font-family="Helvetica,sans-Serif" font-weight="bold" font-size="11.00">regularizer (applies on all four)</text>
</g>
<!-- levels -->
<g id="node1" class="node">
<title>levels</title>
<path fill="#ffffff" stroke="black" d="M573.62,-593.25C573.62,-593.25 198.38,-593.25 198.38,-593.25 192.38,-593.25 186.38,-587.25 186.38,-581.25 186.38,-581.25 186.38,-565.25 186.38,-565.25 186.38,-559.25 192.38,-553.25 198.38,-553.25 198.38,-553.25 573.62,-553.25 573.62,-553.25 579.62,-553.25 585.62,-559.25 585.62,-565.25 585.62,-565.25 585.62,-581.25 585.62,-581.25 585.62,-587.25 579.62,-593.25 573.62,-593.25"/>
<text text-anchor="start" x="328.25" y="-576.95" font-family="Helvetica,sans-Serif" font-weight="bold" font-size="14.00">thinking&#45;levels</text>
<text text-anchor="start" x="194.38" y="-567.7" font-family="Helvetica,sans-Serif" font-size="9.00">9&#45;signal scorer → L0 reflex · L1 diagnostic · L2 deliberate · L3 structural · L4 method</text>
<text text-anchor="start" x="243.5" y="-558.7" font-family="Helvetica,sans-Serif" font-size="9.00">sets k_max, reproduce_runs, max_refinement, mode, skill floor</text>
</g>
<!-- inner_param -->
<g id="node2" class="node">
<title>inner_param</title>
<path fill="#ffffff" stroke="black" d="M147,-468.75C147,-468.75 117,-468.75 117,-468.75 111,-468.75 105,-462.75 105,-456.75 105,-456.75 105,-444.75 105,-444.75 105,-438.75 111,-432.75 117,-432.75 117,-432.75 147,-432.75 147,-432.75 153,-432.75 159,-438.75 159,-444.75 159,-444.75 159,-456.75 159,-456.75 159,-462.75 153,-468.75 147,-468.75"/>
<text text-anchor="start" x="127.12" y="-452.45" font-family="Helvetica,sans-Serif" font-weight="bold" font-size="14.00">θ</text>
<text text-anchor="start" x="115.5" y="-438.45" font-family="Helvetica,sans-Serif" font-size="14.00">code</text>
</g>
<!-- levels&#45;&gt;inner_param -->
<g id="edge13" class="edge">
<title>levels&#45;&gt;inner_param</title>
<path fill="none" stroke="#d4a017" d="M292.98,-552.77C255.89,-542.28 214.01,-526.83 180,-504.75 169.11,-497.68 159.11,-487.54 151.08,-478.02"/>
<polygon fill="#d4a017" stroke="#d4a017" points="153.96,-476.01 144.98,-470.39 148.49,-480.38 153.96,-476.01"/>
<text text-anchor="middle" x="252.22" y="-526.7" font-family="Helvetica,sans-Serif" font-size="9.00">L0..L4</text>
<text text-anchor="middle" x="252.22" y="-515.45" font-family="Helvetica,sans-Serif" font-size="9.00">preset</text>
</g>
<!-- refine_param -->
<g id="node6" class="node">
<title>refine_param</title>
<path fill="#ffffff" stroke="black" d="M354.25,-468.75C354.25,-468.75 285.75,-468.75 285.75,-468.75 279.75,-468.75 273.75,-462.75 273.75,-456.75 273.75,-456.75 273.75,-444.75 273.75,-444.75 273.75,-438.75 279.75,-432.75 285.75,-432.75 285.75,-432.75 354.25,-432.75 354.25,-432.75 360.25,-432.75 366.25,-438.75 366.25,-444.75 366.25,-444.75 366.25,-456.75 366.25,-456.75 366.25,-462.75 360.25,-468.75 354.25,-468.75"/>
<text text-anchor="start" x="315.5" y="-452.45" font-family="Helvetica,sans-Serif" font-weight="bold" font-size="14.00">y</text>
<text text-anchor="start" x="281.75" y="-438.45" font-family="Helvetica,sans-Serif" font-size="14.00">deliverable</text>
</g>
<!-- levels&#45;&gt;refine_param -->
<g id="edge14" class="edge">
<title>levels&#45;&gt;refine_param</title>
<path fill="none" stroke="#d4a017" d="M375.4,-552.89C364.45,-532.9 347.28,-501.55 334.95,-479.05"/>
<polygon fill="#d4a017" stroke="#d4a017" points="338.11,-477.52 330.23,-470.43 331.97,-480.89 338.11,-477.52"/>
</g>
<!-- outer_param -->
<g id="node10" class="node">
<title>outer_param</title>
<path fill="#ffffff" stroke="black" d="M474.62,-468.75C474.62,-468.75 429.38,-468.75 429.38,-468.75 423.38,-468.75 417.38,-462.75 417.38,-456.75 417.38,-456.75 417.38,-444.75 417.38,-444.75 417.38,-438.75 423.38,-432.75 429.38,-432.75 429.38,-432.75 474.62,-432.75 474.62,-432.75 480.62,-432.75 486.62,-438.75 486.62,-444.75 486.62,-444.75 486.62,-456.75 486.62,-456.75 486.62,-462.75 480.62,-468.75 474.62,-468.75"/>
<text text-anchor="start" x="444.88" y="-452.45" font-family="Helvetica,sans-Serif" font-weight="bold" font-size="14.00">m</text>
<text text-anchor="start" x="425.38" y="-438.45" font-family="Helvetica,sans-Serif" font-size="14.00">method</text>
</g>
<!-- levels&#45;&gt;outer_param -->
<g id="edge15" class="edge">
<title>levels&#45;&gt;outer_param</title>
<path fill="none" stroke="#d4a017" d="M396.6,-552.89C407.55,-532.9 424.72,-501.55 437.05,-479.05"/>
<polygon fill="#d4a017" stroke="#d4a017" points="440.03,-480.89 441.77,-470.43 433.89,-477.52 440.03,-480.89"/>
</g>
<!-- cot_param -->
<g id="node14" class="node">
<title>cot_param</title>
<path fill="#ffffff" stroke="black" d="M671.38,-468.75C671.38,-468.75 624.62,-468.75 624.62,-468.75 618.62,-468.75 612.62,-462.75 612.62,-456.75 612.62,-456.75 612.62,-444.75 612.62,-444.75 612.62,-438.75 618.62,-432.75 624.62,-432.75 624.62,-432.75 671.38,-432.75 671.38,-432.75 677.38,-432.75 683.38,-438.75 683.38,-444.75 683.38,-444.75 683.38,-456.75 683.38,-456.75 683.38,-462.75 677.38,-468.75 671.38,-468.75"/>
<text text-anchor="start" x="644.62" y="-452.45" font-family="Helvetica,sans-Serif" font-weight="bold" font-size="14.00">t</text>
<text text-anchor="start" x="620.62" y="-438.45" font-family="Helvetica,sans-Serif" font-size="14.00">thought</text>
</g>
<!-- levels&#45;&gt;cot_param -->
<g id="edge16" class="edge">
<title>levels&#45;&gt;cot_param</title>
<path fill="none" stroke="#d4a017" d="M457.99,-552.76C495.01,-541.31 540.18,-525.07 578,-504.75 592.66,-496.87 607.55,-486.08 619.8,-476.28"/>
<polygon fill="#d4a017" stroke="#d4a017" points="621.93,-479.06 627.44,-470.01 617.49,-473.65 621.93,-479.06"/>
</g>
<!-- inner_loss -->
<g id="node3" class="node">
<title>inner_loss</title>
<path fill="#ffffff" stroke="black" d="M152.25,-395.75C152.25,-395.75 53.75,-395.75 53.75,-395.75 47.75,-395.75 41.75,-389.75 41.75,-383.75 41.75,-383.75 41.75,-348 41.75,-348 41.75,-342 47.75,-336 53.75,-336 53.75,-336 152.25,-336 152.25,-336 158.25,-336 164.25,-342 164.25,-348 164.25,-348 164.25,-383.75 164.25,-383.75 164.25,-389.75 158.25,-395.75 152.25,-395.75"/>
<text text-anchor="middle" x="103" y="-378.45" font-family="Helvetica,sans-Serif" font-size="14.00">L = failing test,</text>
<text text-anchor="middle" x="103" y="-361.2" font-family="Helvetica,sans-Serif" font-size="14.00">gate rejection,</text>
<text text-anchor="middle" x="103" y="-343.95" font-family="Helvetica,sans-Serif" font-size="14.00">rubric violation</text>
</g>
<!-- inner_param&#45;&gt;inner_loss -->
<!-- inner_grad -->
<g id="node4" class="node">
<title>inner_grad</title>
<path fill="#ffffff" stroke="black" d="M155.5,-290.38C155.5,-290.38 28.5,-290.38 28.5,-290.38 22.5,-290.38 16.5,-284.38 16.5,-278.38 16.5,-278.38 16.5,-242.62 16.5,-242.62 16.5,-236.62 22.5,-230.62 28.5,-230.62 28.5,-230.62 155.5,-230.62 155.5,-230.62 161.5,-230.62 167.5,-236.62 167.5,-242.62 167.5,-242.62 167.5,-278.38 167.5,-278.38 167.5,-284.38 161.5,-290.38 155.5,-290.38"/>
<text text-anchor="middle" x="92" y="-273.07" font-family="Helvetica,sans-Serif" font-size="14.00">∇L via</text>
<text text-anchor="middle" x="92" y="-255.82" font-family="Helvetica,sans-Serif" font-size="14.00">root&#45;cause&#45;by&#45;layer</text>
<text text-anchor="middle" x="92" y="-238.57" font-family="Helvetica,sans-Serif" font-size="14.00">(5&#45;layer ladder)</text>
</g>
<!-- inner_loss&#45;&gt;inner_grad -->
<!-- inner_budget -->
<g id="node5" class="node">
<title>inner_budget</title>
<path fill="#ffffff" stroke="black" d="M141.62,-181.75C141.62,-181.75 72.38,-181.75 72.38,-181.75 66.38,-181.75 60.38,-175.75 60.38,-169.75 60.38,-169.75 60.38,-157.75 60.38,-157.75 60.38,-151.75 66.38,-145.75 72.38,-145.75 72.38,-145.75 141.62,-145.75 141.62,-145.75 147.62,-145.75 153.62,-151.75 153.62,-157.75 153.62,-157.75 153.62,-169.75 153.62,-169.75 153.62,-175.75 147.62,-181.75 141.62,-181.75"/>
<text text-anchor="middle" x="107" y="-159.07" font-family="Helvetica,sans-Serif" font-size="14.00">K_MAX = 5</text>
</g>
<!-- inner_grad&#45;&gt;inner_budget -->
<!-- reg -->
<g id="node18" class="node">
<title>reg</title>
<path fill="#ffffff" stroke="black" d="M582.62,-75.75C582.62,-75.75 213.38,-75.75 213.38,-75.75 207.38,-75.75 201.38,-69.75 201.38,-63.75 201.38,-63.75 201.38,-28 201.38,-28 201.38,-22 207.38,-16 213.38,-16 213.38,-16 582.62,-16 582.62,-16 588.62,-16 594.62,-22 594.62,-28 594.62,-28 594.62,-63.75 594.62,-63.75 594.62,-69.75 588.62,-75.75 582.62,-75.75"/>
<text text-anchor="middle" x="398" y="-58.45" font-family="Helvetica,sans-Serif" font-size="14.00">contracts · layer boundaries · invariants · docs synced</text>
<text text-anchor="middle" x="398" y="-41.2" font-family="Helvetica,sans-Serif" font-size="14.00">enforced by docs&#45;as&#45;definition&#45;of&#45;done (per commit)</text>
<text text-anchor="middle" x="398" y="-23.95" font-family="Helvetica,sans-Serif" font-size="14.00">and drift&#45;detection (periodic)</text>
</g>
<!-- inner_budget&#45;&gt;reg -->
<g id="edge17" class="edge">
<title>inner_budget&#45;&gt;reg</title>
<path fill="none" stroke="#888888" stroke-dasharray="5,2" d="M150.88,-145.28C193.9,-128.15 260.59,-101.59 313.85,-80.38"/>
<polygon fill="#888888" stroke="#888888" points="314.91,-83.73 322.91,-76.78 312.32,-77.22 314.91,-83.73"/>
<text text-anchor="middle" x="237.69" y="-115.95" font-family="Helvetica,sans-Serif" font-size="9.00">close</text>
</g>
<!-- refine_loss -->
<g id="node7" class="node">
<title>refine_loss</title>
<path fill="#ffffff" stroke="black" d="M362.25,-395.75C362.25,-395.75 233.75,-395.75 233.75,-395.75 227.75,-395.75 221.75,-389.75 221.75,-383.75 221.75,-383.75 221.75,-348 221.75,-348 221.75,-342 227.75,-336 233.75,-336 233.75,-336 362.25,-336 362.25,-336 368.25,-336 374.25,-342 374.25,-348 374.25,-348 374.25,-383.75 374.25,-383.75 374.25,-389.75 368.25,-395.75 362.25,-395.75"/>
<text text-anchor="middle" x="298" y="-378.45" font-family="Helvetica,sans-Serif" font-size="14.00">L = critique defects</text>
<text text-anchor="middle" x="298" y="-361.2" font-family="Helvetica,sans-Serif" font-size="14.00">+ gate rejections</text>
<text text-anchor="middle" x="298" y="-343.95" font-family="Helvetica,sans-Serif" font-size="14.00">+ eval deltas</text>
</g>
<!-- refine_param&#45;&gt;refine_loss -->
<!-- refine_grad -->
<g id="node8" class="node">
<title>refine_grad</title>
<path fill="#ffffff" stroke="black" d="M353,-290.38C353,-290.38 259,-290.38 259,-290.38 253,-290.38 247,-284.38 247,-278.38 247,-278.38 247,-242.62 247,-242.62 247,-236.62 253,-230.62 259,-230.62 259,-230.62 353,-230.62 353,-230.62 359,-230.62 365,-236.62 365,-242.62 365,-242.62 365,-278.38 365,-278.38 365,-284.38 359,-290.38 353,-290.38"/>
<text text-anchor="middle" x="306" y="-273.07" font-family="Helvetica,sans-Serif" font-size="14.00">∇L = derived</text>
<text text-anchor="middle" x="306" y="-255.82" font-family="Helvetica,sans-Serif" font-size="14.00">defect list</text>
<text text-anchor="middle" x="306" y="-238.57" font-family="Helvetica,sans-Serif" font-size="14.00">(not imagined)</text>
</g>
<!-- refine_loss&#45;&gt;refine_grad -->
<!-- refine_budget -->
<g id="node9" class="node">
<title>refine_budget</title>
<path fill="#ffffff" stroke="black" d="M361,-185C361,-185 261,-185 261,-185 255,-185 249,-179 249,-173 249,-173 249,-154.5 249,-154.5 249,-148.5 255,-142.5 261,-142.5 261,-142.5 361,-142.5 361,-142.5 367,-142.5 373,-148.5 373,-154.5 373,-154.5 373,-173 373,-173 373,-179 367,-185 361,-185"/>
<text text-anchor="middle" x="311" y="-167.7" font-family="Helvetica,sans-Serif" font-size="14.00">halve per iter,</text>
<text text-anchor="middle" x="311" y="-150.45" font-family="Helvetica,sans-Serif" font-size="14.00">stop on plateau</text>
</g>
<!-- refine_grad&#45;&gt;refine_budget -->
<!-- refine_budget&#45;&gt;reg -->
<g id="edge18" class="edge">
<title>refine_budget&#45;&gt;reg</title>
<path fill="none" stroke="#888888" stroke-dasharray="5,2" d="M326.55,-142.03C338.4,-126.26 355.04,-104.1 369.28,-85.13"/>
<polygon fill="#888888" stroke="#888888" points="371.93,-87.43 375.14,-77.33 366.33,-83.22 371.93,-87.43"/>
</g>
<!-- outer_loss -->
<g id="node11" class="node">
<title>outer_loss</title>
<path fill="#ffffff" stroke="black" d="M539,-387.12C539,-387.12 415,-387.12 415,-387.12 409,-387.12 403,-381.12 403,-375.12 403,-375.12 403,-356.62 403,-356.62 403,-350.62 409,-344.62 415,-344.62 415,-344.62 539,-344.62 539,-344.62 545,-344.62 551,-350.62 551,-356.62 551,-356.62 551,-375.12 551,-375.12 551,-381.12 545,-387.12 539,-387.12"/>
<text text-anchor="middle" x="477" y="-369.82" font-family="Helvetica,sans-Serif" font-size="14.00">L = mean_loss</text>
<text text-anchor="middle" x="477" y="-352.57" font-family="Helvetica,sans-Serif" font-size="14.00">across N&#45;task suite</text>
</g>
<!-- outer_param&#45;&gt;outer_loss -->
<!-- outer_grad -->
<g id="node12" class="node">
<title>outer_grad</title>
<path fill="#ffffff" stroke="black" d="M537.12,-290.38C537.12,-290.38 422.88,-290.38 422.88,-290.38 416.88,-290.38 410.88,-284.38 410.88,-278.38 410.88,-278.38 410.88,-242.62 410.88,-242.62 410.88,-236.62 416.88,-230.62 422.88,-230.62 422.88,-230.62 537.12,-230.62 537.12,-230.62 543.12,-230.62 549.12,-236.62 549.12,-242.62 549.12,-242.62 549.12,-278.38 549.12,-278.38 549.12,-284.38 543.12,-290.38 537.12,-290.38"/>
<text text-anchor="middle" x="480" y="-273.07" font-family="Helvetica,sans-Serif" font-size="14.00">∇L via</text>
<text text-anchor="middle" x="480" y="-255.82" font-family="Helvetica,sans-Serif" font-size="14.00">method&#45;evolution</text>
<text text-anchor="middle" x="480" y="-238.57" font-family="Helvetica,sans-Serif" font-size="14.00">+ drift&#45;detection</text>
</g>
<!-- outer_loss&#45;&gt;outer_grad -->
<!-- outer_budget -->
<g id="node13" class="node">
<title>outer_budget</title>
<path fill="#ffffff" stroke="black" d="M554.12,-185C554.12,-185 409.88,-185 409.88,-185 403.88,-185 397.88,-179 397.88,-173 397.88,-173 397.88,-154.5 397.88,-154.5 397.88,-148.5 403.88,-142.5 409.88,-142.5 409.88,-142.5 554.12,-142.5 554.12,-142.5 560.12,-142.5 566.12,-148.5 566.12,-154.5 566.12,-154.5 566.12,-173 566.12,-173 566.12,-179 560.12,-185 554.12,-185"/>
<text text-anchor="middle" x="482" y="-167.7" font-family="Helvetica,sans-Serif" font-size="14.00">N epochs,</text>
<text text-anchor="middle" x="482" y="-150.45" font-family="Helvetica,sans-Serif" font-size="14.00">rollback on regression</text>
</g>
<!-- outer_grad&#45;&gt;outer_budget -->
<!-- outer_budget&#45;&gt;reg -->
<g id="edge19" class="edge">
<title>outer_budget&#45;&gt;reg</title>
<path fill="none" stroke="#888888" stroke-dasharray="5,2" d="M466.98,-142.03C455.6,-126.33 439.63,-104.3 425.92,-85.39"/>
<polygon fill="#888888" stroke="#888888" points="428.79,-83.39 420.09,-77.34 423.12,-87.49 428.79,-83.39"/>
</g>
<!-- cot_loss -->
<g id="node15" class="node">
<title>cot_loss</title>
<path fill="#ffffff" stroke="black" d="M741.5,-395.75C741.5,-395.75 602.5,-395.75 602.5,-395.75 596.5,-395.75 590.5,-389.75 590.5,-383.75 590.5,-383.75 590.5,-348 590.5,-348 590.5,-342 596.5,-336 602.5,-336 602.5,-336 741.5,-336 741.5,-336 747.5,-336 753.5,-342 753.5,-348 753.5,-348 753.5,-383.75 753.5,-383.75 753.5,-389.75 747.5,-395.75 741.5,-395.75"/>
<text text-anchor="middle" x="672" y="-378.45" font-family="Helvetica,sans-Serif" font-size="14.00">L = per&#45;step dialectic</text>
<text text-anchor="middle" x="672" y="-361.2" font-family="Helvetica,sans-Serif" font-size="14.00">+ ground&#45;truth</text>
<text text-anchor="middle" x="672" y="-343.95" font-family="Helvetica,sans-Serif" font-size="14.00">verification</text>
</g>
<!-- cot_param&#45;&gt;cot_loss -->
<!-- cot_grad -->
<g id="node16" class="node">
<title>cot_grad</title>
<path fill="#ffffff" stroke="black" d="M735.88,-299C735.88,-299 608.12,-299 608.12,-299 602.12,-299 596.12,-293 596.12,-287 596.12,-287 596.12,-234 596.12,-234 596.12,-228 602.12,-222 608.12,-222 608.12,-222 735.88,-222 735.88,-222 741.88,-222 747.88,-228 747.88,-234 747.88,-234 747.88,-287 747.88,-287 747.88,-293 741.88,-299 735.88,-299"/>
<text text-anchor="middle" x="672" y="-281.7" font-family="Helvetica,sans-Serif" font-size="14.00">∇L via</text>
<text text-anchor="middle" x="672" y="-264.45" font-family="Helvetica,sans-Serif" font-size="14.00">dialectical&#45;cot</text>
<text text-anchor="middle" x="672" y="-247.2" font-family="Helvetica,sans-Serif" font-size="14.00">(commit / revise /</text>
<text text-anchor="middle" x="672" y="-229.95" font-family="Helvetica,sans-Serif" font-size="14.00">backtrack per step)</text>
</g>
<!-- cot_loss&#45;&gt;cot_grad -->
<!-- cot_budget -->
<g id="node17" class="node">
<title>cot_budget</title>
<path fill="#ffffff" stroke="black" d="M742.25,-185C742.25,-185 601.75,-185 601.75,-185 595.75,-185 589.75,-179 589.75,-173 589.75,-173 589.75,-154.5 589.75,-154.5 589.75,-148.5 595.75,-142.5 601.75,-142.5 601.75,-142.5 742.25,-142.5 742.25,-142.5 748.25,-142.5 754.25,-148.5 754.25,-154.5 754.25,-154.5 754.25,-173 754.25,-173 754.25,-179 748.25,-185 742.25,-185"/>
<text text-anchor="middle" x="672" y="-167.7" font-family="Helvetica,sans-Serif" font-size="14.00">max_steps per chain,</text>
<text text-anchor="middle" x="672" y="-150.45" font-family="Helvetica,sans-Serif" font-size="14.00">backtracks ≤ 3</text>
</g>
<!-- cot_grad&#45;&gt;cot_budget -->
<!-- cot_budget&#45;&gt;reg -->
<g id="edge20" class="edge">
<title>cot_budget&#45;&gt;reg</title>
<path fill="none" stroke="#888888" stroke-dasharray="5,2" d="M623.01,-142.03C582.73,-125 524.84,-100.52 477.86,-80.65"/>
<polygon fill="#888888" stroke="#888888" points="479.37,-77.49 468.8,-76.82 476.65,-83.94 479.37,-77.49"/>
</g>
</g>
</svg>
