<?xml version="1.0" encoding="UTF-8" standalone="no"?>
<!DOCTYPE svg PUBLIC "-//W3C//DTD SVG 1.1//EN"
 "http://www.w3.org/Graphics/SVG/1.1/DTD/svg11.dtd">
<!-- Generated by graphviz version 12.2.1 (0)
 -->
<!-- Title: gradient_via_dialectic Pages: 1 -->
<svg width="545pt" height="738pt"
 viewBox="0.00 0.00 545.38 738.19" xmlns="http://www.w3.org/2000/svg" xmlns:xlink="http://www.w3.org/1999/xlink">
<g id="graph0" class="graph" transform="scale(1 1) rotate(0) translate(4 734.19)">
<title>gradient_via_dialectic</title>
<!-- memory -->
<g id="node1" class="node">
<title>memory</title>
<path fill="#e8f4f8" stroke="#5b8db8" d="M249.25,-724.12C249.25,-727.47 207.34,-730.19 155.75,-730.19 104.16,-730.19 62.25,-727.47 62.25,-724.12 62.25,-724.12 62.25,-669.56 62.25,-669.56 62.25,-666.22 104.16,-663.5 155.75,-663.5 207.34,-663.5 249.25,-666.22 249.25,-669.56 249.25,-669.56 249.25,-724.12 249.25,-724.12"/>
<path fill="none" stroke="#5b8db8" d="M249.25,-724.12C249.25,-720.78 207.34,-718.06 155.75,-718.06 104.16,-718.06 62.25,-720.78 62.25,-724.12"/>
<text text-anchor="middle" x="155.75" y="-706.64" font-family="Helvetica,sans-Serif" font-size="11.00">project_memory.json</text>
<text text-anchor="middle" x="155.75" y="-693.14" font-family="Helvetica,sans-Serif" font-size="11.00">(per&#45;skill μ_s, plateau patterns,</text>
<text text-anchor="middle" x="155.75" y="-679.64" font-family="Helvetica,sans-Serif" font-size="11.00">calibration history)</text>
</g>
<!-- step1 -->
<g id="node3" class="node">
<title>step1</title>
<path fill="#e8f8e8" stroke="#4c8a4c" d="M200.38,-605C200.38,-605 53.12,-605 53.12,-605 47.12,-605 41.12,-599 41.12,-593 41.12,-593 41.12,-555.5 41.12,-555.5 41.12,-549.5 47.12,-543.5 53.12,-543.5 53.12,-543.5 200.38,-543.5 200.38,-543.5 206.38,-543.5 212.38,-549.5 212.38,-555.5 212.38,-555.5 212.38,-593 212.38,-593 212.38,-599 206.38,-605 200.38,-605"/>
<text text-anchor="middle" x="126.75" y="-590.55" font-family="Helvetica,sans-Serif" font-size="11.00">STEP 1 — Thesis</text>
<text text-anchor="middle" x="126.75" y="-564.05" font-family="Helvetica,sans-Serif" font-size="11.00">Δθ_thesis + predicted_Δloss</text>
<text text-anchor="middle" x="126.75" y="-550.55" font-family="Helvetica,sans-Serif" font-size="11.00">+ confidence_factor</text>
</g>
<!-- memory&#45;&gt;step1 -->
<g id="edge1" class="edge">
<title>memory&#45;&gt;step1</title>
<path fill="none" stroke="#444444" d="M137.31,-663.02C137.31,-663.02 137.31,-616.96 137.31,-616.96"/>
<polygon fill="#444444" stroke="#444444" points="140.81,-616.96 137.31,-606.96 133.81,-616.96 140.81,-616.96"/>
<text text-anchor="middle" x="177.75" y="-631.33" font-family="Helvetica,sans-Serif" font-size="9.00"> μ_s → predicted_Δloss</text>
</g>
<!-- step2 -->
<g id="node4" class="node">
<title>step2</title>
<path fill="#e8f8e8" stroke="#4c8a4c" d="M377.62,-605C377.62,-605 267.88,-605 267.88,-605 261.88,-605 255.88,-599 255.88,-593 255.88,-593 255.88,-555.5 255.88,-555.5 255.88,-549.5 261.88,-543.5 267.88,-543.5 267.88,-543.5 377.62,-543.5 377.62,-543.5 383.62,-543.5 389.62,-549.5 389.62,-555.5 389.62,-555.5 389.62,-593 389.62,-593 389.62,-599 383.62,-605 377.62,-605"/>
<text text-anchor="middle" x="322.75" y="-590.55" font-family="Helvetica,sans-Serif" font-size="11.00">STEP 2 — Primers</text>
<text text-anchor="middle" x="322.75" y="-564.05" font-family="Helvetica,sans-Serif" font-size="11.00">{Pr(applies), impact}</text>
<text text-anchor="middle" x="322.75" y="-550.55" font-family="Helvetica,sans-Serif" font-size="11.00">per counter&#45;case</text>
</g>
<!-- memory&#45;&gt;step2 -->
<g id="edge2" class="edge">
<title>memory&#45;&gt;step2</title>
<path fill="none" stroke="#444444" d="M249.64,-671C266.92,-671 279.62,-671 279.62,-671 279.62,-671 279.62,-616.91 279.62,-616.91"/>
<polygon fill="#444444" stroke="#444444" points="283.13,-616.91 279.63,-606.91 276.13,-616.91 283.13,-616.91"/>
<text text-anchor="middle" x="307.88" y="-631.33" font-family="Helvetica,sans-Serif" font-size="9.00"> μ_resolver → impacts</text>
</g>
<!-- context -->
<g id="node2" class="node">
<title>context</title>
<polygon fill="#fff5e1" stroke="#c89850" points="464.12,-714.84 303.38,-714.84 303.38,-678.84 470.12,-678.84 470.12,-708.84 464.12,-714.84"/>
<polyline fill="none" stroke="#c89850" points="464.12,-714.84 464.12,-708.84"/>
<polyline fill="none" stroke="#c89850" points="470.12,-708.84 464.12,-708.84"/>
<text text-anchor="middle" x="386.75" y="-699.89" font-family="Helvetica,sans-Serif" font-size="11.00">in&#45;flight task</text>
<text text-anchor="middle" x="386.75" y="-686.39" font-family="Helvetica,sans-Serif" font-size="11.00">(streak, starting_loss, files)</text>
</g>
<!-- context&#45;&gt;step2 -->
<g id="edge3" class="edge">
<title>context&#45;&gt;step2</title>
<path fill="none" stroke="#444444" d="M346.5,-678.49C346.5,-678.49 346.5,-616.64 346.5,-616.64"/>
<polygon fill="#444444" stroke="#444444" points="350,-616.64 346.5,-606.64 343,-616.64 350,-616.64"/>
<text text-anchor="middle" x="420.5" y="-636.95" font-family="Helvetica,sans-Serif" font-size="9.00"> current streak</text>
<text text-anchor="middle" x="420.5" y="-625.7" font-family="Helvetica,sans-Serif" font-size="9.00"> applies Pr</text>
</g>
<!-- step3 -->
<g id="node5" class="node">
<title>step3</title>
<path fill="#fff5dd" stroke="#b88830" d="M411.38,-506.5C411.38,-506.5 234.12,-506.5 234.12,-506.5 228.12,-506.5 222.12,-500.5 222.12,-494.5 222.12,-494.5 222.12,-457 222.12,-457 222.12,-451 228.12,-445 234.12,-445 234.12,-445 411.38,-445 411.38,-445 417.38,-445 423.38,-451 423.38,-457 423.38,-457 423.38,-494.5 423.38,-494.5 423.38,-500.5 417.38,-506.5 411.38,-506.5"/>
<text text-anchor="middle" x="322.75" y="-492.05" font-family="Helvetica,sans-Serif" font-size="11.00">STEP 3 — Synthesis</text>
<text text-anchor="middle" x="322.75" y="-465.55" font-family="Helvetica,sans-Serif" font-size="11.00">E[Δloss | thesis] =</text>
<text text-anchor="middle" x="322.75" y="-452.05" font-family="Helvetica,sans-Serif" font-size="11.00">Σ Pr·impact &#160;+ &#160;(1−ΣPr)·predicted</text>
</g>
<!-- step1&#45;&gt;step3 -->
<g id="edge4" class="edge">
<title>step1&#45;&gt;step3</title>
<path fill="none" stroke="#444444" d="M212.85,-574C226.21,-574 235.69,-574 235.69,-574 235.69,-574 235.69,-518.35 235.69,-518.35"/>
<polygon fill="#444444" stroke="#444444" points="239.19,-518.35 235.69,-508.35 232.19,-518.35 239.19,-518.35"/>
</g>
<!-- step5 -->
<g id="node10" class="node">
<title>step5</title>
<path fill="#e8e8f8" stroke="#5050a8" d="M209.5,-156C209.5,-156 12,-156 12,-156 6,-156 0,-150 0,-144 0,-144 0,-106.5 0,-106.5 0,-100.5 6,-94.5 12,-94.5 12,-94.5 209.5,-94.5 209.5,-94.5 215.5,-94.5 221.5,-100.5 221.5,-106.5 221.5,-106.5 221.5,-144 221.5,-144 221.5,-150 215.5,-156 209.5,-156"/>
<text text-anchor="middle" x="110.75" y="-141.55" font-family="Helvetica,sans-Serif" font-size="11.00">STEP 5 — Calibration</text>
<text text-anchor="middle" x="110.75" y="-115.05" font-family="Helvetica,sans-Serif" font-size="11.00">prediction_error = predicted − actual</text>
<text text-anchor="middle" x="110.75" y="-101.55" font-family="Helvetica,sans-Serif" font-size="11.00">MAE → drift_warning</text>
</g>
<!-- step1&#45;&gt;step5 -->
<g id="edge12" class="edge">
<title>step1&#45;&gt;step5</title>
<path fill="none" stroke="#444444" stroke-dasharray="5,2" d="M84.44,-543.03C84.44,-543.03 84.44,-167.77 84.44,-167.77"/>
<polygon fill="#444444" stroke="#444444" points="87.94,-167.77 84.44,-157.77 80.94,-167.77 87.94,-167.77"/>
<text text-anchor="middle" x="128" y="-345.45" font-family="Helvetica,sans-Serif" font-size="9.00"> predicted_Δloss </text>
</g>
<!-- step2&#45;&gt;step3 -->
<g id="edge5" class="edge">
<title>step2&#45;&gt;step3</title>
<path fill="none" stroke="#444444" d="M322.75,-543.08C322.75,-543.08 322.75,-518.23 322.75,-518.23"/>
<polygon fill="#444444" stroke="#444444" points="326.25,-518.23 322.75,-508.23 319.25,-518.23 326.25,-518.23"/>
</g>
<!-- decision -->
<g id="node6" class="node">
<title>decision</title>
<path fill="#ffebe0" stroke="#b85040" d="M324.92,-405.97C324.92,-405.97 243.89,-392.03 243.89,-392.03 237.97,-391.02 237.97,-388.98 243.89,-387.97 243.89,-387.97 324.92,-374.03 324.92,-374.03 330.84,-373.02 342.66,-373.02 348.58,-374.03 348.58,-374.03 429.61,-387.97 429.61,-387.97 435.53,-388.98 435.53,-391.02 429.61,-392.03 429.61,-392.03 348.58,-405.97 348.58,-405.97 342.66,-406.98 330.84,-406.98 324.92,-405.97"/>
<text text-anchor="middle" x="336.75" y="-386.3" font-family="Helvetica,sans-Serif" font-size="11.00">STEP 4 — Decision</text>
</g>
<!-- step3&#45;&gt;decision -->
<g id="edge6" class="edge">
<title>step3&#45;&gt;decision</title>
<path fill="none" stroke="#444444" d="M327.72,-444.79C327.72,-444.79 327.72,-418.23 327.72,-418.23"/>
<polygon fill="#444444" stroke="#444444" points="331.22,-418.23 327.72,-408.23 324.22,-418.23 331.22,-418.23"/>
</g>
<!-- commit -->
<g id="node7" class="node">
<title>commit</title>
<path fill="#d8f0d8" stroke="#4c8a4c" d="M525.38,-324.75C525.38,-324.75 438.12,-324.75 438.12,-324.75 432.12,-324.75 426.12,-318.75 426.12,-312.75 426.12,-312.75 426.12,-288.25 426.12,-288.25 426.12,-282.25 432.12,-276.25 438.12,-276.25 438.12,-276.25 525.38,-276.25 525.38,-276.25 531.38,-276.25 537.38,-282.25 537.38,-288.25 537.38,-288.25 537.38,-312.75 537.38,-312.75 537.38,-318.75 531.38,-324.75 525.38,-324.75"/>
<text text-anchor="middle" x="481.75" y="-310.3" font-family="Helvetica,sans-Serif" font-size="11.00">commit</text>
<text text-anchor="middle" x="481.75" y="-296.8" font-family="Helvetica,sans-Serif" font-size="11.00">(E[ΔL] &lt; 0,</text>
<text text-anchor="middle" x="481.75" y="-283.3" font-family="Helvetica,sans-Serif" font-size="11.00">no dominant alt.)</text>
</g>
<!-- decision&#45;&gt;commit -->
<g id="edge7" class="edge">
<title>decision&#45;&gt;commit</title>
<path fill="none" stroke="#444444" d="M433.78,-388.45C433.78,-388.45 433.78,-336.71 433.78,-336.71"/>
<polygon fill="#444444" stroke="#444444" points="437.28,-336.71 433.78,-326.71 430.28,-336.71 437.28,-336.71"/>
<text text-anchor="middle" x="474.88" y="-345.45" font-family="Helvetica,sans-Serif" font-size="9.00"> E[ΔL] &lt; 0 </text>
</g>
<!-- reject -->
<g id="node8" class="node">
<title>reject</title>
<path fill="#f8d8d8" stroke="#b85040" d="M245.75,-324.75C245.75,-324.75 139.75,-324.75 139.75,-324.75 133.75,-324.75 127.75,-318.75 127.75,-312.75 127.75,-312.75 127.75,-288.25 127.75,-288.25 127.75,-282.25 133.75,-276.25 139.75,-276.25 139.75,-276.25 245.75,-276.25 245.75,-276.25 251.75,-276.25 257.75,-282.25 257.75,-288.25 257.75,-288.25 257.75,-312.75 257.75,-312.75 257.75,-318.75 251.75,-324.75 245.75,-324.75"/>
<text text-anchor="middle" x="192.75" y="-310.3" font-family="Helvetica,sans-Serif" font-size="11.00">reject / pivot</text>
<text text-anchor="middle" x="192.75" y="-296.8" font-family="Helvetica,sans-Serif" font-size="11.00">(E[ΔL] ≥ 0 or</text>
<text text-anchor="middle" x="192.75" y="-283.3" font-family="Helvetica,sans-Serif" font-size="11.00">alt dominates &gt; 0.1)</text>
</g>
<!-- decision&#45;&gt;reject -->
<g id="edge8" class="edge">
<title>decision&#45;&gt;reject</title>
<path fill="none" stroke="#444444" d="M244.91,-387.42C244.91,-387.42 244.91,-336.49 244.91,-336.49"/>
<polygon fill="#444444" stroke="#444444" points="248.41,-336.49 244.91,-326.49 241.41,-336.49 248.41,-336.49"/>
<text text-anchor="middle" x="230.5" y="-345.45" font-family="Helvetica,sans-Serif" font-size="9.00"> alt dominates </text>
</g>
<!-- escalate -->
<g id="node9" class="node">
<title>escalate</title>
<path fill="#fff0d8" stroke="#b88830" d="M389.12,-318.5C389.12,-318.5 294.38,-318.5 294.38,-318.5 288.38,-318.5 282.38,-312.5 282.38,-306.5 282.38,-306.5 282.38,-294.5 282.38,-294.5 282.38,-288.5 288.38,-282.5 294.38,-282.5 294.38,-282.5 389.12,-282.5 389.12,-282.5 395.12,-282.5 401.12,-288.5 401.12,-294.5 401.12,-294.5 401.12,-306.5 401.12,-306.5 401.12,-312.5 395.12,-318.5 389.12,-318.5"/>
<text text-anchor="middle" x="341.75" y="-303.55" font-family="Helvetica,sans-Serif" font-size="11.00">escalate to user</text>
<text text-anchor="middle" x="341.75" y="-290.05" font-family="Helvetica,sans-Serif" font-size="11.00">(within ±0.1 band)</text>
</g>
<!-- decision&#45;&gt;escalate -->
<g id="edge9" class="edge">
<title>decision&#45;&gt;escalate</title>
<path fill="none" stroke="#444444" d="M341.75,-372.74C341.75,-372.74 341.75,-330.45 341.75,-330.45"/>
<polygon fill="#444444" stroke="#444444" points="345.25,-330.45 341.75,-320.45 338.25,-330.45 345.25,-330.45"/>
<text text-anchor="middle" x="365" y="-345.45" font-family="Helvetica,sans-Serif" font-size="9.00"> |Δ| &lt; 0.1 </text>
</g>
<!-- observe -->
<g id="node11" class="node">
<title>observe</title>
<path fill="#f0f0f0" stroke="#888888" d="M427.5,-239.25C427.5,-239.25 272,-239.25 272,-239.25 266,-239.25 260,-233.25 260,-227.25 260,-227.25 260,-215.25 260,-215.25 260,-209.25 266,-203.25 272,-203.25 272,-203.25 427.5,-203.25 427.5,-203.25 433.5,-203.25 439.5,-209.25 439.5,-215.25 439.5,-215.25 439.5,-227.25 439.5,-227.25 439.5,-233.25 433.5,-239.25 427.5,-239.25"/>
<text text-anchor="middle" x="349.75" y="-224.3" font-family="Helvetica,sans-Serif" font-size="11.00">observe actual Δloss</text>
<text text-anchor="middle" x="349.75" y="-210.8" font-family="Helvetica,sans-Serif" font-size="11.00">(post&#45;iteration measurement)</text>
</g>
<!-- commit&#45;&gt;observe -->
<g id="edge10" class="edge">
<title>commit&#45;&gt;observe</title>
<path fill="none" stroke="#444444" d="M432.81,-275.86C432.81,-275.86 432.81,-250.84 432.81,-250.84"/>
<polygon fill="#444444" stroke="#444444" points="436.31,-250.84 432.81,-240.84 429.31,-250.84 436.31,-250.84"/>
</g>
<!-- method_evo -->
<g id="node12" class="node">
<title>method_evo</title>
<path fill="#f8e8f8" stroke="#a050a0" d="M159.62,-36C159.62,-36 61.88,-36 61.88,-36 55.88,-36 49.88,-30 49.88,-24 49.88,-24 49.88,-12 49.88,-12 49.88,-6 55.88,0 61.88,0 61.88,0 159.62,0 159.62,0 165.62,0 171.62,-6 171.62,-12 171.62,-12 171.62,-24 171.62,-24 171.62,-30 165.62,-36 159.62,-36"/>
<text text-anchor="middle" x="110.75" y="-21.05" font-family="Helvetica,sans-Serif" font-size="11.00">outer loop</text>
<text text-anchor="middle" x="110.75" y="-7.55" font-family="Helvetica,sans-Serif" font-size="11.00">(method&#45;evolution)</text>
</g>
<!-- step5&#45;&gt;method_evo -->
<g id="edge13" class="edge">
<title>step5&#45;&gt;method_evo</title>
<path fill="none" stroke="#a050a0" stroke-dasharray="5,2" d="M110.75,-94.23C110.75,-94.23 110.75,-47.72 110.75,-47.72"/>
<polygon fill="#a050a0" stroke="#a050a0" points="114.25,-47.72 110.75,-37.72 107.25,-47.72 114.25,-47.72"/>
<text text-anchor="middle" x="139.25" y="-67.95" font-family="Helvetica,sans-Serif" font-size="9.00"> MAE &gt; 0.15</text>
<text text-anchor="middle" x="139.25" y="-56.7" font-family="Helvetica,sans-Serif" font-size="9.00">(n ≥ 5) </text>
</g>
<!-- observe&#45;&gt;step5 -->
<g id="edge11" class="edge">
<title>observe&#45;&gt;step5</title>
<path fill="none" stroke="#444444" d="M259.62,-221C216.71,-221 174.62,-221 174.62,-221 174.62,-221 174.62,-167.85 174.62,-167.85"/>
<polygon fill="#444444" stroke="#444444" points="178.13,-167.85 174.63,-157.85 171.13,-167.85 178.13,-167.85"/>
<text text-anchor="middle" x="198.75" y="-176.7" font-family="Helvetica,sans-Serif" font-size="9.00"> actual ΔL </text>
</g>
</g>
</svg>
