<?xml version="1.0" encoding="UTF-8" standalone="no"?>
<!DOCTYPE svg PUBLIC "-//W3C//DTD SVG 1.1//EN"
 "http://www.w3.org/Graphics/SVG/1.1/DTD/svg11.dtd">
<!-- Generated by graphviz version 12.2.1 (0)
 -->
<!-- Title: memory_dialectical Pages: 1 -->
<svg width="1537pt" height="244pt"
 viewBox="0.00 0.00 1536.71 244.00" xmlns="http://www.w3.org/2000/svg" xmlns:xlink="http://www.w3.org/1999/xlink">
<g id="graph0" class="graph" transform="scale(1 1) rotate(0) translate(4 240)">
<title>memory_dialectical</title>
<g id="clust1" class="cluster">
<title>cluster_memory</title>
<path fill="#f4f9fc" stroke="#5b8db8" stroke-dasharray="5,2" d="M20,-63C20,-63 414.25,-63 414.25,-63 420.25,-63 426.25,-69 426.25,-75 426.25,-75 426.25,-174 426.25,-174 426.25,-180 420.25,-186 414.25,-186 414.25,-186 20,-186 20,-186 14,-186 8,-180 8,-174 8,-174 8,-75 8,-75 8,-69 14,-63 20,-63"/>
<text text-anchor="start" x="16" y="-172.55" font-family="Helvetica,sans-Serif" font-weight="bold" font-size="11.00">Memory</text>
<text text-anchor="start" x="66.25" y="-172.55" font-family="Helvetica,sans-Serif" font-size="11.00">\n(1st moment / prior)</text>
</g>
<g id="clust2" class="cluster">
<title>cluster_primer</title>
<path fill="#fffbf0" stroke="#b88830" stroke-dasharray="5,2" d="M540.25,-8C540.25,-8 694.25,-8 694.25,-8 700.25,-8 706.25,-14 706.25,-20 706.25,-20 706.25,-122 706.25,-122 706.25,-128 700.25,-134 694.25,-134 694.25,-134 540.25,-134 540.25,-134 534.25,-134 528.25,-128 528.25,-122 528.25,-122 528.25,-20 528.25,-20 528.25,-14 534.25,-8 540.25,-8"/>
<text text-anchor="start" x="536.25" y="-120.55" font-family="Helvetica,sans-Serif" font-weight="bold" font-size="11.00">Coupling</text>
<text text-anchor="start" x="589.5" y="-120.55" font-family="Helvetica,sans-Serif" font-size="11.00">\n(prime&#45;antithesis)</text>
</g>
<g id="clust3" class="cluster">
<title>cluster_dialectical</title>
<path fill="#f2fbf2" stroke="#4c8a4c" stroke-dasharray="5,2" d="M562.12,-142C562.12,-142 1193.25,-142 1193.25,-142 1199.25,-142 1205.25,-148 1205.25,-154 1205.25,-154 1205.25,-216 1205.25,-216 1205.25,-222 1199.25,-228 1193.25,-228 1193.25,-228 562.12,-228 562.12,-228 556.12,-228 550.12,-222 550.12,-216 550.12,-216 550.12,-154 550.12,-154 550.12,-148 556.12,-142 562.12,-142"/>
<text text-anchor="start" x="558.12" y="-214.55" font-family="Helvetica,sans-Serif" font-weight="bold" font-size="11.00">Dialectical</text>
<text text-anchor="start" x="623.38" y="-214.55" font-family="Helvetica,sans-Serif" font-size="11.00">\n(2nd order / Hessian probe)</text>
</g>
<!-- trace -->
<g id="node1" class="node">
<title>trace</title>
<path fill="#e8f4f8" stroke="#5b8db8" d="M109.25,-133.69C109.25,-136.1 88.35,-138.06 62.62,-138.06 36.9,-138.06 16,-136.1 16,-133.69 16,-133.69 16,-94.31 16,-94.31 16,-91.9 36.9,-89.94 62.62,-89.94 88.35,-89.94 109.25,-91.9 109.25,-94.31 109.25,-94.31 109.25,-133.69 109.25,-133.69"/>
<path fill="none" stroke="#5b8db8" d="M109.25,-133.69C109.25,-131.27 88.35,-129.31 62.62,-129.31 36.9,-129.31 16,-131.27 16,-133.69"/>
<text text-anchor="middle" x="62.62" y="-117.05" font-family="Helvetica,sans-Serif" font-size="11.00">.ldd/trace.log</text>
<text text-anchor="middle" x="62.62" y="-103.55" font-family="Helvetica,sans-Serif" font-size="11.00">(append&#45;only)</text>
</g>
<!-- agg -->
<g id="node2" class="node">
<title>agg</title>
<path fill="#e8f4f8" stroke="#5b8db8" d="M235.25,-132C235.25,-132 162.25,-132 162.25,-132 156.25,-132 150.25,-126 150.25,-120 150.25,-120 150.25,-108 150.25,-108 150.25,-102 156.25,-96 162.25,-96 162.25,-96 235.25,-96 235.25,-96 241.25,-96 247.25,-102 247.25,-108 247.25,-108 247.25,-120 247.25,-120 247.25,-126 241.25,-132 235.25,-132"/>
<text text-anchor="middle" x="198.75" y="-117.05" font-family="Helvetica,sans-Serif" font-size="11.00">aggregator</text>
<text text-anchor="middle" x="198.75" y="-103.55" font-family="Helvetica,sans-Serif" font-size="11.00">(deterministic)</text>
</g>
<!-- trace&#45;&gt;agg -->
<g id="edge1" class="edge">
<title>trace&#45;&gt;agg</title>
<path fill="none" stroke="#444444" d="M109.41,-114C118.79,-114 128.79,-114 138.57,-114"/>
<polygon fill="#444444" stroke="#444444" points="138.37,-117.5 148.37,-114 138.37,-110.5 138.37,-117.5"/>
</g>
<!-- mem -->
<g id="node3" class="node">
<title>mem</title>
<path fill="#e8f4f8" stroke="#5b8db8" d="M418.25,-148.88C418.25,-153.15 389.12,-156.62 353.25,-156.62 317.38,-156.62 288.25,-153.15 288.25,-148.88 288.25,-148.88 288.25,-79.12 288.25,-79.12 288.25,-74.85 317.38,-71.38 353.25,-71.38 389.12,-71.38 418.25,-74.85 418.25,-79.12 418.25,-79.12 418.25,-148.88 418.25,-148.88"/>
<path fill="none" stroke="#5b8db8" d="M418.25,-148.88C418.25,-144.6 389.12,-141.12 353.25,-141.12 317.38,-141.12 288.25,-144.6 288.25,-148.88"/>
<text text-anchor="middle" x="353.25" y="-130.55" font-family="Helvetica,sans-Serif" font-size="11.00">project_memory.json</text>
<text text-anchor="middle" x="353.25" y="-117.05" font-family="Helvetica,sans-Serif" font-size="11.00">&#45; μ_s per skill</text>
<text text-anchor="middle" x="353.25" y="-103.55" font-family="Helvetica,sans-Serif" font-size="11.00">&#45; plateau patterns</text>
<text text-anchor="middle" x="353.25" y="-90.05" font-family="Helvetica,sans-Serif" font-size="11.00">&#45; calibration MAE</text>
</g>
<!-- agg&#45;&gt;mem -->
<g id="edge2" class="edge">
<title>agg&#45;&gt;mem</title>
<path fill="none" stroke="#444444" d="M247.58,-114C256.75,-114 266.56,-114 276.35,-114"/>
<polygon fill="#444444" stroke="#444444" points="276.3,-117.5 286.3,-114 276.3,-110.5 276.3,-117.5"/>
</g>
<!-- primer -->
<g id="node4" class="node">
<title>primer</title>
<path fill="#fff5dd" stroke="#b88830" d="M663,-104.25C663,-104.25 570.5,-104.25 570.5,-104.25 564.5,-104.25 558.5,-98.25 558.5,-92.25 558.5,-92.25 558.5,-27.75 558.5,-27.75 558.5,-21.75 564.5,-15.75 570.5,-15.75 570.5,-15.75 663,-15.75 663,-15.75 669,-15.75 675,-21.75 675,-27.75 675,-27.75 675,-92.25 675,-92.25 675,-98.25 669,-104.25 663,-104.25"/>
<text text-anchor="middle" x="616.75" y="-89.8" font-family="Helvetica,sans-Serif" font-size="11.00">Primers</text>
<text text-anchor="middle" x="616.75" y="-63.3" font-family="Helvetica,sans-Serif" font-size="11.00">skill_failure_mode,</text>
<text text-anchor="middle" x="616.75" y="-49.8" font-family="Helvetica,sans-Serif" font-size="11.00">plateau_pattern,</text>
<text text-anchor="middle" x="616.75" y="-36.3" font-family="Helvetica,sans-Serif" font-size="11.00">similar_task,</text>
<text text-anchor="middle" x="616.75" y="-22.8" font-family="Helvetica,sans-Serif" font-size="11.00">terminal_analysis</text>
</g>
<!-- mem&#45;&gt;primer -->
<g id="edge5" class="edge">
<title>mem&#45;&gt;primer</title>
<path fill="none" stroke="#444444" d="M418.36,-97.32C425.06,-95.72 431.78,-94.16 438.25,-92.75 473.85,-84.97 513.73,-77.5 546.66,-71.67"/>
<polygon fill="#444444" stroke="#444444" points="547.27,-75.11 556.51,-69.93 546.06,-68.22 547.27,-75.11"/>
<text text-anchor="middle" x="477.25" y="-95.45" font-family="Helvetica,sans-Serif" font-size="9.00"> statistics </text>
</g>
<!-- thesis -->
<g id="node5" class="node">
<title>thesis</title>
<path fill="#e8f8e8" stroke="#4c8a4c" d="M663.38,-192C663.38,-192 570.12,-192 570.12,-192 564.12,-192 558.12,-186 558.12,-180 558.12,-180 558.12,-168 558.12,-168 558.12,-162 564.12,-156 570.12,-156 570.12,-156 663.38,-156 663.38,-156 669.38,-156 675.38,-162 675.38,-168 675.38,-168 675.38,-180 675.38,-180 675.38,-186 669.38,-192 663.38,-192"/>
<text text-anchor="middle" x="616.75" y="-177.05" font-family="Helvetica,sans-Serif" font-size="11.00">Thesis</text>
<text text-anchor="middle" x="616.75" y="-163.55" font-family="Helvetica,sans-Serif" font-size="11.00">Δθ + predicted_ΔL</text>
</g>
<!-- mem&#45;&gt;thesis -->
<g id="edge7" class="edge">
<title>mem&#45;&gt;thesis</title>
<path fill="none" stroke="#444444" stroke-dasharray="5,2" d="M418.56,-128.75C457.45,-137.68 507.04,-149.06 546.75,-158.17"/>
<polygon fill="#444444" stroke="#444444" points="545.93,-161.57 556.46,-160.4 547.5,-154.75 545.93,-161.57"/>
<text text-anchor="middle" x="477.25" y="-153.84" font-family="Helvetica,sans-Serif" font-size="9.00"> μ_s → predicted </text>
</g>
<!-- antithesis -->
<g id="node6" class="node">
<title>antithesis</title>
<path fill="#e8f8e8" stroke="#4c8a4c" d="M959.38,-198.25C959.38,-198.25 871.38,-198.25 871.38,-198.25 865.38,-198.25 859.38,-192.25 859.38,-186.25 859.38,-186.25 859.38,-161.75 859.38,-161.75 859.38,-155.75 865.38,-149.75 871.38,-149.75 871.38,-149.75 959.38,-149.75 959.38,-149.75 965.38,-149.75 971.38,-155.75 971.38,-161.75 971.38,-161.75 971.38,-186.25 971.38,-186.25 971.38,-192.25 965.38,-198.25 959.38,-198.25"/>
<text text-anchor="middle" x="915.38" y="-183.8" font-family="Helvetica,sans-Serif" font-size="11.00">Antithesis</text>
<text text-anchor="middle" x="915.38" y="-170.3" font-family="Helvetica,sans-Serif" font-size="11.00">(primed +</text>
<text text-anchor="middle" x="915.38" y="-156.8" font-family="Helvetica,sans-Serif" font-size="11.00">≥ 1 independent)</text>
</g>
<!-- primer&#45;&gt;antithesis -->
<g id="edge6" class="edge">
<title>primer&#45;&gt;antithesis</title>
<path fill="none" stroke="#444444" d="M675.31,-81.22C720.13,-97.86 783.86,-121.76 839.38,-143.5 842.38,-144.68 845.45,-145.89 848.55,-147.12"/>
<polygon fill="#444444" stroke="#444444" points="847.16,-150.33 857.74,-150.79 849.75,-143.83 847.16,-150.33"/>
<text text-anchor="middle" x="779" y="-157.45" font-family="Helvetica,sans-Serif" font-size="9.00"> priming material</text>
<text text-anchor="middle" x="779" y="-146.2" font-family="Helvetica,sans-Serif" font-size="9.00">(anti&#45;groupthink: +1 free) </text>
</g>
<!-- thesis&#45;&gt;antithesis -->
<g id="edge3" class="edge">
<title>thesis&#45;&gt;antithesis</title>
<path fill="none" stroke="#444444" d="M675.65,-174C725.02,-174 796.02,-174 847.74,-174"/>
<polygon fill="#444444" stroke="#444444" points="847.62,-177.5 857.62,-174 847.62,-170.5 847.62,-177.5"/>
<text text-anchor="middle" x="779" y="-176.7" font-family="Helvetica,sans-Serif" font-size="9.00"> probe </text>
</g>
<!-- synth -->
<g id="node7" class="node">
<title>synth</title>
<path fill="#e8f8e8" stroke="#4c8a4c" d="M1185.25,-198.25C1185.25,-198.25 1082.25,-198.25 1082.25,-198.25 1076.25,-198.25 1070.25,-192.25 1070.25,-186.25 1070.25,-186.25 1070.25,-161.75 1070.25,-161.75 1070.25,-155.75 1076.25,-149.75 1082.25,-149.75 1082.25,-149.75 1185.25,-149.75 1185.25,-149.75 1191.25,-149.75 1197.25,-155.75 1197.25,-161.75 1197.25,-161.75 1197.25,-186.25 1197.25,-186.25 1197.25,-192.25 1191.25,-198.25 1185.25,-198.25"/>
<text text-anchor="middle" x="1133.75" y="-183.8" font-family="Helvetica,sans-Serif" font-size="11.00">Synthesis</text>
<text text-anchor="middle" x="1133.75" y="-170.3" font-family="Helvetica,sans-Serif" font-size="11.00">E[ΔL] = ΣPr·impact</text>
<text text-anchor="middle" x="1133.75" y="-156.8" font-family="Helvetica,sans-Serif" font-size="11.00">+ (1−ΣPr)·predicted</text>
</g>
<!-- antithesis&#45;&gt;synth -->
<g id="edge4" class="edge">
<title>antithesis&#45;&gt;synth</title>
<path fill="none" stroke="#444444" d="M971.82,-174C998.12,-174 1029.93,-174 1058.3,-174"/>
<polygon fill="#444444" stroke="#444444" points="1058.29,-177.5 1068.29,-174 1058.29,-170.5 1058.29,-177.5"/>
<text text-anchor="middle" x="1013.88" y="-176.7" font-family="Helvetica,sans-Serif" font-size="9.00"> combine </text>
</g>
<!-- posterior -->
<g id="node8" class="node">
<title>posterior</title>
<polygon fill="#f0e8f8" stroke="#8050a8" points="1387.38,-161 1252.12,-161 1252.12,-59 1393.38,-59 1393.38,-155 1387.38,-161"/>
<polyline fill="none" stroke="#8050a8" points="1387.38,-161 1387.38,-155"/>
<polyline fill="none" stroke="#8050a8" points="1393.38,-155 1387.38,-155"/>
<text text-anchor="middle" x="1322.75" y="-146.55" font-family="Helvetica,sans-Serif" font-size="11.00">Action confidence</text>
<text text-anchor="middle" x="1322.75" y="-133.05" font-family="Helvetica,sans-Serif" font-size="11.00">(posterior)</text>
<text text-anchor="middle" x="1322.75" y="-106.55" font-family="Helvetica,sans-Serif" font-size="11.00">confidence(action) ∝</text>
<text text-anchor="middle" x="1322.75" y="-93.05" font-family="Helvetica,sans-Serif" font-size="11.00">memory_likelihood</text>
<text text-anchor="middle" x="1322.75" y="-79.55" font-family="Helvetica,sans-Serif" font-size="11.00">× dialectical_likelihood</text>
<text text-anchor="middle" x="1322.75" y="-66.05" font-family="Helvetica,sans-Serif" font-size="11.00">× prior</text>
</g>
<!-- synth&#45;&gt;posterior -->
<g id="edge8" class="edge">
<title>synth&#45;&gt;posterior</title>
<path fill="none" stroke="#444444" d="M1197.54,-152.51C1211.54,-147.72 1226.58,-142.57 1241.18,-137.57"/>
<polygon fill="#444444" stroke="#444444" points="1241.96,-141.01 1250.29,-134.46 1239.7,-134.38 1241.96,-141.01"/>
</g>
<!-- decision -->
<g id="node9" class="node">
<title>decision</title>
<path fill="#ffebe0" stroke="#b85040" d="M1470.33,-123.72C1470.33,-123.72 1445.59,-114.28 1445.59,-114.28 1439.98,-112.14 1439.98,-107.86 1445.59,-105.72 1445.59,-105.72 1470.33,-96.28 1470.33,-96.28 1475.93,-94.14 1487.15,-94.14 1492.75,-96.28 1492.75,-96.28 1517.49,-105.72 1517.49,-105.72 1523.1,-107.86 1523.1,-112.14 1517.49,-114.28 1517.49,-114.28 1492.75,-123.72 1492.75,-123.72 1487.15,-125.86 1475.93,-125.86 1470.33,-123.72"/>
<text text-anchor="middle" x="1481.54" y="-106.3" font-family="Helvetica,sans-Serif" font-size="11.00">Decide</text>
</g>
<!-- posterior&#45;&gt;decision -->
<g id="edge9" class="edge">
<title>posterior&#45;&gt;decision</title>
<path fill="none" stroke="#444444" d="M1393.43,-110C1402.86,-110 1412.47,-110 1421.68,-110"/>
<polygon fill="#444444" stroke="#444444" points="1421.6,-113.5 1431.6,-110 1421.6,-106.5 1421.6,-113.5"/>
</g>
<!-- note -->
<g id="node10" class="node">
<title>note</title>
<polygon fill="#f8f8f8" stroke="#888888" points="1205.12,-117.5 1056.38,-117.5 1056.38,-64.5 1211.12,-64.5 1211.12,-111.5 1205.12,-117.5"/>
<polyline fill="none" stroke="#888888" points="1205.12,-117.5 1205.12,-111.5"/>
<polyline fill="none" stroke="#888888" points="1211.12,-111.5 1205.12,-111.5"/>
<text text-anchor="middle" x="1133.75" y="-104.95" font-family="Helvetica,sans-Serif" font-size="9.00">Bias invariant:</text>
<text text-anchor="middle" x="1133.75" y="-93.7" font-family="Helvetica,sans-Serif" font-size="9.00">neither memory nor dialectical</text>
<text text-anchor="middle" x="1133.75" y="-82.45" font-family="Helvetica,sans-Serif" font-size="9.00">modifies L(θ). Both refine</text>
<text text-anchor="middle" x="1133.75" y="-71.2" font-family="Helvetica,sans-Serif" font-size="9.00">search direction only.</text>
</g>
<!-- note&#45;&gt;posterior -->
<g id="edge10" class="edge">
<title>note&#45;&gt;posterior</title>
<path fill="none" stroke="#888888" stroke-dasharray="1,5" d="M1211.62,-98.81C1224.92,-100.16 1238.68,-101.56 1251.78,-102.89"/>
</g>
</g>
</svg>
