<?xml version="1.0" encoding="UTF-8" standalone="no"?>
<!DOCTYPE svg PUBLIC "-//W3C//DTD SVG 1.1//EN"
 "http://www.w3.org/Graphics/SVG/1.1/DTD/svg11.dtd">
<!-- Generated by graphviz version 12.2.1 (0)
 -->
<!-- Title: mental_model_ldd Pages: 1 -->
<svg width="647pt" height="1485pt"
 viewBox="0.00 0.00 646.50 1485.00" xmlns="http://www.w3.org/2000/svg" xmlns:xlink="http://www.w3.org/1999/xlink">
<g id="graph0" class="graph" transform="scale(1 1) rotate(0) translate(4 1481)">
<title>mental_model_ldd</title>
<polygon fill="white" stroke="none" points="-4,4 -4,-1481 642.5,-1481 642.5,4 -4,4"/>
<text text-anchor="start" x="136.25" y="-1460.7" font-family="Helvetica,sans-Serif" font-weight="bold" font-size="14.00">LDD mental model — gradient descent on code</text>
<text text-anchor="start" x="148.62" y="-1450.5" font-family="Helvetica,sans-Serif" font-size="10.00">One page: what is θ, what is the loss, what regularizes, what budgets.</text>
<g id="clust1" class="cluster">
<title>cluster_core</title>
<path fill="#f5f5f5" stroke="#333333" d="M20,-693C20,-693 374.5,-693 374.5,-693 380.5,-693 386.5,-699 386.5,-705 386.5,-705 386.5,-758 386.5,-758 386.5,-764 380.5,-770 374.5,-770 374.5,-770 20,-770 20,-770 14,-770 8,-764 8,-758 8,-758 8,-705 8,-705 8,-699 14,-693 20,-693"/>
<text text-anchor="middle" x="197.25" y="-752.7" font-family="Helvetica,sans-Serif" font-size="14.00">core equation</text>
</g>
<g id="clust2" class="cluster">
<title>cluster_theta</title>
<path fill="#e8f4fd" stroke="#1f77b4" d="M430.5,-1231C430.5,-1231 606.5,-1231 606.5,-1231 612.5,-1231 618.5,-1237 618.5,-1243 618.5,-1243 618.5,-1425 618.5,-1425 618.5,-1431 612.5,-1437 606.5,-1437 606.5,-1437 430.5,-1437 430.5,-1437 424.5,-1437 418.5,-1431 418.5,-1425 418.5,-1425 418.5,-1243 418.5,-1243 418.5,-1237 424.5,-1231 430.5,-1231"/>
<text text-anchor="start" x="450.25" y="-1420.7" font-family="Helvetica,sans-Serif" font-weight="bold" font-size="14.00">θ (what changes)</text>
</g>
<g id="clust3" class="cluster">
<title>cluster_loss</title>
<path fill="#fef4ea" stroke="#ff7f0e" d="M453.75,-983C453.75,-983 583.25,-983 583.25,-983 589.25,-983 595.25,-989 595.25,-995 595.25,-995 595.25,-1211 595.25,-1211 595.25,-1217 589.25,-1223 583.25,-1223 583.25,-1223 453.75,-1223 453.75,-1223 447.75,-1223 441.75,-1217 441.75,-1211 441.75,-1211 441.75,-995 441.75,-995 441.75,-989 447.75,-983 453.75,-983"/>
<text text-anchor="start" x="489.62" y="-1206.7" font-family="Helvetica,sans-Serif" font-weight="bold" font-size="14.00">L (loss)</text>
</g>
<g id="clust4" class="cluster">
<title>cluster_grad</title>
<path fill="#e6fbe6" stroke="#2ca02c" d="M423,-779C423,-779 614,-779 614,-779 620,-779 626,-785 626,-791 626,-791 626,-963 626,-963 626,-969 620,-975 614,-975 614,-975 423,-975 423,-975 417,-975 411,-969 411,-963 411,-963 411,-791 411,-791 411,-785 417,-779 423,-779"/>
<text text-anchor="start" x="466.75" y="-958.7" font-family="Helvetica,sans-Serif" font-weight="bold" font-size="14.00">∇L (gradient)</text>
</g>
<g id="clust5" class="cluster">
<title>cluster_eta</title>
<path fill="#fdeaea" stroke="#d62728" d="M445.88,-575C445.88,-575 591.12,-575 591.12,-575 597.12,-575 603.12,-581 603.12,-587 603.12,-587 603.12,-759 603.12,-759 603.12,-765 597.12,-771 591.12,-771 591.12,-771 445.88,-771 445.88,-771 439.88,-771 433.88,-765 433.88,-759 433.88,-759 433.88,-587 433.88,-587 433.88,-581 439.88,-575 445.88,-575"/>
<text text-anchor="start" x="453.62" y="-754.7" font-family="Helvetica,sans-Serif" font-weight="bold" font-size="14.00">η (learning rate)</text>
</g>
<g id="clust6" class="cluster">
<title>cluster_reg</title>
<path fill="#f5ebfd" stroke="#9467bd" d="M418.5,-232C418.5,-232 618.5,-232 618.5,-232 624.5,-232 630.5,-238 630.5,-244 630.5,-244 630.5,-555 630.5,-555 630.5,-561 624.5,-567 618.5,-567 618.5,-567 418.5,-567 418.5,-567 412.5,-567 406.5,-561 406.5,-555 406.5,-555 406.5,-244 406.5,-244 406.5,-238 412.5,-232 418.5,-232"/>
<text text-anchor="start" x="475.38" y="-550.7" font-family="Helvetica,sans-Serif" font-weight="bold" font-size="14.00">regularizer</text>
</g>
<g id="clust7" class="cluster">
<title>cluster_budget</title>
<path fill="#fff9e6" stroke="#d4a017" d="M422.25,-8C422.25,-8 614.75,-8 614.75,-8 620.75,-8 626.75,-14 626.75,-20 626.75,-20 626.75,-212 626.75,-212 626.75,-218 620.75,-224 614.75,-224 614.75,-224 422.25,-224 422.25,-224 416.25,-224 410.25,-218 410.25,-212 410.25,-212 410.25,-20 410.25,-20 410.25,-14 416.25,-8 422.25,-8"/>
<text text-anchor="start" x="486.62" y="-207.7" font-family="Helvetica,sans-Serif" font-weight="bold" font-size="14.00">budgets</text>
</g>
<!-- eq -->
<g id="node1" class="node">
<title>eq</title>
<path fill="#ffffff" stroke="black" d="M366.5,-737C366.5,-737 28,-737 28,-737 22,-737 16,-731 16,-725 16,-725 16,-713 16,-713 16,-707 22,-701 28,-701 28,-701 366.5,-701 366.5,-701 372.5,-701 378.5,-707 378.5,-713 378.5,-713 378.5,-725 378.5,-725 378.5,-731 372.5,-737 366.5,-737"/>
<text text-anchor="middle" x="197.25" y="-715.45" font-family="Courier,monospace" font-size="14.00">θ_{k+1} = θ_k &#160;− &#160;η · ∇L(θ_k) &#160;+ &#160;regularizer(θ_k)</text>
</g>
<!-- theta_code -->
<g id="node2" class="node">
<title>theta_code</title>
<path fill="lightgrey" stroke="black" d="M583.88,-1281.25C583.88,-1281.25 453.12,-1281.25 453.12,-1281.25 447.12,-1281.25 441.12,-1275.25 441.12,-1269.25 441.12,-1269.25 441.12,-1250.75 441.12,-1250.75 441.12,-1244.75 447.12,-1238.75 453.12,-1238.75 453.12,-1238.75 583.88,-1238.75 583.88,-1238.75 589.88,-1238.75 595.88,-1244.75 595.88,-1250.75 595.88,-1250.75 595.88,-1269.25 595.88,-1269.25 595.88,-1275.25 589.88,-1281.25 583.88,-1281.25"/>
<text text-anchor="middle" x="518.5" y="-1263.95" font-family="Helvetica,sans-Serif" font-size="14.00">Inner:</text>
<text text-anchor="middle" x="518.5" y="-1246.7" font-family="Helvetica,sans-Serif" font-size="14.00">code of current task</text>
</g>
<!-- eq&#45;&gt;theta_code -->
<!-- loss_inner -->
<g id="node5" class="node">
<title>loss_inner</title>
<path fill="lightgrey" stroke="black" d="M566.62,-1050.88C566.62,-1050.88 470.38,-1050.88 470.38,-1050.88 464.38,-1050.88 458.38,-1044.88 458.38,-1038.88 458.38,-1038.88 458.38,-1003.12 458.38,-1003.12 458.38,-997.12 464.38,-991.12 470.38,-991.12 470.38,-991.12 566.62,-991.12 566.62,-991.12 572.62,-991.12 578.62,-997.12 578.62,-1003.12 578.62,-1003.12 578.62,-1038.88 578.62,-1038.88 578.62,-1044.88 572.62,-1050.88 566.62,-1050.88"/>
<text text-anchor="middle" x="518.5" y="-1033.58" font-family="Helvetica,sans-Serif" font-size="14.00">failing test,</text>
<text text-anchor="middle" x="518.5" y="-1016.33" font-family="Helvetica,sans-Serif" font-size="14.00">gate rejection,</text>
<text text-anchor="middle" x="518.5" y="-999.08" font-family="Helvetica,sans-Serif" font-size="14.00">rubric violation</text>
</g>
<!-- eq&#45;&gt;loss_inner -->
<!-- grad_how -->
<g id="node8" class="node">
<title>grad_how</title>
<path fill="lightgrey" stroke="black" d="M606,-864.5C606,-864.5 431,-864.5 431,-864.5 425,-864.5 419,-858.5 419,-852.5 419,-852.5 419,-799.5 419,-799.5 419,-793.5 425,-787.5 431,-787.5 431,-787.5 606,-787.5 606,-787.5 612,-787.5 618,-793.5 618,-799.5 618,-799.5 618,-852.5 618,-852.5 618,-858.5 612,-864.5 606,-864.5"/>
<text text-anchor="middle" x="518.5" y="-847.2" font-family="Helvetica,sans-Serif" font-size="14.00">5&#45;why&#45;by&#45;layer:</text>
<text text-anchor="middle" x="518.5" y="-829.95" font-family="Helvetica,sans-Serif" font-size="14.00">symptom → mechanism →</text>
<text text-anchor="middle" x="518.5" y="-812.7" font-family="Helvetica,sans-Serif" font-size="14.00">contract → structural →</text>
<text text-anchor="middle" x="518.5" y="-795.45" font-family="Helvetica,sans-Serif" font-size="14.00">conceptual origin</text>
</g>
<!-- eq&#45;&gt;grad_how -->
<!-- eta_small -->
<g id="node10" class="node">
<title>eta_small</title>
<path fill="lightgrey" stroke="black" d="M583.12,-642.88C583.12,-642.88 453.88,-642.88 453.88,-642.88 447.88,-642.88 441.88,-636.88 441.88,-630.88 441.88,-630.88 441.88,-595.12 441.88,-595.12 441.88,-589.12 447.88,-583.12 453.88,-583.12 453.88,-583.12 583.12,-583.12 583.12,-583.12 589.12,-583.12 595.12,-589.12 595.12,-595.12 595.12,-595.12 595.12,-630.88 595.12,-630.88 595.12,-636.88 589.12,-642.88 583.12,-642.88"/>
<text text-anchor="middle" x="518.5" y="-625.58" font-family="Helvetica,sans-Serif" font-size="14.00">small:</text>
<text text-anchor="middle" x="518.5" y="-608.33" font-family="Helvetica,sans-Serif" font-size="14.00">local tweak</text>
<text text-anchor="middle" x="518.5" y="-591.08" font-family="Helvetica,sans-Serif" font-size="14.00">at named boundary</text>
</g>
<!-- eq&#45;&gt;eta_small -->
<!-- reg_contract -->
<g id="node12" class="node">
<title>reg_contract</title>
<path fill="lightgrey" stroke="black" d="M565.5,-317.5C565.5,-317.5 471.5,-317.5 471.5,-317.5 465.5,-317.5 459.5,-311.5 459.5,-305.5 459.5,-305.5 459.5,-252.5 459.5,-252.5 459.5,-246.5 465.5,-240.5 471.5,-240.5 471.5,-240.5 565.5,-240.5 565.5,-240.5 571.5,-240.5 577.5,-246.5 577.5,-252.5 577.5,-252.5 577.5,-305.5 577.5,-305.5 577.5,-311.5 571.5,-317.5 565.5,-317.5"/>
<text text-anchor="middle" x="518.5" y="-300.2" font-family="Helvetica,sans-Serif" font-size="14.00">contracts</text>
<text text-anchor="middle" x="518.5" y="-282.95" font-family="Helvetica,sans-Serif" font-size="14.00">(explicit types,</text>
<text text-anchor="middle" x="518.5" y="-265.7" font-family="Helvetica,sans-Serif" font-size="14.00">signatures,</text>
<text text-anchor="middle" x="518.5" y="-248.45" font-family="Helvetica,sans-Serif" font-size="14.00">invariants)</text>
</g>
<!-- eq&#45;&gt;reg_contract -->
<!-- b_inner -->
<g id="node16" class="node">
<title>b_inner</title>
<path fill="lightgrey" stroke="black" d="M575.62,-52C575.62,-52 461.38,-52 461.38,-52 455.38,-52 449.38,-46 449.38,-40 449.38,-40 449.38,-28 449.38,-28 449.38,-22 455.38,-16 461.38,-16 461.38,-16 575.62,-16 575.62,-16 581.62,-16 587.62,-22 587.62,-28 587.62,-28 587.62,-40 587.62,-40 587.62,-46 581.62,-52 575.62,-52"/>
<text text-anchor="middle" x="518.5" y="-29.32" font-family="Helvetica,sans-Serif" font-size="14.00">Inner: K_MAX = 5</text>
</g>
<!-- eq&#45;&gt;b_inner -->
<!-- theta_deliv -->
<g id="node3" class="node">
<title>theta_deliv</title>
<path fill="lightgrey" stroke="black" d="M582.38,-1342.25C582.38,-1342.25 454.62,-1342.25 454.62,-1342.25 448.62,-1342.25 442.62,-1336.25 442.62,-1330.25 442.62,-1330.25 442.62,-1311.75 442.62,-1311.75 442.62,-1305.75 448.62,-1299.75 454.62,-1299.75 454.62,-1299.75 582.38,-1299.75 582.38,-1299.75 588.38,-1299.75 594.38,-1305.75 594.38,-1311.75 594.38,-1311.75 594.38,-1330.25 594.38,-1330.25 594.38,-1336.25 588.38,-1342.25 582.38,-1342.25"/>
<text text-anchor="middle" x="518.5" y="-1324.95" font-family="Helvetica,sans-Serif" font-size="14.00">Refinement:</text>
<text text-anchor="middle" x="518.5" y="-1307.7" font-family="Helvetica,sans-Serif" font-size="14.00">deliverable of a run</text>
</g>
<!-- theta_skill -->
<g id="node4" class="node">
<title>theta_skill</title>
<path fill="lightgrey" stroke="black" d="M598.5,-1403.25C598.5,-1403.25 438.5,-1403.25 438.5,-1403.25 432.5,-1403.25 426.5,-1397.25 426.5,-1391.25 426.5,-1391.25 426.5,-1372.75 426.5,-1372.75 426.5,-1366.75 432.5,-1360.75 438.5,-1360.75 438.5,-1360.75 598.5,-1360.75 598.5,-1360.75 604.5,-1360.75 610.5,-1366.75 610.5,-1372.75 610.5,-1372.75 610.5,-1391.25 610.5,-1391.25 610.5,-1397.25 604.5,-1403.25 598.5,-1403.25"/>
<text text-anchor="middle" x="518.5" y="-1385.95" font-family="Helvetica,sans-Serif" font-size="14.00">Outer:</text>
<text text-anchor="middle" x="518.5" y="-1368.7" font-family="Helvetica,sans-Serif" font-size="14.00">skills / prompts / rubrics</text>
</g>
<!-- loss_refine -->
<g id="node6" class="node">
<title>loss_refine</title>
<path fill="lightgrey" stroke="black" d="M573.75,-1128.88C573.75,-1128.88 463.25,-1128.88 463.25,-1128.88 457.25,-1128.88 451.25,-1122.88 451.25,-1116.88 451.25,-1116.88 451.25,-1081.12 451.25,-1081.12 451.25,-1075.12 457.25,-1069.12 463.25,-1069.12 463.25,-1069.12 573.75,-1069.12 573.75,-1069.12 579.75,-1069.12 585.75,-1075.12 585.75,-1081.12 585.75,-1081.12 585.75,-1116.88 585.75,-1116.88 585.75,-1122.88 579.75,-1128.88 573.75,-1128.88"/>
<text text-anchor="middle" x="518.5" y="-1111.58" font-family="Helvetica,sans-Serif" font-size="14.00">critique defects</text>
<text text-anchor="middle" x="518.5" y="-1094.33" font-family="Helvetica,sans-Serif" font-size="14.00">+ gate rejections</text>
<text text-anchor="middle" x="518.5" y="-1077.08" font-family="Helvetica,sans-Serif" font-size="14.00">+ eval deltas</text>
</g>
<!-- loss_outer -->
<g id="node7" class="node">
<title>loss_outer</title>
<path fill="lightgrey" stroke="black" d="M575.25,-1189.25C575.25,-1189.25 461.75,-1189.25 461.75,-1189.25 455.75,-1189.25 449.75,-1183.25 449.75,-1177.25 449.75,-1177.25 449.75,-1158.75 449.75,-1158.75 449.75,-1152.75 455.75,-1146.75 461.75,-1146.75 461.75,-1146.75 575.25,-1146.75 575.25,-1146.75 581.25,-1146.75 587.25,-1152.75 587.25,-1158.75 587.25,-1158.75 587.25,-1177.25 587.25,-1177.25 587.25,-1183.25 581.25,-1189.25 575.25,-1189.25"/>
<text text-anchor="middle" x="518.5" y="-1171.95" font-family="Helvetica,sans-Serif" font-size="14.00">mean_loss across</text>
<text text-anchor="middle" x="518.5" y="-1154.7" font-family="Helvetica,sans-Serif" font-size="14.00">a task suite</text>
</g>
<!-- grad_guard -->
<g id="node9" class="node">
<title>grad_guard</title>
<path fill="lightgrey" stroke="black" d="M584.25,-941.88C584.25,-941.88 452.75,-941.88 452.75,-941.88 446.75,-941.88 440.75,-935.88 440.75,-929.88 440.75,-929.88 440.75,-894.12 440.75,-894.12 440.75,-888.12 446.75,-882.12 452.75,-882.12 452.75,-882.12 584.25,-882.12 584.25,-882.12 590.25,-882.12 596.25,-888.12 596.25,-894.12 596.25,-894.12 596.25,-929.88 596.25,-929.88 596.25,-935.88 590.25,-941.88 584.25,-941.88"/>
<text text-anchor="middle" x="518.5" y="-924.58" font-family="Helvetica,sans-Serif" font-size="14.00">reproducibility&#45;first:</text>
<text text-anchor="middle" x="518.5" y="-907.33" font-family="Helvetica,sans-Serif" font-size="14.00">≥2 reproductions</text>
<text text-anchor="middle" x="518.5" y="-890.08" font-family="Helvetica,sans-Serif" font-size="14.00">or unambiguous log</text>
</g>
<!-- eta_large -->
<g id="node11" class="node">
<title>eta_large</title>
<path fill="lightgrey" stroke="black" d="M578.25,-737.5C578.25,-737.5 458.75,-737.5 458.75,-737.5 452.75,-737.5 446.75,-731.5 446.75,-725.5 446.75,-725.5 446.75,-672.5 446.75,-672.5 446.75,-666.5 452.75,-660.5 458.75,-660.5 458.75,-660.5 578.25,-660.5 578.25,-660.5 584.25,-660.5 590.25,-666.5 590.25,-672.5 590.25,-672.5 590.25,-725.5 590.25,-725.5 590.25,-731.5 584.25,-737.5 578.25,-737.5"/>
<text text-anchor="middle" x="518.5" y="-720.2" font-family="Helvetica,sans-Serif" font-size="14.00">large:</text>
<text text-anchor="middle" x="518.5" y="-702.95" font-family="Helvetica,sans-Serif" font-size="14.00">architectural edit</text>
<text text-anchor="middle" x="518.5" y="-685.7" font-family="Helvetica,sans-Serif" font-size="14.00">when same defect</text>
<text text-anchor="middle" x="518.5" y="-668.45" font-family="Helvetica,sans-Serif" font-size="14.00">recurs 3×</text>
</g>
<!-- reg_layer -->
<g id="node13" class="node">
<title>reg_layer</title>
<path fill="lightgrey" stroke="black" d="M585.75,-394.88C585.75,-394.88 451.25,-394.88 451.25,-394.88 445.25,-394.88 439.25,-388.88 439.25,-382.88 439.25,-382.88 439.25,-347.12 439.25,-347.12 439.25,-341.12 445.25,-335.12 451.25,-335.12 451.25,-335.12 585.75,-335.12 585.75,-335.12 591.75,-335.12 597.75,-341.12 597.75,-347.12 597.75,-347.12 597.75,-382.88 597.75,-382.88 597.75,-388.88 591.75,-394.88 585.75,-394.88"/>
<text text-anchor="middle" x="518.5" y="-377.57" font-family="Helvetica,sans-Serif" font-size="14.00">layer boundaries</text>
<text text-anchor="middle" x="518.5" y="-360.32" font-family="Helvetica,sans-Serif" font-size="14.00">(domain ≠ transport</text>
<text text-anchor="middle" x="518.5" y="-343.07" font-family="Helvetica,sans-Serif" font-size="14.00">≠ persistence)</text>
</g>
<!-- reg_docs -->
<g id="node14" class="node">
<title>reg_docs</title>
<path fill="lightgrey" stroke="black" d="M610.5,-472.88C610.5,-472.88 426.5,-472.88 426.5,-472.88 420.5,-472.88 414.5,-466.88 414.5,-460.88 414.5,-460.88 414.5,-425.12 414.5,-425.12 414.5,-419.12 420.5,-413.12 426.5,-413.12 426.5,-413.12 610.5,-413.12 610.5,-413.12 616.5,-413.12 622.5,-419.12 622.5,-425.12 622.5,-425.12 622.5,-460.88 622.5,-460.88 622.5,-466.88 616.5,-472.88 610.5,-472.88"/>
<text text-anchor="middle" x="518.5" y="-455.57" font-family="Helvetica,sans-Serif" font-size="14.00">docs as single</text>
<text text-anchor="middle" x="518.5" y="-438.32" font-family="Helvetica,sans-Serif" font-size="14.00">source of truth</text>
<text text-anchor="middle" x="518.5" y="-421.07" font-family="Helvetica,sans-Serif" font-size="14.00">(docs&#45;as&#45;definition&#45;of&#45;done)</text>
</g>
<!-- reg_drift -->
<g id="node15" class="node">
<title>reg_drift</title>
<path fill="lightgrey" stroke="black" d="M563.62,-533.25C563.62,-533.25 473.38,-533.25 473.38,-533.25 467.38,-533.25 461.38,-527.25 461.38,-521.25 461.38,-521.25 461.38,-502.75 461.38,-502.75 461.38,-496.75 467.38,-490.75 473.38,-490.75 473.38,-490.75 563.62,-490.75 563.62,-490.75 569.62,-490.75 575.62,-496.75 575.62,-502.75 575.62,-502.75 575.62,-521.25 575.62,-521.25 575.62,-527.25 569.62,-533.25 563.62,-533.25"/>
<text text-anchor="middle" x="518.5" y="-515.95" font-family="Helvetica,sans-Serif" font-size="14.00">periodic</text>
<text text-anchor="middle" x="518.5" y="-498.7" font-family="Helvetica,sans-Serif" font-size="14.00">drift&#45;detection</text>
</g>
<!-- b_refine -->
<g id="node17" class="node">
<title>b_refine</title>
<path fill="lightgrey" stroke="black" d="M606.75,-129.88C606.75,-129.88 430.25,-129.88 430.25,-129.88 424.25,-129.88 418.25,-123.88 418.25,-117.88 418.25,-117.88 418.25,-82.12 418.25,-82.12 418.25,-76.12 424.25,-70.12 430.25,-70.12 430.25,-70.12 606.75,-70.12 606.75,-70.12 612.75,-70.12 618.75,-76.12 618.75,-82.12 618.75,-82.12 618.75,-117.88 618.75,-117.88 618.75,-123.88 612.75,-129.88 606.75,-129.88"/>
<text text-anchor="middle" x="518.5" y="-112.58" font-family="Helvetica,sans-Serif" font-size="14.00">Refinement:</text>
<text text-anchor="middle" x="518.5" y="-95.33" font-family="Helvetica,sans-Serif" font-size="14.00">halve per iter,</text>
<text text-anchor="middle" x="518.5" y="-78.08" font-family="Helvetica,sans-Serif" font-size="14.00">stop on regression/plateau</text>
</g>
<!-- b_outer -->
<g id="node18" class="node">
<title>b_outer</title>
<path fill="lightgrey" stroke="black" d="M590.62,-190.25C590.62,-190.25 446.38,-190.25 446.38,-190.25 440.38,-190.25 434.38,-184.25 434.38,-178.25 434.38,-178.25 434.38,-159.75 434.38,-159.75 434.38,-153.75 440.38,-147.75 446.38,-147.75 446.38,-147.75 590.62,-147.75 590.62,-147.75 596.62,-147.75 602.62,-153.75 602.62,-159.75 602.62,-159.75 602.62,-178.25 602.62,-178.25 602.62,-184.25 596.62,-190.25 590.62,-190.25"/>
<text text-anchor="middle" x="518.5" y="-172.95" font-family="Helvetica,sans-Serif" font-size="14.00">Outer: N epochs,</text>
<text text-anchor="middle" x="518.5" y="-155.7" font-family="Helvetica,sans-Serif" font-size="14.00">rollback on regression</text>
</g>
</g>
</svg>
