<?xml version="1.0" encoding="UTF-8" standalone="no"?>
<!DOCTYPE svg PUBLIC "-//W3C//DTD SVG 1.1//EN"
 "http://www.w3.org/Graphics/SVG/1.1/DTD/svg11.dtd">
<!-- Generated by graphviz version 12.2.1 (0)
 -->
<!-- Title: mental_model_ldd Pages: 1 -->
<svg width="675pt" height="1778pt"
 viewBox="0.00 0.00 674.75 1778.00" xmlns="http://www.w3.org/2000/svg" xmlns:xlink="http://www.w3.org/1999/xlink">
<g id="graph0" class="graph" transform="scale(1 1) rotate(0) translate(4 1774)">
<title>mental_model_ldd</title>
<polygon fill="white" stroke="none" points="-4,4 -4,-1774 670.75,-1774 670.75,4 -4,4"/>
<text text-anchor="start" x="138.75" y="-1753.7" font-family="Helvetica,sans-Serif" font-weight="bold" font-size="14.00">LDD mental model — Gradient Descent for Agents</text>
<text text-anchor="start" x="129.75" y="-1743.5" font-family="Helvetica,sans-Serif" font-size="10.00">One page: four parameter spaces, what is the loss, what regularizes, what budgets.</text>
<g id="clust1" class="cluster">
<title>cluster_core</title>
<path fill="#f5f5f5" stroke="#333333" d="M20,-842C20,-842 402.25,-842 402.25,-842 408.25,-842 414.25,-848 414.25,-854 414.25,-854 414.25,-919 414.25,-919 414.25,-925 408.25,-931 402.25,-931 402.25,-931 20,-931 20,-931 14,-931 8,-925 8,-919 8,-919 8,-854 8,-854 8,-848 14,-842 20,-842"/>
<text text-anchor="middle" x="211.12" y="-913.7" font-family="Helvetica,sans-Serif" font-size="14.00">core equation (applied per axis)</text>
</g>
<g id="clust2" class="cluster">
<title>cluster_theta</title>
<path fill="#e8f4fd" stroke="#1f77b4" d="M446.25,-1463C446.25,-1463 648.25,-1463 648.25,-1463 654.25,-1463 660.25,-1469 660.25,-1475 660.25,-1475 660.25,-1718 660.25,-1718 660.25,-1724 654.25,-1730 648.25,-1730 648.25,-1730 446.25,-1730 446.25,-1730 440.25,-1730 434.25,-1724 434.25,-1718 434.25,-1718 434.25,-1475 434.25,-1475 434.25,-1469 440.25,-1463 446.25,-1463"/>
<text text-anchor="start" x="442.25" y="-1713.7" font-family="Helvetica,sans-Serif" font-weight="bold" font-size="14.00">parameter (what changes)</text>
</g>
<g id="clust3" class="cluster">
<title>cluster_loss</title>
<path fill="#fef4ea" stroke="#ff7f0e" d="M482,-1138C482,-1138 611.5,-1138 611.5,-1138 617.5,-1138 623.5,-1144 623.5,-1150 623.5,-1150 623.5,-1443 623.5,-1443 623.5,-1449 617.5,-1455 611.5,-1455 611.5,-1455 482,-1455 482,-1455 476,-1455 470,-1449 470,-1443 470,-1443 470,-1150 470,-1150 470,-1144 476,-1138 482,-1138"/>
<text text-anchor="start" x="517.88" y="-1438.7" font-family="Helvetica,sans-Serif" font-weight="bold" font-size="14.00">L (loss)</text>
</g>
<g id="clust4" class="cluster">
<title>cluster_grad</title>
<path fill="#e6fbe6" stroke="#2ca02c" d="M451.25,-934C451.25,-934 642.25,-934 642.25,-934 648.25,-934 654.25,-940 654.25,-946 654.25,-946 654.25,-1118 654.25,-1118 654.25,-1124 648.25,-1130 642.25,-1130 642.25,-1130 451.25,-1130 451.25,-1130 445.25,-1130 439.25,-1124 439.25,-1118 439.25,-1118 439.25,-946 439.25,-946 439.25,-940 445.25,-934 451.25,-934"/>
<text text-anchor="start" x="495" y="-1113.7" font-family="Helvetica,sans-Serif" font-weight="bold" font-size="14.00">∇L (gradient)</text>
</g>
<g id="clust5" class="cluster">
<title>cluster_eta</title>
<path fill="#fdeaea" stroke="#d62728" d="M474.12,-730C474.12,-730 619.38,-730 619.38,-730 625.38,-730 631.38,-736 631.38,-742 631.38,-742 631.38,-914 631.38,-914 631.38,-920 625.38,-926 619.38,-926 619.38,-926 474.12,-926 474.12,-926 468.12,-926 462.12,-920 462.12,-914 462.12,-914 462.12,-742 462.12,-742 462.12,-736 468.12,-730 474.12,-730"/>
<text text-anchor="start" x="481.88" y="-909.7" font-family="Helvetica,sans-Serif" font-weight="bold" font-size="14.00">η (learning rate)</text>
</g>
<g id="clust6" class="cluster">
<title>cluster_reg</title>
<path fill="#f5ebfd" stroke="#9467bd" d="M446.75,-387C446.75,-387 646.75,-387 646.75,-387 652.75,-387 658.75,-393 658.75,-399 658.75,-399 658.75,-710 658.75,-710 658.75,-716 652.75,-722 646.75,-722 646.75,-722 446.75,-722 446.75,-722 440.75,-722 434.75,-716 434.75,-710 434.75,-710 434.75,-399 434.75,-399 434.75,-393 440.75,-387 446.75,-387"/>
<text text-anchor="start" x="503.62" y="-705.7" font-family="Helvetica,sans-Serif" font-weight="bold" font-size="14.00">regularizer</text>
</g>
<g id="clust7" class="cluster">
<title>cluster_budget</title>
<path fill="#fff9e6" stroke="#d4a017" d="M450.5,-8C450.5,-8 643,-8 643,-8 649,-8 655,-14 655,-20 655,-20 655,-367 655,-367 655,-373 649,-379 643,-379 643,-379 450.5,-379 450.5,-379 444.5,-379 438.5,-373 438.5,-367 438.5,-367 438.5,-20 438.5,-20 438.5,-14 444.5,-8 450.5,-8"/>
<text text-anchor="start" x="514.88" y="-362.7" font-family="Helvetica,sans-Serif" font-weight="bold" font-size="14.00">budgets</text>
</g>
<!-- eq -->
<g id="node1" class="node">
<title>eq</title>
<path fill="#ffffff" stroke="black" d="M394.25,-897.5C394.25,-897.5 28,-897.5 28,-897.5 22,-897.5 16,-891.5 16,-885.5 16,-885.5 16,-862.5 16,-862.5 16,-856.5 22,-850.5 28,-850.5 28,-850.5 394.25,-850.5 394.25,-850.5 400.25,-850.5 406.25,-856.5 406.25,-862.5 406.25,-862.5 406.25,-885.5 406.25,-885.5 406.25,-891.5 400.25,-897.5 394.25,-897.5"/>
<text text-anchor="middle" x="211.12" y="-880.2" font-family="Courier,monospace" font-size="14.00">x_{k+1} = x_k &#160;− &#160;η · ∇L(x_k) &#160;+ &#160;regularizer(x_k)</text>
<text text-anchor="middle" x="211.12" y="-860.7" font-family="Courier,monospace" font-size="14.00">with x ∈ { θ code, y deliverable, m method, t thought }</text>
</g>
<!-- theta_code -->
<g id="node2" class="node">
<title>theta_code</title>
<path fill="lightgrey" stroke="black" d="M612.12,-1513.25C612.12,-1513.25 481.38,-1513.25 481.38,-1513.25 475.38,-1513.25 469.38,-1507.25 469.38,-1501.25 469.38,-1501.25 469.38,-1482.75 469.38,-1482.75 469.38,-1476.75 475.38,-1470.75 481.38,-1470.75 481.38,-1470.75 612.12,-1470.75 612.12,-1470.75 618.12,-1470.75 624.12,-1476.75 624.12,-1482.75 624.12,-1482.75 624.12,-1501.25 624.12,-1501.25 624.12,-1507.25 618.12,-1513.25 612.12,-1513.25"/>
<text text-anchor="middle" x="546.75" y="-1495.95" font-family="Helvetica,sans-Serif" font-size="14.00">Inner (θ):</text>
<text text-anchor="middle" x="546.75" y="-1478.7" font-family="Helvetica,sans-Serif" font-size="14.00">code of current task</text>
</g>
<!-- eq&#45;&gt;theta_code -->
<!-- loss_inner -->
<g id="node6" class="node">
<title>loss_inner</title>
<path fill="lightgrey" stroke="black" d="M594.88,-1205.88C594.88,-1205.88 498.62,-1205.88 498.62,-1205.88 492.62,-1205.88 486.62,-1199.88 486.62,-1193.88 486.62,-1193.88 486.62,-1158.12 486.62,-1158.12 486.62,-1152.12 492.62,-1146.12 498.62,-1146.12 498.62,-1146.12 594.88,-1146.12 594.88,-1146.12 600.88,-1146.12 606.88,-1152.12 606.88,-1158.12 606.88,-1158.12 606.88,-1193.88 606.88,-1193.88 606.88,-1199.88 600.88,-1205.88 594.88,-1205.88"/>
<text text-anchor="middle" x="546.75" y="-1188.58" font-family="Helvetica,sans-Serif" font-size="14.00">failing test,</text>
<text text-anchor="middle" x="546.75" y="-1171.33" font-family="Helvetica,sans-Serif" font-size="14.00">gate rejection,</text>
<text text-anchor="middle" x="546.75" y="-1154.08" font-family="Helvetica,sans-Serif" font-size="14.00">rubric violation</text>
</g>
<!-- eq&#45;&gt;loss_inner -->
<!-- grad_how -->
<g id="node10" class="node">
<title>grad_how</title>
<path fill="lightgrey" stroke="black" d="M634.25,-1019.5C634.25,-1019.5 459.25,-1019.5 459.25,-1019.5 453.25,-1019.5 447.25,-1013.5 447.25,-1007.5 447.25,-1007.5 447.25,-954.5 447.25,-954.5 447.25,-948.5 453.25,-942.5 459.25,-942.5 459.25,-942.5 634.25,-942.5 634.25,-942.5 640.25,-942.5 646.25,-948.5 646.25,-954.5 646.25,-954.5 646.25,-1007.5 646.25,-1007.5 646.25,-1013.5 640.25,-1019.5 634.25,-1019.5"/>
<text text-anchor="middle" x="546.75" y="-1002.2" font-family="Helvetica,sans-Serif" font-size="14.00">5&#45;why&#45;by&#45;layer:</text>
<text text-anchor="middle" x="546.75" y="-984.95" font-family="Helvetica,sans-Serif" font-size="14.00">symptom → mechanism →</text>
<text text-anchor="middle" x="546.75" y="-967.7" font-family="Helvetica,sans-Serif" font-size="14.00">contract → structural →</text>
<text text-anchor="middle" x="546.75" y="-950.45" font-family="Helvetica,sans-Serif" font-size="14.00">conceptual origin</text>
</g>
<!-- eq&#45;&gt;grad_how -->
<!-- eta_small -->
<g id="node12" class="node">
<title>eta_small</title>
<path fill="lightgrey" stroke="black" d="M611.38,-797.88C611.38,-797.88 482.12,-797.88 482.12,-797.88 476.12,-797.88 470.12,-791.88 470.12,-785.88 470.12,-785.88 470.12,-750.12 470.12,-750.12 470.12,-744.12 476.12,-738.12 482.12,-738.12 482.12,-738.12 611.38,-738.12 611.38,-738.12 617.38,-738.12 623.38,-744.12 623.38,-750.12 623.38,-750.12 623.38,-785.88 623.38,-785.88 623.38,-791.88 617.38,-797.88 611.38,-797.88"/>
<text text-anchor="middle" x="546.75" y="-780.58" font-family="Helvetica,sans-Serif" font-size="14.00">small:</text>
<text text-anchor="middle" x="546.75" y="-763.33" font-family="Helvetica,sans-Serif" font-size="14.00">local tweak</text>
<text text-anchor="middle" x="546.75" y="-746.08" font-family="Helvetica,sans-Serif" font-size="14.00">at named boundary</text>
</g>
<!-- eq&#45;&gt;eta_small -->
<!-- reg_contract -->
<g id="node14" class="node">
<title>reg_contract</title>
<path fill="lightgrey" stroke="black" d="M593.75,-472.5C593.75,-472.5 499.75,-472.5 499.75,-472.5 493.75,-472.5 487.75,-466.5 487.75,-460.5 487.75,-460.5 487.75,-407.5 487.75,-407.5 487.75,-401.5 493.75,-395.5 499.75,-395.5 499.75,-395.5 593.75,-395.5 593.75,-395.5 599.75,-395.5 605.75,-401.5 605.75,-407.5 605.75,-407.5 605.75,-460.5 605.75,-460.5 605.75,-466.5 599.75,-472.5 593.75,-472.5"/>
<text text-anchor="middle" x="546.75" y="-455.2" font-family="Helvetica,sans-Serif" font-size="14.00">contracts</text>
<text text-anchor="middle" x="546.75" y="-437.95" font-family="Helvetica,sans-Serif" font-size="14.00">(explicit types,</text>
<text text-anchor="middle" x="546.75" y="-420.7" font-family="Helvetica,sans-Serif" font-size="14.00">signatures,</text>
<text text-anchor="middle" x="546.75" y="-403.45" font-family="Helvetica,sans-Serif" font-size="14.00">invariants)</text>
</g>
<!-- eq&#45;&gt;reg_contract -->
<!-- b_inner -->
<g id="node18" class="node">
<title>b_inner</title>
<path fill="lightgrey" stroke="black" d="M603.88,-52C603.88,-52 489.62,-52 489.62,-52 483.62,-52 477.62,-46 477.62,-40 477.62,-40 477.62,-28 477.62,-28 477.62,-22 483.62,-16 489.62,-16 489.62,-16 603.88,-16 603.88,-16 609.88,-16 615.88,-22 615.88,-28 615.88,-28 615.88,-40 615.88,-40 615.88,-46 609.88,-52 603.88,-52"/>
<text text-anchor="middle" x="546.75" y="-29.32" font-family="Helvetica,sans-Serif" font-size="14.00">Inner: K_MAX = 5</text>
</g>
<!-- eq&#45;&gt;b_inner -->
<!-- theta_deliv -->
<g id="node3" class="node">
<title>theta_deliv</title>
<path fill="lightgrey" stroke="black" d="M610.62,-1574.25C610.62,-1574.25 482.88,-1574.25 482.88,-1574.25 476.88,-1574.25 470.88,-1568.25 470.88,-1562.25 470.88,-1562.25 470.88,-1543.75 470.88,-1543.75 470.88,-1537.75 476.88,-1531.75 482.88,-1531.75 482.88,-1531.75 610.62,-1531.75 610.62,-1531.75 616.62,-1531.75 622.62,-1537.75 622.62,-1543.75 622.62,-1543.75 622.62,-1562.25 622.62,-1562.25 622.62,-1568.25 616.62,-1574.25 610.62,-1574.25"/>
<text text-anchor="middle" x="546.75" y="-1556.95" font-family="Helvetica,sans-Serif" font-size="14.00">Refinement (y):</text>
<text text-anchor="middle" x="546.75" y="-1539.7" font-family="Helvetica,sans-Serif" font-size="14.00">deliverable of a run</text>
</g>
<!-- theta_skill -->
<g id="node4" class="node">
<title>theta_skill</title>
<path fill="lightgrey" stroke="black" d="M626.75,-1635.25C626.75,-1635.25 466.75,-1635.25 466.75,-1635.25 460.75,-1635.25 454.75,-1629.25 454.75,-1623.25 454.75,-1623.25 454.75,-1604.75 454.75,-1604.75 454.75,-1598.75 460.75,-1592.75 466.75,-1592.75 466.75,-1592.75 626.75,-1592.75 626.75,-1592.75 632.75,-1592.75 638.75,-1598.75 638.75,-1604.75 638.75,-1604.75 638.75,-1623.25 638.75,-1623.25 638.75,-1629.25 632.75,-1635.25 626.75,-1635.25"/>
<text text-anchor="middle" x="546.75" y="-1617.95" font-family="Helvetica,sans-Serif" font-size="14.00">Outer (m):</text>
<text text-anchor="middle" x="546.75" y="-1600.7" font-family="Helvetica,sans-Serif" font-size="14.00">skills / prompts / rubrics</text>
</g>
<!-- theta_thought -->
<g id="node5" class="node">
<title>theta_thought</title>
<path fill="lightgrey" stroke="black" d="M597.88,-1696.25C597.88,-1696.25 495.62,-1696.25 495.62,-1696.25 489.62,-1696.25 483.62,-1690.25 483.62,-1684.25 483.62,-1684.25 483.62,-1665.75 483.62,-1665.75 483.62,-1659.75 489.62,-1653.75 495.62,-1653.75 495.62,-1653.75 597.88,-1653.75 597.88,-1653.75 603.88,-1653.75 609.88,-1659.75 609.88,-1665.75 609.88,-1665.75 609.88,-1684.25 609.88,-1684.25 609.88,-1690.25 603.88,-1696.25 597.88,-1696.25"/>
<text text-anchor="middle" x="546.75" y="-1678.95" font-family="Helvetica,sans-Serif" font-size="14.00">CoT (t, v0.8.0):</text>
<text text-anchor="middle" x="546.75" y="-1661.7" font-family="Helvetica,sans-Serif" font-size="14.00">reasoning chain</text>
</g>
<!-- loss_refine -->
<g id="node7" class="node">
<title>loss_refine</title>
<path fill="lightgrey" stroke="black" d="M602,-1283.88C602,-1283.88 491.5,-1283.88 491.5,-1283.88 485.5,-1283.88 479.5,-1277.88 479.5,-1271.88 479.5,-1271.88 479.5,-1236.12 479.5,-1236.12 479.5,-1230.12 485.5,-1224.12 491.5,-1224.12 491.5,-1224.12 602,-1224.12 602,-1224.12 608,-1224.12 614,-1230.12 614,-1236.12 614,-1236.12 614,-1271.88 614,-1271.88 614,-1277.88 608,-1283.88 602,-1283.88"/>
<text text-anchor="middle" x="546.75" y="-1266.58" font-family="Helvetica,sans-Serif" font-size="14.00">critique defects</text>
<text text-anchor="middle" x="546.75" y="-1249.33" font-family="Helvetica,sans-Serif" font-size="14.00">+ gate rejections</text>
<text text-anchor="middle" x="546.75" y="-1232.08" font-family="Helvetica,sans-Serif" font-size="14.00">+ eval deltas</text>
</g>
<!-- loss_outer -->
<g id="node8" class="node">
<title>loss_outer</title>
<path fill="lightgrey" stroke="black" d="M603.5,-1344.25C603.5,-1344.25 490,-1344.25 490,-1344.25 484,-1344.25 478,-1338.25 478,-1332.25 478,-1332.25 478,-1313.75 478,-1313.75 478,-1307.75 484,-1301.75 490,-1301.75 490,-1301.75 603.5,-1301.75 603.5,-1301.75 609.5,-1301.75 615.5,-1307.75 615.5,-1313.75 615.5,-1313.75 615.5,-1332.25 615.5,-1332.25 615.5,-1338.25 609.5,-1344.25 603.5,-1344.25"/>
<text text-anchor="middle" x="546.75" y="-1326.95" font-family="Helvetica,sans-Serif" font-size="14.00">mean_loss across</text>
<text text-anchor="middle" x="546.75" y="-1309.7" font-family="Helvetica,sans-Serif" font-size="14.00">a task suite</text>
</g>
<!-- loss_cot -->
<g id="node9" class="node">
<title>loss_cot</title>
<path fill="lightgrey" stroke="black" d="M602,-1421.88C602,-1421.88 491.5,-1421.88 491.5,-1421.88 485.5,-1421.88 479.5,-1415.88 479.5,-1409.88 479.5,-1409.88 479.5,-1374.12 479.5,-1374.12 479.5,-1368.12 485.5,-1362.12 491.5,-1362.12 491.5,-1362.12 602,-1362.12 602,-1362.12 608,-1362.12 614,-1368.12 614,-1374.12 614,-1374.12 614,-1409.88 614,-1409.88 614,-1415.88 608,-1421.88 602,-1421.88"/>
<text text-anchor="middle" x="546.75" y="-1404.58" font-family="Helvetica,sans-Serif" font-size="14.00">per&#45;step dialectic</text>
<text text-anchor="middle" x="546.75" y="-1387.33" font-family="Helvetica,sans-Serif" font-size="14.00">+ ground&#45;truth</text>
<text text-anchor="middle" x="546.75" y="-1370.08" font-family="Helvetica,sans-Serif" font-size="14.00">verification</text>
</g>
<!-- grad_guard -->
<g id="node11" class="node">
<title>grad_guard</title>
<path fill="lightgrey" stroke="black" d="M612.5,-1096.88C612.5,-1096.88 481,-1096.88 481,-1096.88 475,-1096.88 469,-1090.88 469,-1084.88 469,-1084.88 469,-1049.12 469,-1049.12 469,-1043.12 475,-1037.12 481,-1037.12 481,-1037.12 612.5,-1037.12 612.5,-1037.12 618.5,-1037.12 624.5,-1043.12 624.5,-1049.12 624.5,-1049.12 624.5,-1084.88 624.5,-1084.88 624.5,-1090.88 618.5,-1096.88 612.5,-1096.88"/>
<text text-anchor="middle" x="546.75" y="-1079.58" font-family="Helvetica,sans-Serif" font-size="14.00">reproducibility&#45;first:</text>
<text text-anchor="middle" x="546.75" y="-1062.33" font-family="Helvetica,sans-Serif" font-size="14.00">≥2 reproductions</text>
<text text-anchor="middle" x="546.75" y="-1045.08" font-family="Helvetica,sans-Serif" font-size="14.00">or unambiguous log</text>
</g>
<!-- eta_large -->
<g id="node13" class="node">
<title>eta_large</title>
<path fill="lightgrey" stroke="black" d="M606.5,-892.5C606.5,-892.5 487,-892.5 487,-892.5 481,-892.5 475,-886.5 475,-880.5 475,-880.5 475,-827.5 475,-827.5 475,-821.5 481,-815.5 487,-815.5 487,-815.5 606.5,-815.5 606.5,-815.5 612.5,-815.5 618.5,-821.5 618.5,-827.5 618.5,-827.5 618.5,-880.5 618.5,-880.5 618.5,-886.5 612.5,-892.5 606.5,-892.5"/>
<text text-anchor="middle" x="546.75" y="-875.2" font-family="Helvetica,sans-Serif" font-size="14.00">large:</text>
<text text-anchor="middle" x="546.75" y="-857.95" font-family="Helvetica,sans-Serif" font-size="14.00">architectural edit</text>
<text text-anchor="middle" x="546.75" y="-840.7" font-family="Helvetica,sans-Serif" font-size="14.00">when same defect</text>
<text text-anchor="middle" x="546.75" y="-823.45" font-family="Helvetica,sans-Serif" font-size="14.00">recurs 3×</text>
</g>
<!-- reg_layer -->
<g id="node15" class="node">
<title>reg_layer</title>
<path fill="lightgrey" stroke="black" d="M614,-549.88C614,-549.88 479.5,-549.88 479.5,-549.88 473.5,-549.88 467.5,-543.88 467.5,-537.88 467.5,-537.88 467.5,-502.12 467.5,-502.12 467.5,-496.12 473.5,-490.12 479.5,-490.12 479.5,-490.12 614,-490.12 614,-490.12 620,-490.12 626,-496.12 626,-502.12 626,-502.12 626,-537.88 626,-537.88 626,-543.88 620,-549.88 614,-549.88"/>
<text text-anchor="middle" x="546.75" y="-532.58" font-family="Helvetica,sans-Serif" font-size="14.00">layer boundaries</text>
<text text-anchor="middle" x="546.75" y="-515.33" font-family="Helvetica,sans-Serif" font-size="14.00">(domain ≠ transport</text>
<text text-anchor="middle" x="546.75" y="-498.07" font-family="Helvetica,sans-Serif" font-size="14.00">≠ persistence)</text>
</g>
<!-- reg_docs -->
<g id="node16" class="node">
<title>reg_docs</title>
<path fill="lightgrey" stroke="black" d="M638.75,-627.88C638.75,-627.88 454.75,-627.88 454.75,-627.88 448.75,-627.88 442.75,-621.88 442.75,-615.88 442.75,-615.88 442.75,-580.12 442.75,-580.12 442.75,-574.12 448.75,-568.12 454.75,-568.12 454.75,-568.12 638.75,-568.12 638.75,-568.12 644.75,-568.12 650.75,-574.12 650.75,-580.12 650.75,-580.12 650.75,-615.88 650.75,-615.88 650.75,-621.88 644.75,-627.88 638.75,-627.88"/>
<text text-anchor="middle" x="546.75" y="-610.58" font-family="Helvetica,sans-Serif" font-size="14.00">docs as single</text>
<text text-anchor="middle" x="546.75" y="-593.33" font-family="Helvetica,sans-Serif" font-size="14.00">source of truth</text>
<text text-anchor="middle" x="546.75" y="-576.08" font-family="Helvetica,sans-Serif" font-size="14.00">(docs&#45;as&#45;definition&#45;of&#45;done)</text>
</g>
<!-- reg_drift -->
<g id="node17" class="node">
<title>reg_drift</title>
<path fill="lightgrey" stroke="black" d="M591.88,-688.25C591.88,-688.25 501.62,-688.25 501.62,-688.25 495.62,-688.25 489.62,-682.25 489.62,-676.25 489.62,-676.25 489.62,-657.75 489.62,-657.75 489.62,-651.75 495.62,-645.75 501.62,-645.75 501.62,-645.75 591.88,-645.75 591.88,-645.75 597.88,-645.75 603.88,-651.75 603.88,-657.75 603.88,-657.75 603.88,-676.25 603.88,-676.25 603.88,-682.25 597.88,-688.25 591.88,-688.25"/>
<text text-anchor="middle" x="546.75" y="-670.95" font-family="Helvetica,sans-Serif" font-size="14.00">periodic</text>
<text text-anchor="middle" x="546.75" y="-653.7" font-family="Helvetica,sans-Serif" font-size="14.00">drift&#45;detection</text>
</g>
<!-- b_refine -->
<g id="node19" class="node">
<title>b_refine</title>
<path fill="lightgrey" stroke="black" d="M635,-129.88C635,-129.88 458.5,-129.88 458.5,-129.88 452.5,-129.88 446.5,-123.88 446.5,-117.88 446.5,-117.88 446.5,-82.12 446.5,-82.12 446.5,-76.12 452.5,-70.12 458.5,-70.12 458.5,-70.12 635,-70.12 635,-70.12 641,-70.12 647,-76.12 647,-82.12 647,-82.12 647,-117.88 647,-117.88 647,-123.88 641,-129.88 635,-129.88"/>
<text text-anchor="middle" x="546.75" y="-112.58" font-family="Helvetica,sans-Serif" font-size="14.00">Refinement:</text>
<text text-anchor="middle" x="546.75" y="-95.33" font-family="Helvetica,sans-Serif" font-size="14.00">halve per iter,</text>
<text text-anchor="middle" x="546.75" y="-78.08" font-family="Helvetica,sans-Serif" font-size="14.00">stop on regression/plateau</text>
</g>
<!-- b_outer -->
<g id="node20" class="node">
<title>b_outer</title>
<path fill="lightgrey" stroke="black" d="M618.88,-190.25C618.88,-190.25 474.62,-190.25 474.62,-190.25 468.62,-190.25 462.62,-184.25 462.62,-178.25 462.62,-178.25 462.62,-159.75 462.62,-159.75 462.62,-153.75 468.62,-147.75 474.62,-147.75 474.62,-147.75 618.88,-147.75 618.88,-147.75 624.88,-147.75 630.88,-153.75 630.88,-159.75 630.88,-159.75 630.88,-178.25 630.88,-178.25 630.88,-184.25 624.88,-190.25 618.88,-190.25"/>
<text text-anchor="middle" x="546.75" y="-172.95" font-family="Helvetica,sans-Serif" font-size="14.00">Outer: N epochs,</text>
<text text-anchor="middle" x="546.75" y="-155.7" font-family="Helvetica,sans-Serif" font-size="14.00">rollback on regression</text>
</g>
<!-- b_cot -->
<g id="node21" class="node">
<title>b_cot</title>
<path fill="lightgrey" stroke="black" d="M595.62,-267.88C595.62,-267.88 497.88,-267.88 497.88,-267.88 491.88,-267.88 485.88,-261.88 485.88,-255.88 485.88,-255.88 485.88,-220.12 485.88,-220.12 485.88,-214.12 491.88,-208.12 497.88,-208.12 497.88,-208.12 595.62,-208.12 595.62,-208.12 601.62,-208.12 607.62,-214.12 607.62,-220.12 607.62,-220.12 607.62,-255.88 607.62,-255.88 607.62,-261.88 601.62,-267.88 595.62,-267.88"/>
<text text-anchor="middle" x="546.75" y="-250.57" font-family="Helvetica,sans-Serif" font-size="14.00">CoT: per&#45;chain</text>
<text text-anchor="middle" x="546.75" y="-233.32" font-family="Helvetica,sans-Serif" font-size="14.00">max_steps,</text>
<text text-anchor="middle" x="546.75" y="-216.07" font-family="Helvetica,sans-Serif" font-size="14.00">backtracks ≤ 3</text>
</g>
<!-- b_ladder -->
<g id="node22" class="node">
<title>b_ladder</title>
<path fill="#ffeecc" stroke="black" d="M624.12,-345.88C624.12,-345.88 469.38,-345.88 469.38,-345.88 463.38,-345.88 457.38,-339.88 457.38,-333.88 457.38,-333.88 457.38,-298.12 457.38,-298.12 457.38,-292.12 463.38,-286.12 469.38,-286.12 469.38,-286.12 624.12,-286.12 624.12,-286.12 630.12,-286.12 636.12,-292.12 636.12,-298.12 636.12,-298.12 636.12,-333.88 636.12,-333.88 636.12,-339.88 630.12,-345.88 624.12,-345.88"/>
<text text-anchor="middle" x="546.75" y="-328.57" font-family="Helvetica,sans-Serif" font-size="14.00">thinking&#45;levels L0..L4</text>
<text text-anchor="middle" x="546.75" y="-311.32" font-family="Helvetica,sans-Serif" font-size="14.00">(step&#45;size controller,</text>
<text text-anchor="middle" x="546.75" y="-294.07" font-family="Helvetica,sans-Serif" font-size="14.00">picked before any loop)</text>
</g>
</g>
</svg>
