<?xml version="1.0" encoding="UTF-8" standalone="no"?>
<!DOCTYPE svg PUBLIC "-//W3C//DTD SVG 1.1//EN"
 "http://www.w3.org/Graphics/SVG/1.1/DTD/svg11.dtd">
<!-- Generated by graphviz version 12.2.1 (0)
 -->
<!-- Title: metric_algebra Pages: 1 -->
<svg width="1022pt" height="566pt"
 viewBox="0.00 0.00 1021.88 566.00" xmlns="http://www.w3.org/2000/svg" xmlns:xlink="http://www.w3.org/1999/xlink">
<g id="graph0" class="graph" transform="scale(1 1) rotate(0) translate(4 562)">
<title>metric_algebra</title>
<g id="clust1" class="cluster">
<title>cluster_primitives</title>
<path fill="#f4f9fc" stroke="#5b8db8" stroke-dasharray="5,2" d="M20,-108.38C20,-108.38 394,-108.38 394,-108.38 400,-108.38 406,-114.38 406,-120.38 406,-120.38 406,-466 406,-466 406,-472 400,-478 394,-478 394,-478 20,-478 20,-478 14,-478 8,-472 8,-466 8,-466 8,-120.38 8,-120.38 8,-114.38 14,-108.38 20,-108.38"/>
<text text-anchor="start" x="16" y="-464.55" font-family="Helvetica,sans-Serif" font-weight="bold" font-size="11.00">Five primitives</text>
</g>
<g id="clust2" class="cluster">
<title>cluster_compose</title>
<path fill="#fffbf0" stroke="#b88830" stroke-dasharray="5,2" d="M426,-256.5C426,-256.5 865,-256.5 865,-256.5 871,-256.5 877,-262.5 877,-268.5 877,-268.5 877,-328.25 877,-328.25 877,-334.25 871,-340.25 865,-340.25 865,-340.25 426,-340.25 426,-340.25 420,-340.25 414,-334.25 414,-328.25 414,-328.25 414,-268.5 414,-268.5 414,-262.5 420,-256.5 426,-256.5"/>
<text text-anchor="start" x="422" y="-326.8" font-family="Helvetica,sans-Serif" font-weight="bold" font-size="11.00">Composition algebra</text>
</g>
<g id="clust3" class="cluster">
<title>cluster_gate</title>
<path fill="#f2fbf2" stroke="#4c8a4c" stroke-dasharray="5,2" d="M426,-8C426,-8 691,-8 691,-8 697,-8 703,-14 703,-20 703,-20 703,-209.25 703,-209.25 703,-215.25 697,-221.25 691,-221.25 691,-221.25 426,-221.25 426,-221.25 420,-221.25 414,-215.25 414,-209.25 414,-209.25 414,-20 414,-20 414,-14 420,-8 426,-8"/>
<text text-anchor="start" x="422" y="-207.8" font-family="Helvetica,sans-Serif" font-weight="bold" font-size="11.00">Calibration gate</text>
</g>
<!-- metric -->
<g id="node1" class="node">
<title>metric</title>
<path fill="#e8f4f8" stroke="#5b8db8" d="M385.62,-448.5C385.62,-448.5 220.38,-448.5 220.38,-448.5 214.38,-448.5 208.38,-442.5 208.38,-436.5 208.38,-436.5 208.38,-389.5 208.38,-389.5 208.38,-383.5 214.38,-377.5 220.38,-377.5 220.38,-377.5 385.62,-377.5 385.62,-377.5 391.62,-377.5 397.62,-383.5 397.62,-389.5 397.62,-389.5 397.62,-436.5 397.62,-436.5 397.62,-442.5 391.62,-448.5 385.62,-448.5"/>
<text text-anchor="middle" x="303" y="-435" font-family="Helvetica,sans-Serif" font-size="10.00">Metric</text>
<text text-anchor="middle" x="303" y="-422.25" font-family="Helvetica,sans-Serif" font-size="10.00">Observation → ℝ</text>
<text text-anchor="middle" x="303" y="-397.5" font-family="Helvetica,sans-Serif" font-size="10.00">kind ∈ {bounded, positive, signed}</text>
<text text-anchor="middle" x="303" y="-384.75" font-family="Helvetica,sans-Serif" font-size="10.00">normalize() → [0, 1]</text>
</g>
<!-- loss -->
<g id="node2" class="node">
<title>loss</title>
<path fill="#e8f4f8" stroke="#5b8db8" d="M367,-316.75C367,-316.75 249,-316.75 249,-316.75 243,-316.75 237,-310.75 237,-304.75 237,-304.75 237,-270.5 237,-270.5 237,-264.5 243,-258.5 249,-258.5 249,-258.5 367,-258.5 367,-258.5 373,-258.5 379,-264.5 379,-270.5 379,-270.5 379,-304.75 379,-304.75 379,-310.75 373,-316.75 367,-316.75"/>
<text text-anchor="middle" x="308" y="-303.25" font-family="Helvetica,sans-Serif" font-size="10.00">Loss</text>
<text text-anchor="middle" x="308" y="-290.5" font-family="Helvetica,sans-Serif" font-size="10.00">θ → ℝ</text>
<text text-anchor="middle" x="308" y="-265.75" font-family="Helvetica,sans-Serif" font-size="10.00">L(θ) = metric.observed(θ)</text>
</g>
<!-- metric&#45;&gt;loss -->
<g id="edge1" class="edge">
<title>metric&#45;&gt;loss</title>
<path fill="none" stroke="#444444" d="M304.41,-377.3C305.02,-362.2 305.74,-344.4 306.37,-328.73"/>
<polygon fill="#444444" stroke="#444444" points="309.87,-328.88 306.78,-318.75 302.88,-328.6 309.87,-328.88"/>
</g>
<!-- ws -->
<g id="node6" class="node">
<title>ws</title>
<path fill="#fff5dd" stroke="#b88830" d="M564.38,-305.62C564.38,-305.62 433.62,-305.62 433.62,-305.62 427.62,-305.62 421.62,-299.62 421.62,-293.62 421.62,-293.62 421.62,-281.62 421.62,-281.62 421.62,-275.62 427.62,-269.62 433.62,-269.62 433.62,-269.62 564.38,-269.62 564.38,-269.62 570.38,-269.62 576.38,-275.62 576.38,-281.62 576.38,-281.62 576.38,-293.62 576.38,-293.62 576.38,-299.62 570.38,-305.62 564.38,-305.62"/>
<text text-anchor="middle" x="499" y="-290.88" font-family="Helvetica,sans-Serif" font-size="10.00">WeightedSum</text>
<text text-anchor="middle" x="499" y="-278.12" font-family="Helvetica,sans-Serif" font-size="10.00">Σ w_i · normalize(L_i) / Σ w_i</text>
</g>
<!-- metric&#45;&gt;ws -->
<g id="edge4" class="edge">
<title>metric&#45;&gt;ws</title>
<path fill="none" stroke="#444444" d="M358.38,-377.14C391.54,-356.27 432.77,-330.31 462,-311.92"/>
<polygon fill="#444444" stroke="#444444" points="463.54,-315.08 470.14,-306.79 459.81,-309.16 463.54,-315.08"/>
<text text-anchor="middle" x="429.88" y="-350.95" font-family="Helvetica,sans-Serif" font-size="9.00"> component </text>
</g>
<!-- mx -->
<g id="node7" class="node">
<title>mx</title>
<path fill="#fff5dd" stroke="#b88830" d="M712.38,-310.75C712.38,-310.75 617.62,-310.75 617.62,-310.75 611.62,-310.75 605.62,-304.75 605.62,-298.75 605.62,-298.75 605.62,-276.5 605.62,-276.5 605.62,-270.5 611.62,-264.5 617.62,-264.5 617.62,-264.5 712.38,-264.5 712.38,-264.5 718.38,-264.5 724.38,-270.5 724.38,-276.5 724.38,-276.5 724.38,-298.75 724.38,-298.75 724.38,-304.75 718.38,-310.75 712.38,-310.75"/>
<text text-anchor="middle" x="665" y="-297.25" font-family="Helvetica,sans-Serif" font-size="10.00">Max</text>
<text text-anchor="middle" x="665" y="-284.5" font-family="Helvetica,sans-Serif" font-size="10.00">max_i normalize(L_i)</text>
<text text-anchor="middle" x="665" y="-271.75" font-family="Helvetica,sans-Serif" font-size="10.00">(any&#45;fail)</text>
</g>
<!-- metric&#45;&gt;mx -->
<g id="edge5" class="edge">
<title>metric&#45;&gt;mx</title>
<path fill="none" stroke="#444444" d="M397.99,-397.37C455.57,-386.32 529.55,-368.18 591,-340.25 604.03,-334.32 617.2,-326.05 628.73,-317.86"/>
<polygon fill="#444444" stroke="#444444" points="630.79,-320.69 636.78,-311.94 626.65,-315.04 630.79,-320.69"/>
<text text-anchor="middle" x="597.79" y="-350.95" font-family="Helvetica,sans-Serif" font-size="9.00"> component </text>
</g>
<!-- mn -->
<g id="node8" class="node">
<title>mn</title>
<path fill="#fff5dd" stroke="#b88830" d="M856.88,-310.75C856.88,-310.75 765.12,-310.75 765.12,-310.75 759.12,-310.75 753.12,-304.75 753.12,-298.75 753.12,-298.75 753.12,-276.5 753.12,-276.5 753.12,-270.5 759.12,-264.5 765.12,-264.5 765.12,-264.5 856.88,-264.5 856.88,-264.5 862.88,-264.5 868.88,-270.5 868.88,-276.5 868.88,-276.5 868.88,-298.75 868.88,-298.75 868.88,-304.75 862.88,-310.75 856.88,-310.75"/>
<text text-anchor="middle" x="811" y="-297.25" font-family="Helvetica,sans-Serif" font-size="10.00">Min</text>
<text text-anchor="middle" x="811" y="-284.5" font-family="Helvetica,sans-Serif" font-size="10.00">min_i normalize(L_i)</text>
<text text-anchor="middle" x="811" y="-271.75" font-family="Helvetica,sans-Serif" font-size="10.00">(all&#45;pass)</text>
</g>
<!-- metric&#45;&gt;mn -->
<g id="edge6" class="edge">
<title>metric&#45;&gt;mn</title>
<path fill="none" stroke="#444444" d="M398.01,-409.26C488.83,-403.71 627.97,-387.41 739,-340.25 752.16,-334.66 765.26,-326.32 776.6,-317.97"/>
<polygon fill="#444444" stroke="#444444" points="778.68,-320.79 784.48,-311.93 774.42,-315.23 778.68,-320.79"/>
<text text-anchor="middle" x="745.85" y="-350.95" font-family="Helvetica,sans-Serif" font-size="9.00"> component </text>
</g>
<!-- registry -->
<g id="node12" class="node">
<title>registry</title>
<path fill="#f0e8f8" stroke="#8050a8" d="M1013.88,-306.47C1013.88,-308.78 987.93,-310.66 956,-310.66 924.07,-310.66 898.12,-308.78 898.12,-306.47 898.12,-306.47 898.12,-268.78 898.12,-268.78 898.12,-266.47 924.07,-264.59 956,-264.59 987.93,-264.59 1013.88,-266.47 1013.88,-268.78 1013.88,-268.78 1013.88,-306.47 1013.88,-306.47"/>
<path fill="none" stroke="#8050a8" d="M1013.88,-306.47C1013.88,-304.16 987.93,-302.28 956,-302.28 924.07,-302.28 898.12,-304.16 898.12,-306.47"/>
<text text-anchor="middle" x="956" y="-290.88" font-family="Helvetica,sans-Serif" font-size="10.00">.ldd/metrics.json</text>
<text text-anchor="middle" x="956" y="-278.12" font-family="Helvetica,sans-Serif" font-size="10.00">(specs + promotion)</text>
</g>
<!-- metric&#45;&gt;registry -->
<g id="edge7" class="edge">
<title>metric&#45;&gt;registry</title>
<path fill="none" stroke="#444444" stroke-dasharray="5,2" d="M397.8,-403.79C494.63,-394.89 649.19,-379.28 782,-359.5 827.63,-352.7 841.59,-358.4 884,-340.25 897.15,-334.62 910.24,-326.28 921.59,-317.93"/>
<polygon fill="#444444" stroke="#444444" points="923.66,-320.75 929.47,-311.89 919.4,-315.19 923.66,-320.75"/>
<text text-anchor="middle" x="881.74" y="-350.95" font-family="Helvetica,sans-Serif" font-size="9.00"> register </text>
</g>
<!-- signal -->
<g id="node3" class="node">
<title>signal</title>
<path fill="#e8f4f8" stroke="#5b8db8" d="M362.88,-174.62C362.88,-174.62 253.12,-174.62 253.12,-174.62 247.12,-174.62 241.12,-168.62 241.12,-162.62 241.12,-162.62 241.12,-128.38 241.12,-128.38 241.12,-122.38 247.12,-116.38 253.12,-116.38 253.12,-116.38 362.88,-116.38 362.88,-116.38 368.88,-116.38 374.88,-122.38 374.88,-128.38 374.88,-128.38 374.88,-162.62 374.88,-162.62 374.88,-168.62 368.88,-174.62 362.88,-174.62"/>
<text text-anchor="middle" x="308" y="-161.12" font-family="Helvetica,sans-Serif" font-size="10.00">Signal</text>
<text text-anchor="middle" x="308" y="-148.38" font-family="Helvetica,sans-Serif" font-size="10.00">(θ_before, θ_after) → ℝ</text>
<text text-anchor="middle" x="308" y="-123.62" font-family="Helvetica,sans-Serif" font-size="10.00">S(a, θ) = L(θ ⊕ a) − L(θ)</text>
</g>
<!-- loss&#45;&gt;signal -->
<g id="edge2" class="edge">
<title>loss&#45;&gt;signal</title>
<path fill="none" stroke="#444444" d="M308,-258.27C308,-237.57 308,-209.23 308,-186.26"/>
<polygon fill="#444444" stroke="#444444" points="311.5,-186.33 308,-176.33 304.5,-186.33 311.5,-186.33"/>
</g>
<!-- estimator -->
<g id="node4" class="node">
<title>estimator</title>
<path fill="#e8f4f8" stroke="#5b8db8" d="M167.5,-436.12C167.5,-436.12 28.5,-436.12 28.5,-436.12 22.5,-436.12 16.5,-430.12 16.5,-424.12 16.5,-424.12 16.5,-401.88 16.5,-401.88 16.5,-395.88 22.5,-389.88 28.5,-389.88 28.5,-389.88 167.5,-389.88 167.5,-389.88 173.5,-389.88 179.5,-395.88 179.5,-401.88 179.5,-401.88 179.5,-424.12 179.5,-424.12 179.5,-430.12 173.5,-436.12 167.5,-436.12"/>
<text text-anchor="middle" x="98" y="-422.62" font-family="Helvetica,sans-Serif" font-size="10.00">Estimator</text>
<text text-anchor="middle" x="98" y="-409.88" font-family="Helvetica,sans-Serif" font-size="10.00">(Action, Context) →</text>
<text text-anchor="middle" x="98" y="-397.12" font-family="Helvetica,sans-Serif" font-size="10.00">(predicted_Signal, confidence)</text>
</g>
<!-- calibrator -->
<g id="node5" class="node">
<title>calibrator</title>
<path fill="#e8f4f8" stroke="#5b8db8" d="M195.88,-310.75C195.88,-310.75 98.12,-310.75 98.12,-310.75 92.12,-310.75 86.12,-304.75 86.12,-298.75 86.12,-298.75 86.12,-276.5 86.12,-276.5 86.12,-270.5 92.12,-264.5 98.12,-264.5 98.12,-264.5 195.88,-264.5 195.88,-264.5 201.88,-264.5 207.88,-270.5 207.88,-276.5 207.88,-276.5 207.88,-298.75 207.88,-298.75 207.88,-304.75 201.88,-310.75 195.88,-310.75"/>
<text text-anchor="middle" x="147" y="-297.25" font-family="Helvetica,sans-Serif" font-size="10.00">Calibrator</text>
<text text-anchor="middle" x="147" y="-284.5" font-family="Helvetica,sans-Serif" font-size="10.00">stream[(pred, obs)] →</text>
<text text-anchor="middle" x="147" y="-271.75" font-family="Helvetica,sans-Serif" font-size="10.00">drift_signal</text>
</g>
<!-- estimator&#45;&gt;calibrator -->
<!-- estimator&#45;&gt;calibrator -->
<g id="edge9" class="edge">
<title>estimator&#45;&gt;calibrator</title>
<path fill="none" stroke="#444444" d="M91.13,-389.47C88.48,-376.94 87.17,-361.3 92.25,-348.25 96.38,-337.64 103.38,-327.78 111.02,-319.25"/>
<polygon fill="#444444" stroke="#444444" points="113.32,-321.91 117.73,-312.28 108.28,-317.05 113.32,-321.91"/>
<text text-anchor="middle" x="113.62" y="-350.95" font-family="Helvetica,sans-Serif" font-size="9.00"> predicts </text>
</g>
<!-- gate -->
<g id="node10" class="node">
<title>gate</title>
<path fill="#ffebe0" stroke="#b85040" d="M484.86,-185.33C484.86,-185.33 432.14,-151.92 432.14,-151.92 427.07,-148.71 427.07,-142.29 432.14,-139.08 432.14,-139.08 484.86,-105.67 484.86,-105.67 489.93,-102.46 500.07,-102.46 505.14,-105.67 505.14,-105.67 557.86,-139.08 557.86,-139.08 562.93,-142.29 562.93,-148.71 557.86,-151.92 557.86,-151.92 505.14,-185.33 505.14,-185.33 500.07,-188.54 489.93,-188.54 484.86,-185.33"/>
<text text-anchor="middle" x="495" y="-155.12" font-family="Helvetica,sans-Serif" font-size="10.00">n ≥ 5</text>
<text text-anchor="middle" x="495" y="-142.38" font-family="Helvetica,sans-Serif" font-size="10.00">∧</text>
<text text-anchor="middle" x="495" y="-129.62" font-family="Helvetica,sans-Serif" font-size="10.00">MAE ≤ 0.15</text>
</g>
<!-- calibrator&#45;&gt;gate -->
<g id="edge10" class="edge">
<title>calibrator&#45;&gt;gate</title>
<path fill="none" stroke="#444444" d="M200.11,-264.07C207.71,-261.28 215.5,-258.66 223,-256.5 305.53,-232.73 336.09,-259.48 413,-221.25 431.17,-212.22 448.27,-197.97 462.1,-184.32"/>
<polygon fill="#444444" stroke="#444444" points="464.3,-187.07 468.8,-177.47 459.3,-182.17 464.3,-187.07"/>
<text text-anchor="middle" x="403.97" y="-231.95" font-family="Helvetica,sans-Serif" font-size="9.00"> MAE </text>
</g>
<!-- calibs -->
<g id="node13" class="node">
<title>calibs</title>
<path fill="#f0e8f8" stroke="#8050a8" d="M868.5,-164.34C868.5,-166.65 833.32,-168.53 790,-168.53 746.68,-168.53 711.5,-166.65 711.5,-164.34 711.5,-164.34 711.5,-126.66 711.5,-126.66 711.5,-124.35 746.68,-122.47 790,-122.47 833.32,-122.47 868.5,-124.35 868.5,-126.66 868.5,-126.66 868.5,-164.34 868.5,-164.34"/>
<path fill="none" stroke="#8050a8" d="M868.5,-164.34C868.5,-162.03 833.32,-160.16 790,-160.16 746.68,-160.16 711.5,-162.03 711.5,-164.34"/>
<text text-anchor="middle" x="790" y="-148.75" font-family="Helvetica,sans-Serif" font-size="10.00">.ldd/metric_calibrations.jsonl</text>
<text text-anchor="middle" x="790" y="-136" font-family="Helvetica,sans-Serif" font-size="10.00">(append&#45;only pairs)</text>
</g>
<!-- calibrator&#45;&gt;calibs -->
<g id="edge13" class="edge">
<title>calibrator&#45;&gt;calibs</title>
<path fill="none" stroke="#444444" d="M197.83,-264.03C206.11,-261.06 214.7,-258.4 223,-256.5 328.34,-232.39 608.72,-263.91 708,-221.25 730.46,-211.6 750.8,-193.15 765.6,-177"/>
<polygon fill="#444444" stroke="#444444" points="767.83,-179.77 771.82,-169.96 762.58,-175.14 767.83,-179.77"/>
<text text-anchor="middle" x="701.13" y="-231.95" font-family="Helvetica,sans-Serif" font-size="9.00"> append </text>
</g>
<!-- advisory -->
<g id="node9" class="node">
<title>advisory</title>
<path fill="#fff0d8" stroke="#b88830" d="M683,-52C683,-52 577,-52 577,-52 571,-52 565,-46 565,-40 565,-40 565,-28 565,-28 565,-22 571,-16 577,-16 577,-16 683,-16 683,-16 689,-16 695,-22 695,-28 695,-28 695,-40 695,-40 695,-46 689,-52 683,-52"/>
<text text-anchor="middle" x="630" y="-37.25" font-family="Helvetica,sans-Serif" font-size="10.00">advisory_only = True</text>
<text text-anchor="middle" x="630" y="-24.5" font-family="Helvetica,sans-Serif" font-size="10.00">(default at registration)</text>
</g>
<!-- gate&#45;&gt;advisory -->
<g id="edge12" class="edge">
<title>gate&#45;&gt;advisory</title>
<path fill="none" stroke="#444444" stroke-dasharray="5,2" d="M526.65,-118.83C548.75,-100.91 578.06,-77.13 599.82,-59.48"/>
<polygon fill="#444444" stroke="#444444" points="601.91,-62.29 607.47,-53.28 597.5,-56.86 601.91,-62.29"/>
<text text-anchor="middle" x="594.96" y="-72.7" font-family="Helvetica,sans-Serif" font-size="9.00"> no </text>
</g>
<!-- load_bearing -->
<g id="node11" class="node">
<title>load_bearing</title>
<path fill="#d8f0d8" stroke="#4c8a4c" d="M523.75,-52C523.75,-52 434.25,-52 434.25,-52 428.25,-52 422.25,-46 422.25,-40 422.25,-40 422.25,-28 422.25,-28 422.25,-22 428.25,-16 434.25,-16 434.25,-16 523.75,-16 523.75,-16 529.75,-16 535.75,-22 535.75,-28 535.75,-28 535.75,-40 535.75,-40 535.75,-46 529.75,-52 523.75,-52"/>
<text text-anchor="middle" x="479" y="-37.25" font-family="Helvetica,sans-Serif" font-size="10.00">load_bearing = True</text>
<text text-anchor="middle" x="479" y="-24.5" font-family="Helvetica,sans-Serif" font-size="10.00">(usable as gate)</text>
</g>
<!-- gate&#45;&gt;load_bearing -->
<g id="edge11" class="edge">
<title>gate&#45;&gt;load_bearing</title>
<path fill="none" stroke="#444444" d="M488.91,-102.79C486.98,-89.64 484.91,-75.43 483.16,-63.44"/>
<polygon fill="#444444" stroke="#444444" points="486.66,-63.18 481.75,-53.79 479.73,-64.2 486.66,-63.18"/>
<text text-anchor="middle" x="496.07" y="-72.7" font-family="Helvetica,sans-Serif" font-size="9.00"> yes </text>
</g>
<!-- registry&#45;&gt;advisory -->
<g id="edge8" class="edge">
<title>registry&#45;&gt;advisory</title>
<path fill="none" stroke="#444444" d="M953.81,-264.13C948.75,-224.69 932.56,-143.07 883,-99.25 834.56,-56.42 761.53,-41.38 706.37,-36.45"/>
<polygon fill="#444444" stroke="#444444" points="706.99,-32.99 696.74,-35.69 706.44,-39.96 706.99,-32.99"/>
<text text-anchor="middle" x="960.13" y="-142.57" font-family="Helvetica,sans-Serif" font-size="9.00"> state </text>
</g>
<!-- note -->
<g id="node14" class="node">
<title>note</title>
<polygon fill="#f8f8f8" stroke="#888888" points="380,-558 220,-558 220,-505 386,-505 386,-552 380,-558"/>
<polyline fill="none" stroke="#888888" points="380,-558 380,-552"/>
<polyline fill="none" stroke="#888888" points="386,-552 380,-552"/>
<text text-anchor="middle" x="303" y="-545.45" font-family="Helvetica,sans-Serif" font-size="9.00">Bias invariance:</text>
<text text-anchor="middle" x="303" y="-534.2" font-family="Helvetica,sans-Serif" font-size="9.00">none of these primitives modifies</text>
<text text-anchor="middle" x="303" y="-522.95" font-family="Helvetica,sans-Serif" font-size="9.00">L(θ). Memory informs search;</text>
<text text-anchor="middle" x="303" y="-511.7" font-family="Helvetica,sans-Serif" font-size="9.00">L is externally specified.</text>
</g>
<!-- note&#45;&gt;metric -->
<g id="edge14" class="edge">
<title>note&#45;&gt;metric</title>
<path fill="none" stroke="#888888" stroke-dasharray="1,5" d="M303,-504.64C303,-488.15 303,-466.58 303,-448.62"/>
</g>
</g>
</svg>
