<?xml version="1.0" encoding="UTF-8" standalone="no"?>
<!DOCTYPE svg PUBLIC "-//W3C//DTD SVG 1.1//EN"
 "http://www.w3.org/Graphics/SVG/1.1/DTD/svg11.dtd">
<!-- Generated by graphviz version 12.2.1 (0)
 -->
<!-- Title: skill_dispatch_flow Pages: 1 -->
<svg width="1160pt" height="1140pt"
 viewBox="0.00 0.00 1159.71 1140.12" xmlns="http://www.w3.org/2000/svg" xmlns:xlink="http://www.w3.org/1999/xlink">
<g id="graph0" class="graph" transform="scale(1 1) rotate(0) translate(4 1136.12)">
<title>skill_dispatch_flow</title>
<polygon fill="white" stroke="none" points="-4,4 -4,-1136.12 1155.71,-1136.12 1155.71,4 -4,4"/>
<text text-anchor="start" x="394.73" y="-1115.82" font-family="Helvetica,sans-Serif" font-weight="bold" font-size="14.00">Skill dispatch — which skill fires at which point</text>
<!-- start -->
<g id="node1" class="node">
<title>start</title>
<ellipse fill="#ffffff" stroke="black" cx="832.14" cy="-1088.87" rx="121.71" ry="18"/>
<text text-anchor="middle" x="832.14" y="-1084.2" font-family="Helvetica,sans-Serif" font-size="14.00">Non&#45;trivial task arrives</text>
</g>
<!-- lde -->
<g id="node2" class="node">
<title>lde</title>
<path fill="#e8f4fd" stroke="black" d="M911.77,-1033.87C911.77,-1033.87 752.52,-1033.87 752.52,-1033.87 746.52,-1033.87 740.52,-1027.87 740.52,-1021.87 740.52,-1021.87 740.52,-1003.37 740.52,-1003.37 740.52,-997.37 746.52,-991.37 752.52,-991.37 752.52,-991.37 911.77,-991.37 911.77,-991.37 917.77,-991.37 923.77,-997.37 923.77,-1003.37 923.77,-1003.37 923.77,-1021.87 923.77,-1021.87 923.77,-1027.87 917.77,-1033.87 911.77,-1033.87"/>
<text text-anchor="middle" x="832.14" y="-1016.57" font-family="Helvetica,sans-Serif" font-size="14.00">loop&#45;driven&#45;engineering</text>
<text text-anchor="middle" x="832.14" y="-999.32" font-family="Helvetica,sans-Serif" font-size="14.00">(dach / entry&#45;point)</text>
</g>
<!-- start&#45;&gt;lde -->
<g id="edge1" class="edge">
<title>start&#45;&gt;lde</title>
<path fill="none" stroke="black" d="M832.14,-1070.65C832.14,-1063.17 832.14,-1054.16 832.14,-1045.53"/>
<polygon fill="black" stroke="black" points="835.64,-1045.7 832.14,-1035.7 828.64,-1045.7 835.64,-1045.7"/>
</g>
<!-- plan -->
<g id="node3" class="node">
<title>plan</title>
<path fill="#ffffff" stroke="black" d="M652.24,-952.85C652.24,-952.85 535.92,-937.9 535.92,-937.9 529.97,-937.14 529.97,-935.61 535.92,-934.85 535.92,-934.85 652.24,-919.9 652.24,-919.9 658.19,-919.14 670.09,-919.14 676.04,-919.9 676.04,-919.9 792.37,-934.85 792.37,-934.85 798.32,-935.61 798.32,-937.14 792.37,-937.9 792.37,-937.9 676.04,-952.85 676.04,-952.85 670.09,-953.61 658.19,-953.61 652.24,-952.85"/>
<text text-anchor="middle" x="664.14" y="-931.7" font-family="Helvetica,sans-Serif" font-size="14.00">Plan the approach</text>
</g>
<!-- lde&#45;&gt;plan -->
<g id="edge2" class="edge">
<title>lde&#45;&gt;plan</title>
<path fill="none" stroke="black" d="M785.35,-990.94C760.14,-979.8 729.34,-966.19 705.09,-955.47"/>
<polygon fill="black" stroke="black" points="706.75,-952.38 696.18,-951.54 703.92,-958.78 706.75,-952.38"/>
</g>
<!-- dr1 -->
<g id="node4" class="node">
<title>dr1</title>
<ellipse fill="#f5ebfd" stroke="black" cx="488.14" cy="-826.82" rx="164.58" ry="30.05"/>
<text text-anchor="middle" x="488.14" y="-830.77" font-family="Helvetica,sans-Serif" font-size="14.00">dialectical&#45;reasoning</text>
<text text-anchor="middle" x="488.14" y="-813.52" font-family="Helvetica,sans-Serif" font-size="14.00">thesis → antithesis → synthesis</text>
</g>
<!-- plan&#45;&gt;dr1 -->
<g id="edge3" class="edge">
<title>plan&#45;&gt;dr1</title>
<path fill="none" stroke="black" d="M630.95,-922.21C616.94,-916.19 600.66,-908.58 586.64,-900.37 568.08,-889.51 548.8,-875.89 532.26,-863.4"/>
<polygon fill="black" stroke="black" points="534.65,-860.82 524.58,-857.52 530.39,-866.37 534.65,-860.82"/>
<text text-anchor="middle" x="630.89" y="-890.87" font-family="Helvetica,sans-Serif" font-size="10.00">non&#45;trivial</text>
<text text-anchor="middle" x="630.89" y="-878.12" font-family="Helvetica,sans-Serif" font-size="10.00">recommendation?</text>
</g>
<!-- code -->
<g id="node5" class="node">
<title>code</title>
<path fill="#ffffff" stroke="black" d="M728.64,-735.27C728.64,-735.27 547.64,-735.27 547.64,-735.27 541.64,-735.27 535.64,-729.27 535.64,-723.27 535.64,-723.27 535.64,-704.77 535.64,-704.77 535.64,-698.77 541.64,-692.77 547.64,-692.77 547.64,-692.77 728.64,-692.77 728.64,-692.77 734.64,-692.77 740.64,-698.77 740.64,-704.77 740.64,-704.77 740.64,-723.27 740.64,-723.27 740.64,-729.27 734.64,-735.27 728.64,-735.27"/>
<text text-anchor="middle" x="638.14" y="-717.97" font-family="Helvetica,sans-Serif" font-size="14.00">Code</text>
<text text-anchor="middle" x="638.14" y="-700.72" font-family="Helvetica,sans-Serif" font-size="14.00">(smallest coherent change)</text>
</g>
<!-- plan&#45;&gt;code -->
<g id="edge5" class="edge">
<title>plan&#45;&gt;code</title>
<path fill="none" stroke="black" d="M670.46,-918.89C672.36,-913.12 674.2,-906.54 675.14,-900.37 676.86,-889.17 676.08,-886.17 675.14,-874.87 672.24,-839.8 670,-831.07 662.14,-796.77 658.3,-780 652.99,-761.58 648.35,-746.49"/>
<polygon fill="black" stroke="black" points="651.74,-745.61 645.41,-737.11 645.06,-747.7 651.74,-745.61"/>
<text text-anchor="middle" x="701.56" y="-823.7" font-family="Helvetica,sans-Serif" font-size="10.00">mechanical</text>
</g>
<!-- dr1&#45;&gt;code -->
<g id="edge4" class="edge">
<title>dr1&#45;&gt;code</title>
<path fill="none" stroke="black" d="M526.77,-797.29C549.56,-780.46 578.25,-759.26 600.81,-742.6"/>
<polygon fill="black" stroke="black" points="602.88,-745.42 608.85,-736.66 598.73,-739.79 602.88,-745.42"/>
</g>
<!-- signal -->
<g id="node6" class="node">
<title>signal</title>
<path fill="#ffffff" stroke="black" d="M388.35,-653.52C388.35,-653.52 188.93,-615.52 188.93,-615.52 183.04,-614.39 183.04,-612.15 188.93,-611.02 188.93,-611.02 388.35,-573.02 388.35,-573.02 394.25,-571.89 406.04,-571.89 411.93,-573.02 411.93,-573.02 611.35,-611.02 611.35,-611.02 617.25,-612.15 617.25,-614.39 611.35,-615.52 611.35,-615.52 411.93,-653.52 411.93,-653.52 406.04,-654.65 394.25,-654.65 388.35,-653.52"/>
<text text-anchor="middle" x="400.14" y="-617.22" font-family="Helvetica,sans-Serif" font-size="14.00">Signal observed</text>
<text text-anchor="middle" x="400.14" y="-599.97" font-family="Helvetica,sans-Serif" font-size="14.00">(failing test / gate / symptom)</text>
</g>
<!-- code&#45;&gt;signal -->
<g id="edge6" class="edge">
<title>code&#45;&gt;signal</title>
<path fill="none" stroke="black" d="M588.25,-692.32C556.86,-679.3 515.66,-662.2 479.82,-647.33"/>
<polygon fill="black" stroke="black" points="481.35,-644.18 470.77,-643.58 478.67,-650.64 481.35,-644.18"/>
</g>
<!-- repro -->
<g id="node7" class="node">
<title>repro</title>
<ellipse fill="#fef4ea" stroke="black" cx="819.14" cy="-479.22" rx="139.65" ry="30.05"/>
<text text-anchor="middle" x="819.14" y="-483.17" font-family="Helvetica,sans-Serif" font-size="14.00">reproducibility&#45;first</text>
<text text-anchor="middle" x="819.14" y="-465.92" font-family="Helvetica,sans-Serif" font-size="14.00">reproduce before gradient</text>
</g>
<!-- signal&#45;&gt;repro -->
<g id="edge7" class="edge">
<title>signal&#45;&gt;repro</title>
<path fill="none" stroke="black" d="M483.17,-586.1C554.8,-563.53 657.95,-531.02 731.02,-507.99"/>
<polygon fill="black" stroke="black" points="731.65,-511.46 740.14,-505.12 729.55,-504.79 731.65,-511.46"/>
<text text-anchor="middle" x="677.87" y="-536.9" font-family="Helvetica,sans-Serif" font-size="10.00">failure?</text>
</g>
<!-- refine -->
<g id="node11" class="node">
<title>refine</title>
<ellipse fill="#fef4ea" stroke="black" cx="218.14" cy="-479.22" rx="218.14" ry="30.05"/>
<text text-anchor="middle" x="218.14" y="-483.17" font-family="Helvetica,sans-Serif" font-size="14.00">iterative&#45;refinement</text>
<text text-anchor="middle" x="218.14" y="-465.92" font-family="Helvetica,sans-Serif" font-size="14.00">(y&#45;axis: polish a good&#45;enough deliverable)</text>
</g>
<!-- signal&#45;&gt;refine -->
<g id="edge13" class="edge">
<title>signal&#45;&gt;refine</title>
<path fill="none" stroke="black" d="M354.69,-579.29C328.01,-559.93 294.3,-535.48 267.05,-515.7"/>
<polygon fill="black" stroke="black" points="269.45,-513.12 259.3,-510.08 265.34,-518.79 269.45,-513.12"/>
<text text-anchor="middle" x="349.1" y="-543.27" font-family="Helvetica,sans-Serif" font-size="10.00">deliverable</text>
<text text-anchor="middle" x="349.1" y="-530.52" font-family="Helvetica,sans-Serif" font-size="10.00">good&#45;enough?</text>
</g>
<!-- close -->
<g id="node13" class="node">
<title>close</title>
<path fill="#ffffff" stroke="black" d="M371.29,-373.73C371.29,-373.73 281.65,-359.5 281.65,-359.5 275.73,-358.56 275.73,-356.67 281.65,-355.73 281.65,-355.73 371.29,-341.5 371.29,-341.5 377.22,-340.56 389.07,-340.56 394.99,-341.5 394.99,-341.5 484.63,-355.73 484.63,-355.73 490.56,-356.67 490.56,-358.56 484.63,-359.5 484.63,-359.5 394.99,-373.73 394.99,-373.73 389.07,-374.67 377.22,-374.67 371.29,-373.73"/>
<text text-anchor="middle" x="383.14" y="-352.94" font-family="Helvetica,sans-Serif" font-size="14.00">Close the loop</text>
</g>
<!-- signal&#45;&gt;close -->
<g id="edge17" class="edge">
<title>signal&#45;&gt;close</title>
<path fill="none" stroke="black" d="M422.76,-574.83C439.88,-541.65 458.39,-491.96 445.14,-449.17 437.27,-423.75 419.54,-399.11 405.04,-381.97"/>
<polygon fill="black" stroke="black" points="408.05,-380.09 398.83,-374.87 402.78,-384.7 408.05,-380.09"/>
<text text-anchor="middle" x="463.53" y="-476.09" font-family="Helvetica,sans-Serif" font-size="10.00">green</text>
</g>
<!-- repro&#45;&gt;lde -->
<g id="edge9" class="edge">
<title>repro&#45;&gt;lde</title>
<path fill="none" stroke="black" stroke-dasharray="5,2" d="M823.69,-509.51C827.44,-536.21 832.14,-576.79 832.14,-612.27 832.14,-937.37 832.14,-937.37 832.14,-937.37 832.14,-951.29 832.14,-966.67 832.14,-979.81"/>
<polygon fill="black" stroke="black" points="828.64,-979.63 832.14,-989.63 835.64,-979.63 828.64,-979.63"/>
<text text-anchor="middle" x="855.39" y="-769.27" font-family="Helvetica,sans-Serif" font-size="10.00">noise,</text>
<text text-anchor="middle" x="855.39" y="-756.52" font-family="Helvetica,sans-Serif" font-size="10.00">don&#39;t edit</text>
</g>
<!-- rcbl -->
<g id="node8" class="node">
<title>rcbl</title>
<ellipse fill="#e6fbe6" stroke="black" cx="819.14" cy="-357.61" rx="106.77" ry="30.05"/>
<text text-anchor="middle" x="819.14" y="-361.56" font-family="Helvetica,sans-Serif" font-size="14.00">root&#45;cause&#45;by&#45;layer</text>
<text text-anchor="middle" x="819.14" y="-344.31" font-family="Helvetica,sans-Serif" font-size="14.00">5&#45;layer ladder</text>
</g>
<!-- repro&#45;&gt;rcbl -->
<g id="edge8" class="edge">
<title>repro&#45;&gt;rcbl</title>
<path fill="none" stroke="black" d="M819.14,-448.96C819.14,-434.05 819.14,-415.67 819.14,-399.39"/>
<polygon fill="black" stroke="black" points="822.64,-399.5 819.14,-389.5 815.64,-399.5 822.64,-399.5"/>
<text text-anchor="middle" x="871.27" y="-421.67" font-family="Helvetica,sans-Serif" font-size="10.00">reproduced</text>
<text text-anchor="middle" x="871.27" y="-408.92" font-family="Helvetica,sans-Serif" font-size="10.00">(or unambiguous log)</text>
</g>
<!-- lbl -->
<g id="node9" class="node">
<title>lbl</title>
<ellipse fill="#fef4ea" stroke="black" cx="819.14" cy="-260.51" rx="139.12" ry="30.05"/>
<text text-anchor="middle" x="819.14" y="-264.46" font-family="Helvetica,sans-Serif" font-size="14.00">loss&#45;backprop&#45;lens</text>
<text text-anchor="middle" x="819.14" y="-247.21" font-family="Helvetica,sans-Serif" font-size="14.00">step size + generalization</text>
</g>
<!-- rcbl&#45;&gt;lbl -->
<g id="edge10" class="edge">
<title>rcbl&#45;&gt;lbl</title>
<path fill="none" stroke="black" d="M819.14,-327.3C819.14,-319.35 819.14,-310.59 819.14,-302.13"/>
<polygon fill="black" stroke="black" points="822.64,-302.4 819.14,-292.4 815.64,-302.4 822.64,-302.4"/>
</g>
<!-- e2e -->
<g id="node10" class="node">
<title>e2e</title>
<ellipse fill="#e6fbe6" stroke="black" cx="819.14" cy="-151.66" rx="125.33" ry="30.05"/>
<text text-anchor="middle" x="819.14" y="-155.61" font-family="Helvetica,sans-Serif" font-size="14.00">e2e&#45;driven&#45;iteration</text>
<text text-anchor="middle" x="819.14" y="-138.36" font-family="Helvetica,sans-Serif" font-size="14.00">E2E → loss → fix → E2E</text>
</g>
<!-- lbl&#45;&gt;e2e -->
<g id="edge11" class="edge">
<title>lbl&#45;&gt;e2e</title>
<path fill="none" stroke="black" d="M819.14,-230.03C819.14,-218.7 819.14,-205.56 819.14,-193.36"/>
<polygon fill="black" stroke="black" points="822.64,-193.55 819.14,-183.55 815.64,-193.55 822.64,-193.55"/>
<text text-anchor="middle" x="852.14" y="-202.96" font-family="Helvetica,sans-Serif" font-size="10.00">next iteration</text>
</g>
<!-- e2e&#45;&gt;code -->
<g id="edge12" class="edge">
<title>e2e&#45;&gt;code</title>
<path fill="none" stroke="black" d="M732.68,-173.83C691.52,-189.6 651.14,-216.13 651.14,-259.51 651.14,-614.27 651.14,-614.27 651.14,-614.27 651.14,-636.75 647.79,-661.87 644.49,-681.15"/>
<polygon fill="black" stroke="black" points="641.07,-680.37 642.74,-690.83 647.96,-681.61 641.07,-680.37"/>
<text text-anchor="middle" x="661.64" y="-415.29" font-family="Helvetica,sans-Serif" font-size="10.00">loop</text>
</g>
<!-- meta -->
<g id="node12" class="node">
<title>meta</title>
<ellipse fill="#f5ebfd" stroke="black" cx="926.14" cy="-30.05" rx="225.57" ry="30.05"/>
<text text-anchor="middle" x="926.14" y="-34" font-family="Helvetica,sans-Serif" font-size="14.00">method&#45;evolution</text>
<text text-anchor="middle" x="926.14" y="-16.75" font-family="Helvetica,sans-Serif" font-size="14.00">(θ&#45;axis: same pattern 3× → evolve the skill)</text>
</g>
<!-- e2e&#45;&gt;meta -->
<g id="edge15" class="edge">
<title>e2e&#45;&gt;meta</title>
<path fill="none" stroke="black" stroke-dasharray="5,2" d="M844.77,-122.01C859.12,-105.97 877.17,-85.79 892.63,-68.51"/>
<polygon fill="black" stroke="black" points="894.91,-71.21 898.97,-61.43 889.69,-66.54 894.91,-71.21"/>
<text text-anchor="middle" x="912.6" y="-94.1" font-family="Helvetica,sans-Serif" font-size="10.00">same defect</text>
<text text-anchor="middle" x="912.6" y="-81.35" font-family="Helvetica,sans-Serif" font-size="10.00">3+ tasks?</text>
</g>
<!-- refine&#45;&gt;close -->
<g id="edge14" class="edge">
<title>refine&#45;&gt;close</title>
<path fill="none" stroke="black" d="M258.08,-449.27C287.81,-427.71 327.7,-398.8 354.35,-379.48"/>
<polygon fill="black" stroke="black" points="356.26,-382.42 362.31,-373.72 352.15,-376.75 356.26,-382.42"/>
</g>
<!-- meta&#45;&gt;lde -->
<g id="edge16" class="edge">
<title>meta&#45;&gt;lde</title>
<path fill="none" stroke="black" stroke-dasharray="5,2" d="M950.6,-59.95C967.57,-82.98 987.14,-116.86 987.14,-150.66 987.14,-937.37 987.14,-937.37 987.14,-937.37 987.14,-967.14 963.61,-984.98 934.88,-995.67"/>
<polygon fill="black" stroke="black" points="933.9,-992.31 925.53,-998.81 936.13,-998.95 933.9,-992.31"/>
<text text-anchor="middle" x="1019.77" y="-543.27" font-family="Helvetica,sans-Serif" font-size="10.00">skill evolved,</text>
<text text-anchor="middle" x="1019.77" y="-530.52" font-family="Helvetica,sans-Serif" font-size="10.00">resume</text>
</g>
<!-- ddod -->
<g id="node14" class="node">
<title>ddod</title>
<ellipse fill="#e8f4fd" stroke="black" cx="383.14" cy="-260.51" rx="139.65" ry="30.05"/>
<text text-anchor="middle" x="383.14" y="-264.46" font-family="Helvetica,sans-Serif" font-size="14.00">docs&#45;as&#45;definition&#45;of&#45;done</text>
<text text-anchor="middle" x="383.14" y="-247.21" font-family="Helvetica,sans-Serif" font-size="14.00">commit code+tests+docs</text>
</g>
<!-- close&#45;&gt;ddod -->
<g id="edge18" class="edge">
<title>close&#45;&gt;ddod</title>
<path fill="none" stroke="black" d="M383.14,-339.17C383.14,-328.72 383.14,-314.97 383.14,-301.95"/>
<polygon fill="black" stroke="black" points="386.64,-302.31 383.14,-292.31 379.64,-302.31 386.64,-302.31"/>
</g>
<!-- drift -->
<g id="node15" class="node">
<title>drift</title>
<ellipse fill="#fdeaea" stroke="black" cx="494.14" cy="-151.66" rx="139.65" ry="30.05"/>
<text text-anchor="middle" x="494.14" y="-155.61" font-family="Helvetica,sans-Serif" font-size="14.00">drift&#45;detection</text>
<text text-anchor="middle" x="494.14" y="-138.36" font-family="Helvetica,sans-Serif" font-size="14.00">(periodic, not per commit)</text>
</g>
<!-- ddod&#45;&gt;drift -->
<g id="edge19" class="edge">
<title>ddod&#45;&gt;drift</title>
<path fill="none" stroke="black" stroke-dasharray="5,2" d="M412.89,-230.88C426.2,-218.06 442.06,-202.8 456.21,-189.17"/>
<polygon fill="black" stroke="black" points="458.45,-191.88 463.22,-182.42 453.59,-186.83 458.45,-191.88"/>
<text text-anchor="middle" x="488.1" y="-202.96" font-family="Helvetica,sans-Serif" font-size="10.00">release candidate?</text>
</g>
<!-- done -->
<g id="node16" class="node">
<title>done</title>
<ellipse fill="#b4ecb4" stroke="black" cx="368.14" cy="-30.05" rx="36.48" ry="18"/>
<text text-anchor="middle" x="368.14" y="-25.38" font-family="Helvetica,sans-Serif" font-size="14.00">Done</text>
</g>
<!-- ddod&#45;&gt;done -->
<g id="edge20" class="edge">
<title>ddod&#45;&gt;done</title>
<path fill="none" stroke="black" d="M365,-230.4C357.24,-216.26 349.07,-198.7 345.14,-181.71 335.31,-139.19 347.7,-88.93 357.75,-58.54"/>
<polygon fill="black" stroke="black" points="360.96,-59.95 360.94,-49.36 354.35,-57.66 360.96,-59.95"/>
</g>
<!-- drift&#45;&gt;done -->
<g id="edge21" class="edge">
<title>drift&#45;&gt;done</title>
<path fill="none" stroke="black" d="M463.96,-122.01C442.05,-101.21 412.78,-73.43 392.38,-54.06"/>
<polygon fill="black" stroke="black" points="394.99,-51.71 385.33,-47.37 390.17,-56.79 394.99,-51.71"/>
</g>
</g>
</svg>
