<?xml version="1.0" encoding="UTF-8" standalone="no"?>
<!DOCTYPE svg PUBLIC "-//W3C//DTD SVG 1.1//EN"
 "http://www.w3.org/Graphics/SVG/1.1/DTD/svg11.dtd">
<!-- Generated by graphviz version 12.2.1 (0)
 -->
<!-- Title: skills_overview Pages: 1 -->
<svg width="807pt" height="495pt"
 viewBox="0.00 0.00 807.00 495.00" xmlns="http://www.w3.org/2000/svg" xmlns:xlink="http://www.w3.org/1999/xlink">
<g id="graph0" class="graph" transform="scale(1 1) rotate(0) translate(4 491)">
<title>skills_overview</title>
<polygon fill="white" stroke="none" points="-4,4 -4,-491 803,-491 803,4 -4,4"/>
<text text-anchor="start" x="211.25" y="-470.7" font-family="Helvetica,sans-Serif" font-weight="bold" font-size="14.00">LDD — ten skills across three optimization loops</text>
<g id="clust1" class="cluster">
<title>cluster_inner</title>
<path fill="#e6fbe6" stroke="#2ca02c" d="M20,-8C20,-8 186,-8 186,-8 192,-8 198,-14 198,-20 198,-20 198,-360.75 198,-360.75 198,-366.75 192,-372.75 186,-372.75 186,-372.75 20,-372.75 20,-372.75 14,-372.75 8,-366.75 8,-360.75 8,-360.75 8,-20 8,-20 8,-14 14,-8 20,-8"/>
<text text-anchor="start" x="24.62" y="-358.35" font-family="Helvetica,sans-Serif" font-weight="bold" font-size="12.00">INNER LOOP</text>
<text text-anchor="start" x="107.88" y="-358.35" font-family="Helvetica,sans-Serif" font-size="12.00"> — θ = code</text>
<text text-anchor="start" x="35.88" y="-349.2" font-family="Helvetica,sans-Serif" font-size="9.00">K_MAX = 5 iterations per task</text>
</g>
<g id="clust2" class="cluster">
<title>cluster_refine</title>
<path fill="#fef4ea" stroke="#ff7f0e" d="M502,-178.5C502,-178.5 779,-178.5 779,-178.5 785,-178.5 791,-184.5 791,-190.5 791,-190.5 791,-248.5 791,-248.5 791,-254.5 785,-260.5 779,-260.5 779,-260.5 502,-260.5 502,-260.5 496,-260.5 490,-254.5 490,-248.5 490,-248.5 490,-190.5 490,-190.5 490,-184.5 496,-178.5 502,-178.5"/>
<text text-anchor="start" x="497.62" y="-246.1" font-family="Helvetica,sans-Serif" font-weight="bold" font-size="12.00">REFINEMENT LOOP</text>
<text text-anchor="start" x="625.88" y="-246.1" font-family="Helvetica,sans-Serif" font-size="12.00"> — θ = deliverable (y&#45;axis)</text>
<text text-anchor="start" x="579" y="-236.95" font-family="Helvetica,sans-Serif" font-size="9.00">budget halves per iteration</text>
</g>
<g id="clust3" class="cluster">
<title>cluster_outer</title>
<path fill="#f5ebfd" stroke="#9467bd" d="M218,-178.5C218,-178.5 470,-178.5 470,-178.5 476,-178.5 482,-184.5 482,-190.5 482,-190.5 482,-361.25 482,-361.25 482,-367.25 476,-373.25 470,-373.25 470,-373.25 218,-373.25 218,-373.25 212,-373.25 206,-367.25 206,-361.25 206,-361.25 206,-190.5 206,-190.5 206,-184.5 212,-178.5 218,-178.5"/>
<text text-anchor="start" x="213.88" y="-358.85" font-family="Helvetica,sans-Serif" font-weight="bold" font-size="12.00">OUTER LOOP</text>
<text text-anchor="start" x="301.62" y="-358.85" font-family="Helvetica,sans-Serif" font-size="12.00"> — θ = skills / rubrics (θ&#45;axis)</text>
<text text-anchor="start" x="294.5" y="-349.7" font-family="Helvetica,sans-Serif" font-size="9.00">rollback on regression</text>
</g>
<g id="clust4" class="cluster">
<title>cluster_cross</title>
<path fill="#fff9e6" stroke="#d4a017" d="M587,-291.25C587,-291.25 771,-291.25 771,-291.25 777,-291.25 783,-297.25 783,-303.25 783,-303.25 783,-361.25 783,-361.25 783,-367.25 777,-373.25 771,-373.25 771,-373.25 587,-373.25 587,-373.25 581,-373.25 575,-367.25 575,-361.25 575,-361.25 575,-303.25 575,-303.25 575,-297.25 581,-291.25 587,-291.25"/>
<text text-anchor="start" x="623.88" y="-358.85" font-family="Helvetica,sans-Serif" font-weight="bold" font-size="12.00">CROSS&#45;CUTTING</text>
<text text-anchor="start" x="636.25" y="-349.7" font-family="Helvetica,sans-Serif" font-size="9.00">used by every loop</text>
</g>
<!-- lde -->
<g id="node1" class="node">
<title>lde</title>
<path fill="#e8f4fd" stroke="#1f77b4" stroke-width="2" d="M531.62,-461.75C531.62,-461.75 378.38,-461.75 378.38,-461.75 372.38,-461.75 366.38,-455.75 366.38,-449.75 366.38,-449.75 366.38,-436.75 366.38,-436.75 366.38,-430.75 372.38,-424.75 378.38,-424.75 378.38,-424.75 531.62,-424.75 531.62,-424.75 537.62,-424.75 543.62,-430.75 543.62,-436.75 543.62,-436.75 543.62,-449.75 543.62,-449.75 543.62,-455.75 537.62,-461.75 531.62,-461.75"/>
<text text-anchor="start" x="381.5" y="-448.3" font-family="Helvetica,sans-Serif" font-weight="bold" font-size="11.00">loop&#45;driven&#45;engineering</text>
<text text-anchor="start" x="414.12" y="-439.2" font-family="Helvetica,sans-Serif" font-size="9.00">dach / entry&#45;point</text>
<text text-anchor="start" x="374.38" y="-430.2" font-family="Helvetica,sans-Serif" font-size="9.00">chooses loop, dispatches specialists</text>
</g>
<!-- rf -->
<g id="node3" class="node">
<title>rf</title>
<path fill="#ffffff" stroke="black" d="M177.75,-335.75C177.75,-335.75 52.25,-335.75 52.25,-335.75 46.25,-335.75 40.25,-329.75 40.25,-323.75 40.25,-323.75 40.25,-311.75 40.25,-311.75 40.25,-305.75 46.25,-299.75 52.25,-299.75 52.25,-299.75 177.75,-299.75 177.75,-299.75 183.75,-299.75 189.75,-305.75 189.75,-311.75 189.75,-311.75 189.75,-323.75 189.75,-323.75 189.75,-329.75 183.75,-335.75 177.75,-335.75"/>
<text text-anchor="start" x="55" y="-318.3" font-family="Helvetica,sans-Serif" font-weight="bold" font-size="11.00">reproducibility&#45;first</text>
<text text-anchor="start" x="48.25" y="-309.2" font-family="Helvetica,sans-Serif" font-size="9.00">no update on a single sample</text>
</g>
<!-- lde&#45;&gt;rf -->
<g id="edge6" class="edge">
<title>lde&#45;&gt;rf</title>
<path fill="none" stroke="#888888" d="M365.89,-424.68C319.4,-413.97 261.9,-398.27 208.31,-375.86"/>
<polygon fill="#888888" stroke="#888888" points="209.96,-372.76 199.39,-372.04 207.2,-379.2 209.96,-372.76"/>
<text text-anchor="middle" x="318.14" y="-397.25" font-family="Helvetica,sans-Serif" font-size="10.00">fix a bug /</text>
<text text-anchor="middle" x="318.14" y="-384.5" font-family="Helvetica,sans-Serif" font-size="10.00">close a test</text>
</g>
<!-- ir -->
<g id="node7" class="node">
<title>ir</title>
<path fill="#ffffff" stroke="black" d="M657.62,-223.5C657.62,-223.5 510.38,-223.5 510.38,-223.5 504.38,-223.5 498.38,-217.5 498.38,-211.5 498.38,-211.5 498.38,-198.5 498.38,-198.5 498.38,-192.5 504.38,-186.5 510.38,-186.5 510.38,-186.5 657.62,-186.5 657.62,-186.5 663.62,-186.5 669.62,-192.5 669.62,-198.5 669.62,-198.5 669.62,-211.5 669.62,-211.5 669.62,-217.5 663.62,-223.5 657.62,-223.5"/>
<text text-anchor="start" x="521.38" y="-210.05" font-family="Helvetica,sans-Serif" font-weight="bold" font-size="11.00">iterative&#45;refinement</text>
<text text-anchor="start" x="509.38" y="-200.95" font-family="Helvetica,sans-Serif" font-size="9.00">polish with a structured gradient</text>
<text text-anchor="start" x="506.38" y="-191.95" font-family="Helvetica,sans-Serif" font-size="9.00">stop on regression / plateau / time</text>
</g>
<!-- lde&#45;&gt;ir -->
<g id="edge7" class="edge">
<title>lde&#45;&gt;ir</title>
<path fill="none" stroke="#888888" d="M481.23,-424.28C486.89,-419.23 492.29,-413.3 496,-406.75 521.69,-361.4 494.88,-338.78 516.25,-291.25 519.53,-283.96 523.57,-276.76 528.03,-269.8"/>
<polygon fill="#888888" stroke="#888888" points="530.78,-271.99 533.5,-261.75 524.99,-268.06 530.78,-271.99"/>
<text text-anchor="middle" x="543.62" y="-321" font-family="Helvetica,sans-Serif" font-size="10.00">polish a</text>
<text text-anchor="middle" x="543.62" y="-308.25" font-family="Helvetica,sans-Serif" font-size="10.00">deliverable</text>
</g>
<!-- dd -->
<g id="node9" class="node">
<title>dd</title>
<path fill="#ffffff" stroke="black" d="M452.88,-336.25C452.88,-336.25 349.12,-336.25 349.12,-336.25 343.12,-336.25 337.12,-330.25 337.12,-324.25 337.12,-324.25 337.12,-311.25 337.12,-311.25 337.12,-305.25 343.12,-299.25 349.12,-299.25 349.12,-299.25 452.88,-299.25 452.88,-299.25 458.88,-299.25 464.88,-305.25 464.88,-311.25 464.88,-311.25 464.88,-324.25 464.88,-324.25 464.88,-330.25 458.88,-336.25 452.88,-336.25"/>
<text text-anchor="start" x="356.38" y="-322.8" font-family="Helvetica,sans-Serif" font-weight="bold" font-size="11.00">drift&#45;detection</text>
<text text-anchor="start" x="345.12" y="-313.7" font-family="Helvetica,sans-Serif" font-size="9.00">periodic 7&#45;indicator scan</text>
<text text-anchor="start" x="352.25" y="-304.7" font-family="Helvetica,sans-Serif" font-size="9.00">finds cumulative drift</text>
</g>
<!-- lde&#45;&gt;dd -->
<g id="edge8" class="edge">
<title>lde&#45;&gt;dd</title>
<path fill="none" stroke="#888888" d="M418.29,-424.43C411.86,-419.6 406.03,-413.74 402.25,-406.75 398.57,-399.95 396.29,-392.4 395.01,-384.66"/>
<polygon fill="#888888" stroke="#888888" points="398.5,-384.33 393.96,-374.75 391.54,-385.07 398.5,-384.33"/>
<text text-anchor="middle" x="449.12" y="-397.25" font-family="Helvetica,sans-Serif" font-size="10.00">periodic /</text>
<text text-anchor="middle" x="449.12" y="-384.5" font-family="Helvetica,sans-Serif" font-size="10.00">pattern in 3+ tasks</text>
</g>
<!-- dr -->
<g id="node10" class="node">
<title>dr</title>
<path fill="#ffffff" stroke="black" d="M763.12,-336.25C763.12,-336.25 594.88,-336.25 594.88,-336.25 588.88,-336.25 582.88,-330.25 582.88,-324.25 582.88,-324.25 582.88,-311.25 582.88,-311.25 582.88,-305.25 588.88,-299.25 594.88,-299.25 594.88,-299.25 763.12,-299.25 763.12,-299.25 769.12,-299.25 775.12,-305.25 775.12,-311.25 775.12,-311.25 775.12,-324.25 775.12,-324.25 775.12,-330.25 769.12,-336.25 763.12,-336.25"/>
<text text-anchor="start" x="614.5" y="-322.8" font-family="Helvetica,sans-Serif" font-weight="bold" font-size="11.00">dialectical&#45;reasoning</text>
<text text-anchor="start" x="609.62" y="-313.7" font-family="Helvetica,sans-Serif" font-size="9.00">thesis → antithesis → synthesis</text>
<text text-anchor="start" x="590.88" y="-304.7" font-family="Helvetica,sans-Serif" font-size="9.00">before any non&#45;trivial recommendation</text>
</g>
<!-- lde&#45;&gt;dr -->
<g id="edge9" class="edge">
<title>lde&#45;&gt;dr</title>
<path fill="none" stroke="#888888" d="M490.6,-424.29C501.38,-418.75 513.22,-412.58 524,-406.75 540.43,-397.86 557.74,-388.27 574.59,-378.8"/>
<polygon fill="#888888" stroke="#888888" points="576.14,-381.95 583.13,-373.99 572.7,-375.85 576.14,-381.95"/>
<text text-anchor="middle" x="598.38" y="-390.88" font-family="Helvetica,sans-Serif" font-size="10.00">plan / review</text>
</g>
<!-- ddod -->
<g id="node2" class="node">
<title>ddod</title>
<path fill="#cfe3fa" stroke="#1f77b4" d="M477.62,-137.75C477.62,-137.75 324.38,-137.75 324.38,-137.75 318.38,-137.75 312.38,-131.75 312.38,-125.75 312.38,-125.75 312.38,-112.75 312.38,-112.75 312.38,-106.75 318.38,-100.75 324.38,-100.75 324.38,-100.75 477.62,-100.75 477.62,-100.75 483.62,-100.75 489.62,-106.75 489.62,-112.75 489.62,-112.75 489.62,-125.75 489.62,-125.75 489.62,-131.75 483.62,-137.75 477.62,-137.75"/>
<text text-anchor="start" x="320.38" y="-124.3" font-family="Helvetica,sans-Serif" font-weight="bold" font-size="11.00">docs&#45;as&#45;definition&#45;of&#45;done</text>
<text text-anchor="start" x="362.75" y="-115.2" font-family="Helvetica,sans-Serif" font-size="9.00">closes every loop</text>
<text text-anchor="start" x="321.12" y="-106.2" font-family="Helvetica,sans-Serif" font-size="9.00">code + tests + docs in one commit</text>
</g>
<!-- rcbl -->
<g id="node4" class="node">
<title>rcbl</title>
<path fill="#ffffff" stroke="black" d="M177.75,-223C177.75,-223 64.25,-223 64.25,-223 58.25,-223 52.25,-217 52.25,-211 52.25,-211 52.25,-199 52.25,-199 52.25,-193 58.25,-187 64.25,-187 64.25,-187 177.75,-187 177.75,-187 183.75,-187 189.75,-193 189.75,-199 189.75,-199 189.75,-211 189.75,-211 189.75,-217 183.75,-223 177.75,-223"/>
<text text-anchor="start" x="60.62" y="-205.55" font-family="Helvetica,sans-Serif" font-weight="bold" font-size="11.00">root&#45;cause&#45;by&#45;layer</text>
<text text-anchor="start" x="60.25" y="-196.45" font-family="Helvetica,sans-Serif" font-size="9.00">5&#45;Why ladder to layer 4 / 5</text>
</g>
<!-- rf&#45;&gt;rcbl -->
<g id="edge1" class="edge">
<title>rf&#45;&gt;rcbl</title>
<path fill="none" stroke="#888888" d="M115.94,-299.45C116.88,-282.05 118.35,-254.95 119.46,-234.4"/>
<polygon fill="#888888" stroke="#888888" points="122.94,-234.87 119.99,-224.69 115.95,-234.49 122.94,-234.87"/>
<text text-anchor="middle" x="145.59" y="-271.75" font-family="Helvetica,sans-Serif" font-size="10.00">real signal?</text>
</g>
<!-- rcbl&#45;&gt;ddod -->
<g id="edge10" class="edge">
<title>rcbl&#45;&gt;ddod</title>
<path fill="none" stroke="#888888" stroke-dasharray="5,2" d="M198,-179.72C199.34,-179.31 200.68,-178.9 202,-178.5 243.54,-165.88 290.1,-152.23 327.74,-141.31"/>
<polygon fill="#888888" stroke="#888888" points="328.52,-144.73 337.16,-138.58 326.58,-138 328.52,-144.73"/>
<text text-anchor="middle" x="285.78" y="-159" font-family="Helvetica,sans-Serif" font-size="10.00">close</text>
</g>
<!-- lbl -->
<g id="node5" class="node">
<title>lbl</title>
<path fill="#ffffff" stroke="black" d="M177.62,-137.25C177.62,-137.25 48.38,-137.25 48.38,-137.25 42.38,-137.25 36.38,-131.25 36.38,-125.25 36.38,-125.25 36.38,-113.25 36.38,-113.25 36.38,-107.25 42.38,-101.25 48.38,-101.25 48.38,-101.25 177.62,-101.25 177.62,-101.25 183.62,-101.25 189.62,-107.25 189.62,-113.25 189.62,-113.25 189.62,-125.25 189.62,-125.25 189.62,-131.25 183.62,-137.25 177.62,-137.25"/>
<text text-anchor="start" x="54.88" y="-119.8" font-family="Helvetica,sans-Serif" font-weight="bold" font-size="11.00">loss&#45;backprop&#45;lens</text>
<text text-anchor="start" x="44.38" y="-110.7" font-family="Helvetica,sans-Serif" font-size="9.00">step size matches loss pattern</text>
</g>
<!-- rcbl&#45;&gt;lbl -->
<g id="edge2" class="edge">
<title>rcbl&#45;&gt;lbl</title>
<path fill="none" stroke="#888888" d="M119.34,-186.65C118.3,-175.75 116.93,-161.44 115.74,-148.9"/>
<polygon fill="#888888" stroke="#888888" points="119.23,-148.71 114.8,-139.09 112.27,-149.38 119.23,-148.71"/>
<text text-anchor="middle" x="157.6" y="-159" font-family="Helvetica,sans-Serif" font-size="10.00">how big an edit?</text>
</g>
<!-- edi -->
<g id="node6" class="node">
<title>edi</title>
<path fill="#ffffff" stroke="black" d="M163.38,-52C163.38,-52 38.62,-52 38.62,-52 32.62,-52 26.62,-46 26.62,-40 26.62,-40 26.62,-28 26.62,-28 26.62,-22 32.62,-16 38.62,-16 38.62,-16 163.38,-16 163.38,-16 169.38,-16 175.38,-22 175.38,-28 175.38,-28 175.38,-40 175.38,-40 175.38,-46 169.38,-52 163.38,-52"/>
<text text-anchor="start" x="39.12" y="-34.55" font-family="Helvetica,sans-Serif" font-weight="bold" font-size="11.00">e2e&#45;driven&#45;iteration</text>
<text text-anchor="start" x="34.62" y="-25.45" font-family="Helvetica,sans-Serif" font-size="9.00">measure Δloss every iteration</text>
</g>
<!-- lbl&#45;&gt;edi -->
<g id="edge3" class="edge">
<title>lbl&#45;&gt;edi</title>
<path fill="none" stroke="#888888" d="M110.51,-101C108.95,-90.17 106.9,-75.95 105.1,-63.48"/>
<polygon fill="#888888" stroke="#888888" points="108.59,-63.12 103.7,-53.73 101.66,-64.12 108.59,-63.12"/>
<text text-anchor="middle" x="136.97" y="-73.25" font-family="Helvetica,sans-Serif" font-size="10.00">run the loop</text>
</g>
<!-- edi&#45;&gt;rf -->
<g id="edge4" class="edge">
<title>edi&#45;&gt;rf</title>
<path fill="none" stroke="#888888" d="M71.52,-52.29C55.09,-63.73 36.15,-80.37 27,-100.75 20.26,-115.75 25.94,-121.34 27,-137.75 30.56,-192.65 15.73,-212.72 43,-260.5 50.26,-273.22 61.65,-284.08 73.24,-292.77"/>
<polygon fill="#888888" stroke="#888888" points="71.07,-295.52 81.27,-298.4 75.09,-289.79 71.07,-295.52"/>
<text text-anchor="middle" x="48.22" y="-159" font-family="Helvetica,sans-Serif" font-size="10.00">next iter</text>
</g>
<!-- ir&#45;&gt;ddod -->
<g id="edge11" class="edge">
<title>ir&#45;&gt;ddod</title>
<path fill="none" stroke="#888888" stroke-dasharray="5,2" d="M528.29,-178.5C503.43,-167.13 474.39,-153.84 450.33,-142.83"/>
<polygon fill="#888888" stroke="#888888" points="452.12,-139.8 441.57,-138.82 449.21,-146.16 452.12,-139.8"/>
<text text-anchor="middle" x="516.21" y="-159" font-family="Helvetica,sans-Serif" font-size="10.00">close</text>
</g>
<!-- me -->
<g id="node8" class="node">
<title>me</title>
<path fill="#ffffff" stroke="black" d="M451.38,-223.5C451.38,-223.5 350.62,-223.5 350.62,-223.5 344.62,-223.5 338.62,-217.5 338.62,-211.5 338.62,-211.5 338.62,-198.5 338.62,-198.5 338.62,-192.5 344.62,-186.5 350.62,-186.5 350.62,-186.5 451.38,-186.5 451.38,-186.5 457.38,-186.5 463.38,-192.5 463.38,-198.5 463.38,-198.5 463.38,-211.5 463.38,-211.5 463.38,-217.5 457.38,-223.5 451.38,-223.5"/>
<text text-anchor="start" x="346.62" y="-210.05" font-family="Helvetica,sans-Serif" font-weight="bold" font-size="11.00">method&#45;evolution</text>
<text text-anchor="start" x="347" y="-200.95" font-family="Helvetica,sans-Serif" font-size="9.00">pattern across 3+ tasks</text>
<text text-anchor="start" x="350.75" y="-191.95" font-family="Helvetica,sans-Serif" font-size="9.00">→ evolve the skill itself</text>
</g>
<!-- me&#45;&gt;ddod -->
<g id="edge12" class="edge">
<title>me&#45;&gt;ddod</title>
<path fill="none" stroke="#888888" stroke-dasharray="5,2" d="M401,-178.5C401,-169.23 401,-158.68 401,-149.14"/>
<polygon fill="#888888" stroke="#888888" points="404.5,-149.5 401,-139.5 397.5,-149.5 404.5,-149.5"/>
<text text-anchor="middle" x="413.75" y="-159" font-family="Helvetica,sans-Serif" font-size="10.00">close</text>
</g>
<!-- dd&#45;&gt;me -->
<g id="edge5" class="edge">
<title>dd&#45;&gt;me</title>
<path fill="none" stroke="#888888" d="M401,-298.96C401,-281.76 401,-255.41 401,-235.15"/>
<polygon fill="#888888" stroke="#888888" points="404.5,-235.26 401,-225.26 397.5,-235.26 404.5,-235.26"/>
<text text-anchor="middle" x="436.62" y="-271.75" font-family="Helvetica,sans-Serif" font-size="10.00">pattern found?</text>
</g>
</g>
</svg>
