<?xml version="1.0" encoding="UTF-8" standalone="no"?>
<!DOCTYPE svg PUBLIC "-//W3C//DTD SVG 1.1//EN"
 "http://www.w3.org/Graphics/SVG/1.1/DTD/svg11.dtd">
<!-- Generated by graphviz version 12.2.1 (0)
 -->
<!-- Title: skills_overview Pages: 1 -->
<svg width="1335pt" height="512pt"
 viewBox="0.00 0.00 1335.00 511.75" xmlns="http://www.w3.org/2000/svg" xmlns:xlink="http://www.w3.org/1999/xlink">
<g id="graph0" class="graph" transform="scale(1 1) rotate(0) translate(4 507.75)">
<title>skills_overview</title>
<polygon fill="white" stroke="none" points="-4,4 -4,-507.75 1331,-507.75 1331,4 -4,4"/>
<text text-anchor="start" x="518" y="-487.45" font-family="Helvetica,sans-Serif" font-weight="bold" font-size="14.00">LDD — twelve skills on four gradients</text>
<text text-anchor="start" x="469.25" y="-477.25" font-family="Helvetica,sans-Serif" font-size="10.00">Inner (code) · Refinement (deliverable) · Outer (method) · CoT (reasoning chain)</text>
<text text-anchor="start" x="474.88" y="-467.25" font-family="Helvetica,sans-Serif" font-size="10.00">Cross&#45;cutting: dialectical&#45;reasoning, docs&#45;as&#45;definition&#45;of&#45;done, define&#45;metric</text>
<g id="clust1" class="cluster">
<title>cluster_inner</title>
<path fill="#e6fbe6" stroke="#2ca02c" d="M20,-8C20,-8 186,-8 186,-8 192,-8 198,-14 198,-20 198,-20 198,-360.75 198,-360.75 198,-366.75 192,-372.75 186,-372.75 186,-372.75 20,-372.75 20,-372.75 14,-372.75 8,-366.75 8,-360.75 8,-360.75 8,-20 8,-20 8,-14 14,-8 20,-8"/>
<text text-anchor="start" x="24.62" y="-358.35" font-family="Helvetica,sans-Serif" font-weight="bold" font-size="12.00">INNER LOOP</text>
<text text-anchor="start" x="107.88" y="-358.35" font-family="Helvetica,sans-Serif" font-size="12.00"> — θ = code</text>
<text text-anchor="start" x="35.88" y="-349.2" font-family="Helvetica,sans-Serif" font-size="9.00">K_MAX = 5 iterations per task</text>
</g>
<g id="clust2" class="cluster">
<title>cluster_refine</title>
<path fill="#fef4ea" stroke="#ff7f0e" d="M540,-178.5C540,-178.5 817,-178.5 817,-178.5 823,-178.5 829,-184.5 829,-190.5 829,-190.5 829,-248.5 829,-248.5 829,-254.5 823,-260.5 817,-260.5 817,-260.5 540,-260.5 540,-260.5 534,-260.5 528,-254.5 528,-248.5 528,-248.5 528,-190.5 528,-190.5 528,-184.5 534,-178.5 540,-178.5"/>
<text text-anchor="start" x="535.62" y="-246.1" font-family="Helvetica,sans-Serif" font-weight="bold" font-size="12.00">REFINEMENT LOOP</text>
<text text-anchor="start" x="663.88" y="-246.1" font-family="Helvetica,sans-Serif" font-size="12.00"> — θ = deliverable (y&#45;axis)</text>
<text text-anchor="start" x="617" y="-236.95" font-family="Helvetica,sans-Serif" font-size="9.00">budget halves per iteration</text>
</g>
<g id="clust3" class="cluster">
<title>cluster_outer</title>
<path fill="#f5ebfd" stroke="#9467bd" d="M218,-178.5C218,-178.5 508,-178.5 508,-178.5 514,-178.5 520,-184.5 520,-190.5 520,-190.5 520,-361.25 520,-361.25 520,-367.25 514,-373.25 508,-373.25 508,-373.25 218,-373.25 218,-373.25 212,-373.25 206,-367.25 206,-361.25 206,-361.25 206,-190.5 206,-190.5 206,-184.5 212,-178.5 218,-178.5"/>
<text text-anchor="start" x="213.75" y="-358.85" font-family="Helvetica,sans-Serif" font-weight="bold" font-size="12.00">OUTER LOOP</text>
<text text-anchor="start" x="301.5" y="-358.85" font-family="Helvetica,sans-Serif" font-size="12.00"> — m = skills / rubrics (∂L/∂method)</text>
<text text-anchor="start" x="313.5" y="-349.7" font-family="Helvetica,sans-Serif" font-size="9.00">rollback on regression</text>
</g>
<g id="clust4" class="cluster">
<title>cluster_cot</title>
<path fill="#e0f5f0" stroke="#17a68c" d="M680,-291.25C680,-291.25 957,-291.25 957,-291.25 963,-291.25 969,-297.25 969,-303.25 969,-303.25 969,-361.25 969,-361.25 969,-367.25 963,-373.25 957,-373.25 957,-373.25 680,-373.25 680,-373.25 674,-373.25 668,-367.25 668,-361.25 668,-361.25 668,-303.25 668,-303.25 668,-297.25 674,-291.25 680,-291.25"/>
<text text-anchor="start" x="676" y="-358.85" font-family="Helvetica,sans-Serif" font-weight="bold" font-size="12.00">CoT LOOP</text>
<text text-anchor="start" x="743.5" y="-358.85" font-family="Helvetica,sans-Serif" font-size="12.00"> — t = reasoning chain (∂L/∂thought)</text>
<text text-anchor="start" x="716.88" y="-349.7" font-family="Helvetica,sans-Serif" font-size="9.00">per&#45;step dialectic + ground&#45;truth verification</text>
</g>
<g id="clust5" class="cluster">
<title>cluster_cross</title>
<path fill="#fff9e6" stroke="#d4a017" d="M989,-291.25C989,-291.25 1307,-291.25 1307,-291.25 1313,-291.25 1319,-297.25 1319,-303.25 1319,-303.25 1319,-361.25 1319,-361.25 1319,-367.25 1313,-373.25 1307,-373.25 1307,-373.25 989,-373.25 989,-373.25 983,-373.25 977,-367.25 977,-361.25 977,-361.25 977,-303.25 977,-303.25 977,-297.25 983,-291.25 989,-291.25"/>
<text text-anchor="start" x="1092.88" y="-358.85" font-family="Helvetica,sans-Serif" font-weight="bold" font-size="12.00">CROSS&#45;CUTTING</text>
<text text-anchor="start" x="1098.5" y="-349.7" font-family="Helvetica,sans-Serif" font-size="9.00">apply on all four loops</text>
</g>
<!-- lde -->
<g id="node1" class="node">
<title>lde</title>
<path fill="#e8f4fd" stroke="#1f77b4" stroke-width="2" d="M681.62,-461.75C681.62,-461.75 528.38,-461.75 528.38,-461.75 522.38,-461.75 516.38,-455.75 516.38,-449.75 516.38,-449.75 516.38,-436.75 516.38,-436.75 516.38,-430.75 522.38,-424.75 528.38,-424.75 528.38,-424.75 681.62,-424.75 681.62,-424.75 687.62,-424.75 693.62,-430.75 693.62,-436.75 693.62,-436.75 693.62,-449.75 693.62,-449.75 693.62,-455.75 687.62,-461.75 681.62,-461.75"/>
<text text-anchor="start" x="531.5" y="-448.3" font-family="Helvetica,sans-Serif" font-weight="bold" font-size="11.00">loop&#45;driven&#45;engineering</text>
<text text-anchor="start" x="564.12" y="-439.2" font-family="Helvetica,sans-Serif" font-size="9.00">dach / entry&#45;point</text>
<text text-anchor="start" x="524.38" y="-430.2" font-family="Helvetica,sans-Serif" font-size="9.00">chooses loop, dispatches specialists</text>
</g>
<!-- rf -->
<g id="node3" class="node">
<title>rf</title>
<path fill="#ffffff" stroke="black" d="M177.75,-335.75C177.75,-335.75 52.25,-335.75 52.25,-335.75 46.25,-335.75 40.25,-329.75 40.25,-323.75 40.25,-323.75 40.25,-311.75 40.25,-311.75 40.25,-305.75 46.25,-299.75 52.25,-299.75 52.25,-299.75 177.75,-299.75 177.75,-299.75 183.75,-299.75 189.75,-305.75 189.75,-311.75 189.75,-311.75 189.75,-323.75 189.75,-323.75 189.75,-329.75 183.75,-335.75 177.75,-335.75"/>
<text text-anchor="start" x="55" y="-318.3" font-family="Helvetica,sans-Serif" font-weight="bold" font-size="11.00">reproducibility&#45;first</text>
<text text-anchor="start" x="48.25" y="-309.2" font-family="Helvetica,sans-Serif" font-size="9.00">no update on a single sample</text>
</g>
<!-- lde&#45;&gt;rf -->
<g id="edge6" class="edge">
<title>lde&#45;&gt;rf</title>
<path fill="none" stroke="#888888" d="M515.92,-436.96C435.24,-429.96 313.84,-413.85 208.76,-375.67"/>
<polygon fill="#888888" stroke="#888888" points="210.01,-372.4 199.42,-372.19 207.57,-378.96 210.01,-372.4"/>
<text text-anchor="middle" x="337.23" y="-397.25" font-family="Helvetica,sans-Serif" font-size="10.00">fix a bug /</text>
<text text-anchor="middle" x="337.23" y="-384.5" font-family="Helvetica,sans-Serif" font-size="10.00">close a test</text>
</g>
<!-- ir -->
<g id="node7" class="node">
<title>ir</title>
<path fill="#ffffff" stroke="black" d="M695.62,-223.5C695.62,-223.5 548.38,-223.5 548.38,-223.5 542.38,-223.5 536.38,-217.5 536.38,-211.5 536.38,-211.5 536.38,-198.5 536.38,-198.5 536.38,-192.5 542.38,-186.5 548.38,-186.5 548.38,-186.5 695.62,-186.5 695.62,-186.5 701.62,-186.5 707.62,-192.5 707.62,-198.5 707.62,-198.5 707.62,-211.5 707.62,-211.5 707.62,-217.5 701.62,-223.5 695.62,-223.5"/>
<text text-anchor="start" x="559.38" y="-210.05" font-family="Helvetica,sans-Serif" font-weight="bold" font-size="11.00">iterative&#45;refinement</text>
<text text-anchor="start" x="547.38" y="-200.95" font-family="Helvetica,sans-Serif" font-size="9.00">polish with a structured gradient</text>
<text text-anchor="start" x="544.38" y="-191.95" font-family="Helvetica,sans-Serif" font-size="9.00">stop on regression / plateau / time</text>
</g>
<!-- lde&#45;&gt;ir -->
<g id="edge7" class="edge">
<title>lde&#45;&gt;ir</title>
<path fill="none" stroke="#888888" d="M604.81,-424.54C604.66,-396.29 604.99,-339.32 609.25,-291.25 609.82,-284.86 610.55,-278.22 611.38,-271.59"/>
<polygon fill="#888888" stroke="#888888" points="614.81,-272.37 612.65,-262 607.87,-271.45 614.81,-272.37"/>
<text text-anchor="middle" x="636.62" y="-321" font-family="Helvetica,sans-Serif" font-size="10.00">polish a</text>
<text text-anchor="middle" x="636.62" y="-308.25" font-family="Helvetica,sans-Serif" font-size="10.00">deliverable</text>
</g>
<!-- dd -->
<g id="node9" class="node">
<title>dd</title>
<path fill="#ffffff" stroke="black" d="M496.88,-336.25C496.88,-336.25 393.12,-336.25 393.12,-336.25 387.12,-336.25 381.12,-330.25 381.12,-324.25 381.12,-324.25 381.12,-311.25 381.12,-311.25 381.12,-305.25 387.12,-299.25 393.12,-299.25 393.12,-299.25 496.88,-299.25 496.88,-299.25 502.88,-299.25 508.88,-305.25 508.88,-311.25 508.88,-311.25 508.88,-324.25 508.88,-324.25 508.88,-330.25 502.88,-336.25 496.88,-336.25"/>
<text text-anchor="start" x="400.38" y="-322.8" font-family="Helvetica,sans-Serif" font-weight="bold" font-size="11.00">drift&#45;detection</text>
<text text-anchor="start" x="389.12" y="-313.7" font-family="Helvetica,sans-Serif" font-size="9.00">periodic 7&#45;indicator scan</text>
<text text-anchor="start" x="396.25" y="-304.7" font-family="Helvetica,sans-Serif" font-size="9.00">finds cumulative drift</text>
</g>
<!-- lde&#45;&gt;dd -->
<g id="edge8" class="edge">
<title>lde&#45;&gt;dd</title>
<path fill="none" stroke="#888888" d="M527.6,-424.35C516.74,-419.74 506.23,-413.96 497.25,-406.75 488.92,-400.06 481.62,-391.66 475.32,-382.71"/>
<polygon fill="#888888" stroke="#888888" points="478.36,-380.96 469.96,-374.51 472.51,-384.8 478.36,-380.96"/>
<text text-anchor="middle" x="544.12" y="-397.25" font-family="Helvetica,sans-Serif" font-size="10.00">periodic /</text>
<text text-anchor="middle" x="544.12" y="-384.5" font-family="Helvetica,sans-Serif" font-size="10.00">pattern in 3+ tasks</text>
</g>
<!-- dcot -->
<g id="node10" class="node">
<title>dcot</title>
<path fill="#ffffff" stroke="black" d="M898.62,-336.25C898.62,-336.25 739.38,-336.25 739.38,-336.25 733.38,-336.25 727.38,-330.25 727.38,-324.25 727.38,-324.25 727.38,-311.25 727.38,-311.25 727.38,-305.25 733.38,-299.25 739.38,-299.25 739.38,-299.25 898.62,-299.25 898.62,-299.25 904.62,-299.25 910.62,-305.25 910.62,-311.25 910.62,-311.25 910.62,-324.25 910.62,-324.25 910.62,-330.25 904.62,-336.25 898.62,-336.25"/>
<text text-anchor="start" x="775.12" y="-322.8" font-family="Helvetica,sans-Serif" font-weight="bold" font-size="11.00">dialectical&#45;cot</text>
<text text-anchor="start" x="754.12" y="-313.7" font-family="Helvetica,sans-Serif" font-size="9.00">thesis / antithesis / synthesis</text>
<text text-anchor="start" x="735.38" y="-304.7" font-family="Helvetica,sans-Serif" font-size="9.00">per step; commit / revise / backtrack</text>
</g>
<!-- lde&#45;&gt;dcot -->
<g id="edge9" class="edge">
<title>lde&#45;&gt;dcot</title>
<path fill="none" stroke="#888888" d="M636.12,-424.29C657.1,-412.18 686.11,-395.44 714.85,-378.86"/>
<polygon fill="#888888" stroke="#888888" points="716.35,-382.03 723.26,-374 712.85,-375.97 716.35,-382.03"/>
<text text-anchor="middle" x="756.21" y="-397.25" font-family="Helvetica,sans-Serif" font-size="10.00">verifiable</text>
<text text-anchor="middle" x="756.21" y="-384.5" font-family="Helvetica,sans-Serif" font-size="10.00">multi&#45;step reasoning</text>
</g>
<!-- dr -->
<g id="node11" class="node">
<title>dr</title>
<path fill="#ffffff" stroke="black" d="M1165.12,-336.25C1165.12,-336.25 996.88,-336.25 996.88,-336.25 990.88,-336.25 984.88,-330.25 984.88,-324.25 984.88,-324.25 984.88,-311.25 984.88,-311.25 984.88,-305.25 990.88,-299.25 996.88,-299.25 996.88,-299.25 1165.12,-299.25 1165.12,-299.25 1171.12,-299.25 1177.12,-305.25 1177.12,-311.25 1177.12,-311.25 1177.12,-324.25 1177.12,-324.25 1177.12,-330.25 1171.12,-336.25 1165.12,-336.25"/>
<text text-anchor="start" x="1016.5" y="-322.8" font-family="Helvetica,sans-Serif" font-weight="bold" font-size="11.00">dialectical&#45;reasoning</text>
<text text-anchor="start" x="1011.62" y="-313.7" font-family="Helvetica,sans-Serif" font-size="9.00">thesis → antithesis → synthesis</text>
<text text-anchor="start" x="992.88" y="-304.7" font-family="Helvetica,sans-Serif" font-size="9.00">before any non&#45;trivial recommendation</text>
</g>
<!-- lde&#45;&gt;dr -->
<g id="edge10" class="edge">
<title>lde&#45;&gt;dr</title>
<path fill="none" stroke="#888888" d="M693.92,-433.17C766.87,-424.01 872.44,-406.81 966.22,-375.5"/>
<polygon fill="#888888" stroke="#888888" points="967.24,-378.85 975.57,-372.31 964.97,-372.23 967.24,-378.85"/>
<text text-anchor="middle" x="975.69" y="-390.88" font-family="Helvetica,sans-Serif" font-size="10.00">plan / review</text>
</g>
<!-- ddod -->
<g id="node2" class="node">
<title>ddod</title>
<path fill="#cfe3fa" stroke="#1f77b4" d="M604.62,-137.75C604.62,-137.75 451.38,-137.75 451.38,-137.75 445.38,-137.75 439.38,-131.75 439.38,-125.75 439.38,-125.75 439.38,-112.75 439.38,-112.75 439.38,-106.75 445.38,-100.75 451.38,-100.75 451.38,-100.75 604.62,-100.75 604.62,-100.75 610.62,-100.75 616.62,-106.75 616.62,-112.75 616.62,-112.75 616.62,-125.75 616.62,-125.75 616.62,-131.75 610.62,-137.75 604.62,-137.75"/>
<text text-anchor="start" x="447.38" y="-124.3" font-family="Helvetica,sans-Serif" font-weight="bold" font-size="11.00">docs&#45;as&#45;definition&#45;of&#45;done</text>
<text text-anchor="start" x="489.75" y="-115.2" font-family="Helvetica,sans-Serif" font-size="9.00">closes every loop</text>
<text text-anchor="start" x="448.12" y="-106.2" font-family="Helvetica,sans-Serif" font-size="9.00">code + tests + docs in one commit</text>
</g>
<!-- rcbl -->
<g id="node4" class="node">
<title>rcbl</title>
<path fill="#ffffff" stroke="black" d="M177.75,-223C177.75,-223 64.25,-223 64.25,-223 58.25,-223 52.25,-217 52.25,-211 52.25,-211 52.25,-199 52.25,-199 52.25,-193 58.25,-187 64.25,-187 64.25,-187 177.75,-187 177.75,-187 183.75,-187 189.75,-193 189.75,-199 189.75,-199 189.75,-211 189.75,-211 189.75,-217 183.75,-223 177.75,-223"/>
<text text-anchor="start" x="60.62" y="-205.55" font-family="Helvetica,sans-Serif" font-weight="bold" font-size="11.00">root&#45;cause&#45;by&#45;layer</text>
<text text-anchor="start" x="60.25" y="-196.45" font-family="Helvetica,sans-Serif" font-size="9.00">5&#45;Why ladder to layer 4 / 5</text>
</g>
<!-- rf&#45;&gt;rcbl -->
<g id="edge1" class="edge">
<title>rf&#45;&gt;rcbl</title>
<path fill="none" stroke="#888888" d="M115.94,-299.45C116.88,-282.05 118.35,-254.95 119.46,-234.4"/>
<polygon fill="#888888" stroke="#888888" points="122.94,-234.87 119.99,-224.69 115.95,-234.49 122.94,-234.87"/>
<text text-anchor="middle" x="145.59" y="-271.75" font-family="Helvetica,sans-Serif" font-size="10.00">real signal?</text>
</g>
<!-- rcbl&#45;&gt;ddod -->
<g id="edge11" class="edge">
<title>rcbl&#45;&gt;ddod</title>
<path fill="none" stroke="#888888" stroke-dasharray="5,2" d="M198,-179.5C199.34,-179.16 200.68,-178.83 202,-178.5 277.08,-160.05 363.23,-144.92 428.11,-134.7"/>
<polygon fill="#888888" stroke="#888888" points="428.31,-138.21 437.65,-133.21 427.23,-131.29 428.31,-138.21"/>
<text text-anchor="middle" x="312.54" y="-159" font-family="Helvetica,sans-Serif" font-size="10.00">close</text>
</g>
<!-- lbl -->
<g id="node5" class="node">
<title>lbl</title>
<path fill="#ffffff" stroke="black" d="M177.62,-137.25C177.62,-137.25 48.38,-137.25 48.38,-137.25 42.38,-137.25 36.38,-131.25 36.38,-125.25 36.38,-125.25 36.38,-113.25 36.38,-113.25 36.38,-107.25 42.38,-101.25 48.38,-101.25 48.38,-101.25 177.62,-101.25 177.62,-101.25 183.62,-101.25 189.62,-107.25 189.62,-113.25 189.62,-113.25 189.62,-125.25 189.62,-125.25 189.62,-131.25 183.62,-137.25 177.62,-137.25"/>
<text text-anchor="start" x="54.88" y="-119.8" font-family="Helvetica,sans-Serif" font-weight="bold" font-size="11.00">loss&#45;backprop&#45;lens</text>
<text text-anchor="start" x="44.38" y="-110.7" font-family="Helvetica,sans-Serif" font-size="9.00">step size matches loss pattern</text>
</g>
<!-- rcbl&#45;&gt;lbl -->
<g id="edge2" class="edge">
<title>rcbl&#45;&gt;lbl</title>
<path fill="none" stroke="#888888" d="M119.34,-186.65C118.3,-175.75 116.93,-161.44 115.74,-148.9"/>
<polygon fill="#888888" stroke="#888888" points="119.23,-148.71 114.8,-139.09 112.27,-149.38 119.23,-148.71"/>
<text text-anchor="middle" x="157.6" y="-159" font-family="Helvetica,sans-Serif" font-size="10.00">how big an edit?</text>
</g>
<!-- edi -->
<g id="node6" class="node">
<title>edi</title>
<path fill="#ffffff" stroke="black" d="M163.38,-52C163.38,-52 38.62,-52 38.62,-52 32.62,-52 26.62,-46 26.62,-40 26.62,-40 26.62,-28 26.62,-28 26.62,-22 32.62,-16 38.62,-16 38.62,-16 163.38,-16 163.38,-16 169.38,-16 175.38,-22 175.38,-28 175.38,-28 175.38,-40 175.38,-40 175.38,-46 169.38,-52 163.38,-52"/>
<text text-anchor="start" x="39.12" y="-34.55" font-family="Helvetica,sans-Serif" font-weight="bold" font-size="11.00">e2e&#45;driven&#45;iteration</text>
<text text-anchor="start" x="34.62" y="-25.45" font-family="Helvetica,sans-Serif" font-size="9.00">measure Δloss every iteration</text>
</g>
<!-- lbl&#45;&gt;edi -->
<g id="edge3" class="edge">
<title>lbl&#45;&gt;edi</title>
<path fill="none" stroke="#888888" d="M110.51,-101C108.95,-90.17 106.9,-75.95 105.1,-63.48"/>
<polygon fill="#888888" stroke="#888888" points="108.59,-63.12 103.7,-53.73 101.66,-64.12 108.59,-63.12"/>
<text text-anchor="middle" x="136.97" y="-73.25" font-family="Helvetica,sans-Serif" font-size="10.00">run the loop</text>
</g>
<!-- edi&#45;&gt;rf -->
<g id="edge4" class="edge">
<title>edi&#45;&gt;rf</title>
<path fill="none" stroke="#888888" d="M71.52,-52.29C55.09,-63.73 36.15,-80.37 27,-100.75 20.26,-115.75 25.94,-121.34 27,-137.75 30.56,-192.65 15.73,-212.72 43,-260.5 50.26,-273.22 61.65,-284.08 73.24,-292.77"/>
<polygon fill="#888888" stroke="#888888" points="71.07,-295.52 81.27,-298.4 75.09,-289.79 71.07,-295.52"/>
<text text-anchor="middle" x="48.22" y="-159" font-family="Helvetica,sans-Serif" font-size="10.00">next iter</text>
</g>
<!-- ir&#45;&gt;ddod -->
<g id="edge12" class="edge">
<title>ir&#45;&gt;ddod</title>
<path fill="none" stroke="#888888" stroke-dasharray="5,2" d="M593.38,-178.5C581.59,-168 567.96,-155.85 556.21,-145.38"/>
<polygon fill="#888888" stroke="#888888" points="558.83,-143.03 549.04,-138.99 554.17,-148.26 558.83,-143.03"/>
<text text-anchor="middle" x="593.38" y="-159" font-family="Helvetica,sans-Serif" font-size="10.00">close</text>
</g>
<!-- me -->
<g id="node8" class="node">
<title>me</title>
<path fill="#ffffff" stroke="black" d="M495.38,-223.5C495.38,-223.5 394.62,-223.5 394.62,-223.5 388.62,-223.5 382.62,-217.5 382.62,-211.5 382.62,-211.5 382.62,-198.5 382.62,-198.5 382.62,-192.5 388.62,-186.5 394.62,-186.5 394.62,-186.5 495.38,-186.5 495.38,-186.5 501.38,-186.5 507.38,-192.5 507.38,-198.5 507.38,-198.5 507.38,-211.5 507.38,-211.5 507.38,-217.5 501.38,-223.5 495.38,-223.5"/>
<text text-anchor="start" x="390.62" y="-210.05" font-family="Helvetica,sans-Serif" font-weight="bold" font-size="11.00">method&#45;evolution</text>
<text text-anchor="start" x="391" y="-200.95" font-family="Helvetica,sans-Serif" font-size="9.00">pattern across 3+ tasks</text>
<text text-anchor="start" x="394.75" y="-191.95" font-family="Helvetica,sans-Serif" font-size="9.00">→ evolve the skill itself</text>
</g>
<!-- me&#45;&gt;ddod -->
<g id="edge13" class="edge">
<title>me&#45;&gt;ddod</title>
<path fill="none" stroke="#888888" stroke-dasharray="5,2" d="M470.27,-178.5C480.44,-168.24 492.15,-156.42 502.36,-146.12"/>
<polygon fill="#888888" stroke="#888888" points="504.8,-148.63 509.36,-139.06 499.83,-143.7 504.8,-148.63"/>
<text text-anchor="middle" x="504.22" y="-159" font-family="Helvetica,sans-Serif" font-size="10.00">close</text>
</g>
<!-- dd&#45;&gt;me -->
<g id="edge5" class="edge">
<title>dd&#45;&gt;me</title>
<path fill="none" stroke="#888888" d="M445,-298.96C445,-281.76 445,-255.41 445,-235.15"/>
<polygon fill="#888888" stroke="#888888" points="448.5,-235.26 445,-225.26 441.5,-235.26 448.5,-235.26"/>
<text text-anchor="middle" x="480.62" y="-271.75" font-family="Helvetica,sans-Serif" font-size="10.00">pattern found?</text>
</g>
<!-- dcot&#45;&gt;ddod -->
<g id="edge14" class="edge">
<title>dcot&#45;&gt;ddod</title>
<path fill="none" stroke="#888888" stroke-dasharray="5,2" d="M831.48,-291.25C844.35,-260.84 859.17,-210.15 833,-178.5 807.25,-147.37 707.11,-132.72 628.51,-125.93"/>
<polygon fill="#888888" stroke="#888888" points="628.84,-122.45 618.59,-125.11 628.26,-129.42 628.84,-122.45"/>
<text text-anchor="middle" x="860.23" y="-201.88" font-family="Helvetica,sans-Serif" font-size="10.00">close</text>
</g>
<!-- dm -->
<g id="node12" class="node">
<title>dm</title>
<path fill="#ffffff" stroke="black" d="M1299.25,-336.25C1299.25,-336.25 1206.75,-336.25 1206.75,-336.25 1200.75,-336.25 1194.75,-330.25 1194.75,-324.25 1194.75,-324.25 1194.75,-311.25 1194.75,-311.25 1194.75,-305.25 1200.75,-299.25 1206.75,-299.25 1206.75,-299.25 1299.25,-299.25 1299.25,-299.25 1305.25,-299.25 1311.25,-305.25 1311.25,-311.25 1311.25,-311.25 1311.25,-324.25 1311.25,-324.25 1311.25,-330.25 1305.25,-336.25 1299.25,-336.25"/>
<text text-anchor="start" x="1211.75" y="-322.8" font-family="Helvetica,sans-Serif" font-weight="bold" font-size="11.00">define&#45;metric</text>
<text text-anchor="start" x="1202.75" y="-313.7" font-family="Helvetica,sans-Serif" font-size="9.00">agent&#45;defined metrics</text>
<text text-anchor="start" x="1206.5" y="-304.7" font-family="Helvetica,sans-Serif" font-size="9.00">with calibration gate</text>
</g>
</g>
</svg>
