<?xml version="1.0" encoding="UTF-8" standalone="no"?>
<!DOCTYPE svg PUBLIC "-//W3C//DTD SVG 1.1//EN"
 "http://www.w3.org/Graphics/SVG/1.1/DTD/svg11.dtd">
<!-- Generated by graphviz version 12.2.1 (0)
 -->
<!-- Title: three_loops Pages: 1 -->
<svg width="1914pt" height="548pt"
 viewBox="0.00 0.00 1914.23 548.00" xmlns="http://www.w3.org/2000/svg" xmlns:xlink="http://www.w3.org/1999/xlink">
<g id="graph0" class="graph" transform="scale(1 1) rotate(0) translate(4 544)">
<title>three_loops</title>
<polygon fill="white" stroke="none" points="-4,4 -4,-544 1910.23,-544 1910.23,4 -4,4"/>
<text text-anchor="start" x="782.87" y="-523.7" font-family="Helvetica,sans-Serif" font-weight="bold" font-size="14.00">LDD — Three orthogonal optimization loops</text>
<text text-anchor="start" x="744.24" y="-513.5" font-family="Helvetica,sans-Serif" font-size="10.00">Each loop optimizes a different parameter; mixing them produces unstable gradients.</text>
<g id="clust1" class="cluster">
<title>cluster_inner</title>
<path fill="#e8f4fd" stroke="#1f77b4" d="M97.75,-8C97.75,-8 1169,-8 1169,-8 1175,-8 1181,-14 1181,-20 1181,-20 1181,-146 1181,-146 1181,-152 1175,-158 1169,-158 1169,-158 97.75,-158 97.75,-158 91.75,-158 85.75,-152 85.75,-146 85.75,-146 85.75,-20 85.75,-20 85.75,-14 91.75,-8 97.75,-8"/>
<text text-anchor="start" x="591.38" y="-141.7" font-family="Helvetica,sans-Serif" font-weight="bold" font-size="14.00">Inner Loop</text>
<text text-anchor="start" x="578.25" y="-132.45" font-family="Helvetica,sans-Serif" font-size="9.00">θ = code of current task</text>
</g>
<g id="clust2" class="cluster">
<title>cluster_refine</title>
<path fill="#fef4ea" stroke="#ff7f0e" d="M134.5,-166C134.5,-166 1454,-166 1454,-166 1460,-166 1466,-172 1466,-178 1466,-178 1466,-287 1466,-287 1466,-293 1460,-299 1454,-299 1454,-299 134.5,-299 134.5,-299 128.5,-299 122.5,-293 122.5,-287 122.5,-287 122.5,-178 122.5,-178 122.5,-172 128.5,-166 134.5,-166"/>
<text text-anchor="start" x="716.62" y="-282.7" font-family="Helvetica,sans-Serif" font-weight="bold" font-size="14.00">Refinement (y&#45;axis)</text>
<text text-anchor="start" x="715.88" y="-273.45" font-family="Helvetica,sans-Serif" font-size="9.00">θ = deliverable of a completed run</text>
</g>
<g id="clust3" class="cluster">
<title>cluster_outer</title>
<path fill="#f5ebfd" stroke="#9467bd" d="M126.25,-307C126.25,-307 1886.23,-307 1886.23,-307 1892.23,-307 1898.23,-313 1898.23,-319 1898.23,-319 1898.23,-424 1898.23,-424 1898.23,-430 1892.23,-436 1886.23,-436 1886.23,-436 126.25,-436 126.25,-436 120.25,-436 114.25,-430 114.25,-424 114.25,-424 114.25,-319 114.25,-319 114.25,-313 120.25,-307 126.25,-307"/>
<text text-anchor="start" x="929.74" y="-419.7" font-family="Helvetica,sans-Serif" font-weight="bold" font-size="14.00">Outer Loop (θ&#45;axis)</text>
<text text-anchor="start" x="942.49" y="-410.45" font-family="Helvetica,sans-Serif" font-size="9.00">θ = skills / prompts / rubrics</text>
</g>
<!-- plan_i -->
<g id="node1" class="node">
<title>plan_i</title>
<path fill="#ffffff" stroke="black" d="M239.12,-58.25C239.12,-58.25 167.62,-58.25 167.62,-58.25 161.62,-58.25 155.62,-52.25 155.62,-46.25 155.62,-46.25 155.62,-27.75 155.62,-27.75 155.62,-21.75 161.62,-15.75 167.62,-15.75 167.62,-15.75 239.12,-15.75 239.12,-15.75 245.12,-15.75 251.12,-21.75 251.12,-27.75 251.12,-27.75 251.12,-46.25 251.12,-46.25 251.12,-52.25 245.12,-58.25 239.12,-58.25"/>
<text text-anchor="middle" x="203.38" y="-40.95" font-family="Helvetica,sans-Serif" font-size="14.00">plan</text>
<text text-anchor="middle" x="203.38" y="-23.7" font-family="Helvetica,sans-Serif" font-size="14.00">(dialectical)</text>
</g>
<!-- code_i -->
<g id="node2" class="node">
<title>code_i</title>
<path fill="#ffffff" stroke="black" d="M618.5,-58.25C618.5,-58.25 475.75,-58.25 475.75,-58.25 469.75,-58.25 463.75,-52.25 463.75,-46.25 463.75,-46.25 463.75,-27.75 463.75,-27.75 463.75,-21.75 469.75,-15.75 475.75,-15.75 475.75,-15.75 618.5,-15.75 618.5,-15.75 624.5,-15.75 630.5,-21.75 630.5,-27.75 630.5,-27.75 630.5,-46.25 630.5,-46.25 630.5,-52.25 624.5,-58.25 618.5,-58.25"/>
<text text-anchor="middle" x="547.12" y="-40.95" font-family="Helvetica,sans-Serif" font-size="14.00">code</text>
<text text-anchor="middle" x="547.12" y="-23.7" font-family="Helvetica,sans-Serif" font-size="14.00">(one focused change)</text>
</g>
<!-- plan_i&#45;&gt;code_i -->
<g id="edge1" class="edge">
<title>plan_i&#45;&gt;code_i</title>
<path fill="none" stroke="black" d="M251.54,-37C303.01,-37 386.77,-37 451.84,-37"/>
<polygon fill="black" stroke="black" points="451.84,-40.5 461.84,-37 451.84,-33.5 451.84,-40.5"/>
<text text-anchor="middle" x="435.25" y="-40.25" font-family="Helvetica,sans-Serif" font-size="10.00">K≤5</text>
</g>
<!-- gate_i -->
<g id="node3" class="node">
<title>gate_i</title>
<path fill="#ffffff" stroke="black" d="M823.5,-58.25C823.5,-58.25 699.5,-58.25 699.5,-58.25 693.5,-58.25 687.5,-52.25 687.5,-46.25 687.5,-46.25 687.5,-27.75 687.5,-27.75 687.5,-21.75 693.5,-15.75 699.5,-15.75 699.5,-15.75 823.5,-15.75 823.5,-15.75 829.5,-15.75 835.5,-21.75 835.5,-27.75 835.5,-27.75 835.5,-46.25 835.5,-46.25 835.5,-52.25 829.5,-58.25 823.5,-58.25"/>
<text text-anchor="middle" x="761.5" y="-40.95" font-family="Helvetica,sans-Serif" font-size="14.00">fast gates</text>
<text text-anchor="middle" x="761.5" y="-23.7" font-family="Helvetica,sans-Serif" font-size="14.00">→ E2E if warranted</text>
</g>
<!-- code_i&#45;&gt;gate_i -->
<g id="edge2" class="edge">
<title>code_i&#45;&gt;gate_i</title>
<path fill="none" stroke="black" d="M630.84,-37C645.69,-37 661.19,-37 676.08,-37"/>
<polygon fill="black" stroke="black" points="675.82,-40.5 685.82,-37 675.82,-33.5 675.82,-40.5"/>
<text text-anchor="middle" x="659" y="-40.25" font-family="Helvetica,sans-Serif" font-size="10.00">K≤5</text>
</g>
<!-- diag_i -->
<g id="node4" class="node">
<title>diag_i</title>
<path fill="#ffffff" stroke="black" d="M1161,-88.25C1161,-88.25 1053.5,-88.25 1053.5,-88.25 1047.5,-88.25 1041.5,-82.25 1041.5,-76.25 1041.5,-76.25 1041.5,-57.75 1041.5,-57.75 1041.5,-51.75 1047.5,-45.75 1053.5,-45.75 1053.5,-45.75 1161,-45.75 1161,-45.75 1167,-45.75 1173,-51.75 1173,-57.75 1173,-57.75 1173,-76.25 1173,-76.25 1173,-82.25 1167,-88.25 1161,-88.25"/>
<text text-anchor="middle" x="1107.25" y="-70.95" font-family="Helvetica,sans-Serif" font-size="14.00">diagnose</text>
<text text-anchor="middle" x="1107.25" y="-53.7" font-family="Helvetica,sans-Serif" font-size="14.00">(5&#45;why&#45;by&#45;layer)</text>
</g>
<!-- gate_i&#45;&gt;diag_i -->
<g id="edge3" class="edge">
<title>gate_i&#45;&gt;diag_i</title>
<path fill="none" stroke="black" d="M835.82,-43.4C892.94,-48.38 972,-55.28 1029.88,-60.33"/>
<polygon fill="black" stroke="black" points="1029.39,-63.81 1039.65,-61.19 1029.99,-56.83 1029.39,-63.81"/>
<text text-anchor="middle" x="891.75" y="-54.35" font-family="Helvetica,sans-Serif" font-size="10.00">K≤5</text>
</g>
<!-- diag_i&#45;&gt;plan_i -->
<g id="edge4" class="edge">
<title>diag_i&#45;&gt;plan_i</title>
<path fill="none" stroke="black" d="M1041.38,-67.46C1008.08,-67.67 966.87,-67.9 930,-68 722.78,-68.59 670.61,-79.19 463.75,-67 394.4,-62.91 315.13,-52.97 262.67,-45.64"/>
<polygon fill="black" stroke="black" points="263.45,-42.22 253.06,-44.29 262.48,-49.15 263.45,-42.22"/>
<text text-anchor="middle" x="659" y="-76.07" font-family="Helvetica,sans-Serif" font-size="10.00">K≤5</text>
</g>
<!-- budget_i -->
<g id="node5" class="node">
<title>budget_i</title>
<polygon fill="#fff9e6" stroke="#d4a017" points="307,-119.25 93.75,-119.25 93.75,-76.75 313,-76.75 313,-113.25 307,-119.25"/>
<polyline fill="none" stroke="#d4a017" points="307,-119.25 307,-113.25"/>
<polyline fill="none" stroke="#d4a017" points="313,-113.25 307,-113.25"/>
<text text-anchor="middle" x="203.38" y="-101.95" font-family="Helvetica,sans-Serif" font-size="14.00">K_MAX = 5</text>
<text text-anchor="middle" x="203.38" y="-84.7" font-family="Helvetica,sans-Serif" font-size="14.00">escalate on non&#45;convergence</text>
</g>
<!-- seed_r -->
<g id="node6" class="node">
<title>seed_r</title>
<path fill="#ffffff" stroke="black" d="M264.25,-236.25C264.25,-236.25 142.5,-236.25 142.5,-236.25 136.5,-236.25 130.5,-230.25 130.5,-224.25 130.5,-224.25 130.5,-205.75 130.5,-205.75 130.5,-199.75 136.5,-193.75 142.5,-193.75 142.5,-193.75 264.25,-193.75 264.25,-193.75 270.25,-193.75 276.25,-199.75 276.25,-205.75 276.25,-205.75 276.25,-224.25 276.25,-224.25 276.25,-230.25 270.25,-236.25 264.25,-236.25"/>
<text text-anchor="middle" x="203.38" y="-218.95" font-family="Helvetica,sans-Serif" font-size="14.00">seed run</text>
<text text-anchor="middle" x="203.38" y="-201.7" font-family="Helvetica,sans-Serif" font-size="14.00">(already complete)</text>
</g>
<!-- grad_r -->
<g id="node7" class="node">
<title>grad_r</title>
<path fill="#ffffff" stroke="black" d="M605.38,-253.5C605.38,-253.5 488.88,-253.5 488.88,-253.5 482.88,-253.5 476.88,-247.5 476.88,-241.5 476.88,-241.5 476.88,-188.5 476.88,-188.5 476.88,-182.5 482.88,-176.5 488.88,-176.5 488.88,-176.5 605.38,-176.5 605.38,-176.5 611.38,-176.5 617.38,-182.5 617.38,-188.5 617.38,-188.5 617.38,-241.5 617.38,-241.5 617.38,-247.5 611.38,-253.5 605.38,-253.5"/>
<text text-anchor="middle" x="547.12" y="-236.2" font-family="Helvetica,sans-Serif" font-size="14.00">gradient =</text>
<text text-anchor="middle" x="547.12" y="-218.95" font-family="Helvetica,sans-Serif" font-size="14.00">critique defects +</text>
<text text-anchor="middle" x="547.12" y="-201.7" font-family="Helvetica,sans-Serif" font-size="14.00">gate rejections +</text>
<text text-anchor="middle" x="547.12" y="-184.45" font-family="Helvetica,sans-Serif" font-size="14.00">eval deltas</text>
</g>
<!-- seed_r&#45;&gt;grad_r -->
<g id="edge5" class="edge">
<title>seed_r&#45;&gt;grad_r</title>
<path fill="none" stroke="black" d="M276.43,-215C331.69,-215 407.96,-215 465.3,-215"/>
<polygon fill="black" stroke="black" points="464.99,-218.5 474.99,-215 464.99,-211.5 464.99,-218.5"/>
</g>
<!-- iter_r -->
<g id="node8" class="node">
<title>iter_r</title>
<path fill="#ffffff" stroke="black" d="M813,-236.25C813,-236.25 710,-236.25 710,-236.25 704,-236.25 698,-230.25 698,-224.25 698,-224.25 698,-205.75 698,-205.75 698,-199.75 704,-193.75 710,-193.75 710,-193.75 813,-193.75 813,-193.75 819,-193.75 825,-199.75 825,-205.75 825,-205.75 825,-224.25 825,-224.25 825,-230.25 819,-236.25 813,-236.25"/>
<text text-anchor="middle" x="761.5" y="-218.95" font-family="Helvetica,sans-Serif" font-size="14.00">iteration k</text>
<text text-anchor="middle" x="761.5" y="-201.7" font-family="Helvetica,sans-Serif" font-size="14.00">(budget halved)</text>
</g>
<!-- grad_r&#45;&gt;iter_r -->
<g id="edge6" class="edge">
<title>grad_r&#45;&gt;iter_r</title>
<path fill="none" stroke="black" d="M617.66,-215C639.61,-215 663.93,-215 686.19,-215"/>
<polygon fill="black" stroke="black" points="686.11,-218.5 696.11,-215 686.11,-211.5 686.11,-218.5"/>
</g>
<!-- stop_r -->
<g id="node9" class="node">
<title>stop_r</title>
<path fill="#ffffff" stroke="black" d="M1095.66,-256.41C1095.66,-256.41 959.59,-220.09 959.59,-220.09 953.8,-218.55 953.8,-215.45 959.59,-213.91 959.59,-213.91 1095.66,-177.59 1095.66,-177.59 1101.45,-176.05 1113.05,-176.05 1118.84,-177.59 1118.84,-177.59 1254.91,-213.91 1254.91,-213.91 1260.7,-215.45 1260.7,-218.55 1254.91,-220.09 1254.91,-220.09 1118.84,-256.41 1118.84,-256.41 1113.05,-257.95 1101.45,-257.95 1095.66,-256.41"/>
<text text-anchor="middle" x="1107.25" y="-220.95" font-family="Helvetica,sans-Serif" font-size="14.00">regression? plateau?</text>
<text text-anchor="middle" x="1107.25" y="-203.7" font-family="Helvetica,sans-Serif" font-size="14.00">wall&#45;time?</text>
</g>
<!-- iter_r&#45;&gt;stop_r -->
<g id="edge7" class="edge">
<title>iter_r&#45;&gt;stop_r</title>
<path fill="none" stroke="black" d="M825.13,-210.33C834.63,-209.78 844.32,-209.3 853.5,-209 888.84,-207.84 926.95,-208.2 962.61,-209.24"/>
<polygon fill="black" stroke="black" points="962.47,-212.73 972.57,-209.55 962.69,-205.74 962.47,-212.73"/>
</g>
<!-- stop_r&#45;&gt;iter_r -->
<g id="edge8" class="edge">
<title>stop_r&#45;&gt;iter_r</title>
<path fill="none" stroke="black" d="M949.65,-216.09C910.24,-215.86 869.76,-215.62 836.57,-215.43"/>
<polygon fill="black" stroke="black" points="836.68,-211.93 826.66,-215.37 836.64,-218.93 836.68,-211.93"/>
<text text-anchor="middle" x="891.75" y="-219.19" font-family="Helvetica,sans-Serif" font-size="10.00">no</text>
</g>
<!-- best_r -->
<g id="node10" class="node">
<title>best_r</title>
<path fill="#e6fbe6" stroke="black" d="M1446,-246.88C1446,-246.88 1331.75,-246.88 1331.75,-246.88 1325.75,-246.88 1319.75,-240.88 1319.75,-234.88 1319.75,-234.88 1319.75,-199.12 1319.75,-199.12 1319.75,-193.12 1325.75,-187.12 1331.75,-187.12 1331.75,-187.12 1446,-187.12 1446,-187.12 1452,-187.12 1458,-193.12 1458,-199.12 1458,-199.12 1458,-234.88 1458,-234.88 1458,-240.88 1452,-246.88 1446,-246.88"/>
<text text-anchor="middle" x="1388.88" y="-229.57" font-family="Helvetica,sans-Serif" font-size="14.00">BEST/</text>
<text text-anchor="middle" x="1388.88" y="-212.32" font-family="Helvetica,sans-Serif" font-size="14.00">(winning iteration</text>
<text text-anchor="middle" x="1388.88" y="-195.07" font-family="Helvetica,sans-Serif" font-size="14.00">hard&#45;linked)</text>
</g>
<!-- stop_r&#45;&gt;best_r -->
<g id="edge9" class="edge">
<title>stop_r&#45;&gt;best_r</title>
<path fill="none" stroke="black" d="M1268.07,-217C1281.84,-217 1295.35,-217 1308.04,-217"/>
<polygon fill="black" stroke="black" points="1307.93,-220.5 1317.93,-217 1307.93,-213.5 1307.93,-220.5"/>
<text text-anchor="middle" x="1293.12" y="-220.25" font-family="Helvetica,sans-Serif" font-size="10.00">yes</text>
</g>
<!-- suite_o -->
<g id="node11" class="node">
<title>suite_o</title>
<path fill="#ffffff" stroke="black" d="M272.5,-397.25C272.5,-397.25 134.25,-397.25 134.25,-397.25 128.25,-397.25 122.25,-391.25 122.25,-385.25 122.25,-385.25 122.25,-366.75 122.25,-366.75 122.25,-360.75 128.25,-354.75 134.25,-354.75 134.25,-354.75 272.5,-354.75 272.5,-354.75 278.5,-354.75 284.5,-360.75 284.5,-366.75 284.5,-366.75 284.5,-385.25 284.5,-385.25 284.5,-391.25 278.5,-397.25 272.5,-397.25"/>
<text text-anchor="middle" x="203.38" y="-379.95" font-family="Helvetica,sans-Serif" font-size="14.00">task suite</text>
<text text-anchor="middle" x="203.38" y="-362.7" font-family="Helvetica,sans-Serif" font-size="14.00">(many unseen tasks)</text>
</g>
<!-- run_o -->
<g id="node12" class="node">
<title>run_o</title>
<path fill="#ffffff" stroke="black" d="M581,-357.25C581,-357.25 513.25,-357.25 513.25,-357.25 507.25,-357.25 501.25,-351.25 501.25,-345.25 501.25,-345.25 501.25,-326.75 501.25,-326.75 501.25,-320.75 507.25,-314.75 513.25,-314.75 513.25,-314.75 581,-314.75 581,-314.75 587,-314.75 593,-320.75 593,-326.75 593,-326.75 593,-345.25 593,-345.25 593,-351.25 587,-357.25 581,-357.25"/>
<text text-anchor="middle" x="547.12" y="-339.95" font-family="Helvetica,sans-Serif" font-size="14.00">run each</text>
<text text-anchor="middle" x="547.12" y="-322.7" font-family="Helvetica,sans-Serif" font-size="14.00">collect loss</text>
</g>
<!-- suite_o&#45;&gt;run_o -->
<g id="edge10" class="edge">
<title>suite_o&#45;&gt;run_o</title>
<path fill="none" stroke="black" d="M284.93,-366.57C347.94,-359.2 433.94,-349.13 489.75,-342.6"/>
<polygon fill="black" stroke="black" points="490.15,-346.08 499.68,-341.44 489.34,-339.12 490.15,-346.08"/>
</g>
<!-- mean_o -->
<g id="node13" class="node">
<title>mean_o</title>
<path fill="#ffffff" stroke="black" d="M798.75,-357.25C798.75,-357.25 724.25,-357.25 724.25,-357.25 718.25,-357.25 712.25,-351.25 712.25,-345.25 712.25,-345.25 712.25,-326.75 712.25,-326.75 712.25,-320.75 718.25,-314.75 724.25,-314.75 724.25,-314.75 798.75,-314.75 798.75,-314.75 804.75,-314.75 810.75,-320.75 810.75,-326.75 810.75,-326.75 810.75,-345.25 810.75,-345.25 810.75,-351.25 804.75,-357.25 798.75,-357.25"/>
<text text-anchor="middle" x="761.5" y="-339.95" font-family="Helvetica,sans-Serif" font-size="14.00">mean_loss</text>
<text text-anchor="middle" x="761.5" y="-322.7" font-family="Helvetica,sans-Serif" font-size="14.00">across suite</text>
</g>
<!-- run_o&#45;&gt;mean_o -->
<g id="edge11" class="edge">
<title>run_o&#45;&gt;mean_o</title>
<path fill="none" stroke="black" d="M593.42,-336C624.73,-336 666.69,-336 700.73,-336"/>
<polygon fill="black" stroke="black" points="700.43,-339.5 710.43,-336 700.43,-332.5 700.43,-339.5"/>
</g>
<!-- prop_o -->
<g id="node14" class="node">
<title>prop_o</title>
<path fill="#ffffff" stroke="black" d="M1167.75,-357.25C1167.75,-357.25 1046.75,-357.25 1046.75,-357.25 1040.75,-357.25 1034.75,-351.25 1034.75,-345.25 1034.75,-345.25 1034.75,-326.75 1034.75,-326.75 1034.75,-320.75 1040.75,-314.75 1046.75,-314.75 1046.75,-314.75 1167.75,-314.75 1167.75,-314.75 1173.75,-314.75 1179.75,-320.75 1179.75,-326.75 1179.75,-326.75 1179.75,-345.25 1179.75,-345.25 1179.75,-351.25 1173.75,-357.25 1167.75,-357.25"/>
<text text-anchor="middle" x="1107.25" y="-339.95" font-family="Helvetica,sans-Serif" font-size="14.00">TextGrad proposes</text>
<text text-anchor="middle" x="1107.25" y="-322.7" font-family="Helvetica,sans-Serif" font-size="14.00">skill/prompt edit</text>
</g>
<!-- mean_o&#45;&gt;prop_o -->
<g id="edge12" class="edge">
<title>mean_o&#45;&gt;prop_o</title>
<path fill="none" stroke="black" d="M811.02,-336C866.04,-336 956.71,-336 1023.07,-336"/>
<polygon fill="black" stroke="black" points="1022.82,-339.5 1032.82,-336 1022.82,-332.5 1022.82,-339.5"/>
</g>
<!-- apply_o -->
<g id="node15" class="node">
<title>apply_o</title>
<path fill="#ffffff" stroke="black" d="M1429.88,-357.25C1429.88,-357.25 1347.88,-357.25 1347.88,-357.25 1341.88,-357.25 1335.88,-351.25 1335.88,-345.25 1335.88,-345.25 1335.88,-326.75 1335.88,-326.75 1335.88,-320.75 1341.88,-314.75 1347.88,-314.75 1347.88,-314.75 1429.88,-314.75 1429.88,-314.75 1435.88,-314.75 1441.88,-320.75 1441.88,-326.75 1441.88,-326.75 1441.88,-345.25 1441.88,-345.25 1441.88,-351.25 1435.88,-357.25 1429.88,-357.25"/>
<text text-anchor="middle" x="1388.88" y="-339.95" font-family="Helvetica,sans-Serif" font-size="14.00">apply, re&#45;run</text>
<text text-anchor="middle" x="1388.88" y="-322.7" font-family="Helvetica,sans-Serif" font-size="14.00">suite</text>
</g>
<!-- prop_o&#45;&gt;apply_o -->
<g id="edge13" class="edge">
<title>prop_o&#45;&gt;apply_o</title>
<path fill="none" stroke="black" d="M1179.9,-336C1224.36,-336 1281.01,-336 1323.95,-336"/>
<polygon fill="black" stroke="black" points="1323.89,-339.5 1333.89,-336 1323.89,-332.5 1323.89,-339.5"/>
</g>
<!-- rb_o -->
<g id="node16" class="node">
<title>rb_o</title>
<path fill="#ffffff" stroke="black" d="M1577.95,-374.76C1577.95,-374.76 1506.79,-361.24 1506.79,-361.24 1500.89,-360.12 1500.89,-357.88 1506.79,-356.76 1506.79,-356.76 1577.95,-343.24 1577.95,-343.24 1583.85,-342.12 1595.63,-342.12 1601.53,-343.24 1601.53,-343.24 1672.69,-356.76 1672.69,-356.76 1678.59,-357.88 1678.59,-360.12 1672.69,-361.24 1672.69,-361.24 1601.53,-374.76 1601.53,-374.76 1595.63,-375.88 1583.85,-375.88 1577.95,-374.76"/>
<text text-anchor="middle" x="1589.74" y="-354.32" font-family="Helvetica,sans-Serif" font-size="14.00">regression?</text>
</g>
<!-- apply_o&#45;&gt;rb_o -->
<g id="edge14" class="edge">
<title>apply_o&#45;&gt;rb_o</title>
<path fill="none" stroke="black" d="M1442.12,-342.04C1465.28,-344.72 1492.87,-347.91 1517.84,-350.8"/>
<polygon fill="black" stroke="black" points="1517.27,-354.26 1527.6,-351.93 1518.07,-347.3 1517.27,-354.26"/>
</g>
<!-- rb_o&#45;&gt;suite_o -->
<g id="edge15" class="edge">
<title>rb_o&#45;&gt;suite_o</title>
<path fill="none" stroke="black" d="M1531.85,-366.46C1492.14,-371.02 1437.87,-376 1389.88,-376 546.12,-376 546.12,-376 546.12,-376 461.4,-376 364.86,-376 296.05,-376"/>
<polygon fill="black" stroke="black" points="296.33,-372.5 286.33,-376 296.33,-379.5 296.33,-372.5"/>
<text text-anchor="middle" x="891.75" y="-379.25" font-family="Helvetica,sans-Serif" font-size="10.00">no (next epoch)</text>
</g>
<!-- rollback_o -->
<g id="node17" class="node">
<title>rollback_o</title>
<path fill="#fdeaea" stroke="black" d="M1878.23,-389.25C1878.23,-389.25 1749.73,-389.25 1749.73,-389.25 1743.73,-389.25 1737.73,-383.25 1737.73,-377.25 1737.73,-377.25 1737.73,-358.75 1737.73,-358.75 1737.73,-352.75 1743.73,-346.75 1749.73,-346.75 1749.73,-346.75 1878.23,-346.75 1878.23,-346.75 1884.23,-346.75 1890.23,-352.75 1890.23,-358.75 1890.23,-358.75 1890.23,-377.25 1890.23,-377.25 1890.23,-383.25 1884.23,-389.25 1878.23,-389.25"/>
<text text-anchor="middle" x="1813.98" y="-371.95" font-family="Helvetica,sans-Serif" font-size="14.00">rollback last update</text>
<text text-anchor="middle" x="1813.98" y="-354.7" font-family="Helvetica,sans-Serif" font-size="14.00">halve learning rate</text>
</g>
<!-- rb_o&#45;&gt;rollback_o -->
<g id="edge16" class="edge">
<title>rb_o&#45;&gt;rollback_o</title>
<path fill="none" stroke="black" d="M1670.03,-362.21C1688.2,-362.95 1707.61,-363.73 1726.08,-364.48"/>
<polygon fill="black" stroke="black" points="1725.79,-367.97 1735.93,-364.88 1726.08,-360.98 1725.79,-367.97"/>
<text text-anchor="middle" x="1711.11" y="-367.29" font-family="Helvetica,sans-Serif" font-size="10.00">yes</text>
</g>
<!-- rollback_o&#45;&gt;suite_o -->
<g id="edge17" class="edge">
<title>rollback_o&#45;&gt;suite_o</title>
<path fill="none" stroke="black" d="M1737.42,-382.29C1694.56,-389.19 1639.84,-396 1590.74,-396 546.12,-396 546.12,-396 546.12,-396 461.25,-396 364.73,-389.78 295.96,-384.27"/>
<polygon fill="black" stroke="black" points="296.5,-380.81 286.25,-383.48 295.93,-387.78 296.5,-380.81"/>
</g>
<!-- note_combined -->
<g id="node18" class="node">
<title>note_combined</title>
<polygon fill="#fff9e6" stroke="#d4a017" points="400.75,-508 0,-508 0,-444 406.75,-444 406.75,-502 400.75,-508"/>
<polyline fill="none" stroke="#d4a017" points="400.75,-508 400.75,-502"/>
<polyline fill="none" stroke="#d4a017" points="406.75,-502 400.75,-502"/>
<text text-anchor="start" x="54.88" y="-491.7" font-family="Helvetica,sans-Serif" font-weight="bold" font-size="14.00">Rule:</text>
<text text-anchor="start" x="94.62" y="-491.7" font-family="Helvetica,sans-Serif" font-size="14.00"> treat the three axes as independent.</text>
<text text-anchor="start" x="12.5" y="-477.7" font-family="Helvetica,sans-Serif" font-size="14.00">Inner&#45;loop edits on a weak deliverable are over&#45;editing.</text>
<text text-anchor="start" x="8" y="-463.7" font-family="Helvetica,sans-Serif" font-size="14.00">Refinement edits on buggy code polish a broken output.</text>
<text text-anchor="start" x="10.62" y="-449.7" font-family="Helvetica,sans-Serif" font-size="14.00">Outer&#45;loop edits without a suite are anecdotal skill drift.</text>
</g>
</g>
</svg>
